<?xml version="1.0" encoding="iso-8859-1"?>
<!-- Generator: Adobe Illustrator 19.0.0, SVG Export Plug-In . SVG Version: 6.00 Build 0)  -->
<svg xmlns="http://www.w3.org/2000/svg" xmlns:xlink="http://www.w3.org/1999/xlink" version="1.1" id="Capa_1" x="0px" y="0px" viewBox="0 0 512 512" style="enable-background:new 0 0 512 512;" xml:space="preserve">
<path style="fill:#C9AD80;" d="M187.127,26h-33.505c-7.639,0-14.643,3.993-17.993,10.329C99.149,105.327,75.488,180.663,76.008,256  c-0.52,75.335,23.141,150.671,59.622,219.671c3.35,6.337,10.354,10.329,17.993,10.329h33.504  c-23.778-71.771-39.45-150.884-39.123-230.001C147.677,176.884,163.349,97.771,187.127,26z"/>
<path style="fill:#7A5436;" d="M324.872,486h33.505c7.639,0,14.642-3.993,17.993-10.329c36.48-68.996,60.141-144.332,59.621-219.672  c0.52-75.338-23.14-150.674-59.621-219.67C373.02,29.993,366.017,26,358.378,26h-33.505c23.777,71.773,39.45,150.886,39.122,230  C364.323,335.112,348.65,414.225,324.872,486z"/>
<path style="fill:#B69362;" d="M165.751,26c-25.43,71.773-42.075,150.886-41.735,230c-0.34,79.112,16.304,158.225,41.735,230  c15.305,0,74.944,0,90.249,0c0-152.384,0-307.616,0-460C240.695,26,181.056,26,165.751,26z"/>
<path style="fill:#8D663D;" d="M346.249,26c-15.305,0-74.944,0-90.249,0c0,152.384,0,307.616,0,460c15.306,0,74.943,0,90.249,0  c25.43-71.771,42.074-150.884,41.734-230.001C388.323,176.884,371.678,97.771,346.249,26z"/>
<path style="fill:#A57D48;" d="M296.388,486c-33.426,0-47.351,0-80.777,0c-26.149-152.384-26.149-307.616,0-460  c33.426,0,47.351,0,80.777,0C322.536,178.384,322.536,333.616,296.388,486z"/>
<path style="fill:#6F7475;" d="M381,7.5H131c-2.761,0-5,2.239-5,5V41c0,2.761,2.239,5,5,5h250c2.761,0,5-2.239,5-5V12.5  C386,9.739,383.76,7.5,381,7.5z"/>
<path style="fill:#91928F;" d="M256,7.5H131c-2.761,0-5,2.239-5,5V41c0,2.761,2.239,5,5,5h125V7.5z"/>
<rect x="156" y="7.5" style="fill:#A4A49E;" width="100" height="38.5"/>
<path style="fill:#6F7475;" d="M381,466H131c-2.761,0-5,2.239-5,5v28.5c0,2.761,2.239,5,5,5h250c2.761,0,5-2.239,5-5V471  C386,468.239,383.76,466,381,466z"/>
<path style="fill:#91928F;" d="M256,466H131c-2.761,0-5,2.239-5,5v28.5c0,2.761,2.239,5,5,5h125V466z"/>
<rect x="156" y="466" style="fill:#A4A49E;" width="100" height="38.5"/>
<path style="fill:#6F7475;" d="M441,236.75H71c-2.761,0-5,2.239-5,5v28.5c0,2.761,2.239,5,5,5h370c2.761,0,5-2.239,5-5v-28.5  C446,238.989,443.76,236.75,441,236.75z"/>
<path style="fill:#91928F;" d="M256,236.75H71c-2.761,0-5,2.239-5,5v28.5c0,2.761,2.239,5,5,5h185V236.75z"/>
<rect x="116" y="236.75" style="fill:#A4A49E;" width="140" height="38.5"/>
<path style="fill:#C9AD80;" d="M184,208.5h-10c-4.143,0-7.5-3.358-7.5-7.5s3.357-7.5,7.5-7.5h10c4.143,0,7.5,3.358,7.5,7.5  S188.143,208.5,184,208.5z"/>
<path style="fill:#A57D48;" d="M338,208.5h-10c-4.143,0-7.5-3.358-7.5-7.5s3.357-7.5,7.5-7.5h10c4.143,0,7.5,3.358,7.5,7.5  S342.143,208.5,338,208.5z"/>
<path d="M442.682,229.377c-3.806-58.319-21.173-119.11-51.695-180.904c1.577-2.093,2.513-4.686,2.513-7.473V12.5  C393.5,5.607,387.893,0,381,0H131c-6.893,0-12.5,5.607-12.5,12.5c0,4.143,3.357,7.5,7.5,7.5c3.266,0,6.044-2.087,7.073-5H378.5v23.5  h-25.541c-0.006,0-0.012,0-0.019,0h-53.292h-87.299h-53.29c-0.006,0-0.012,0-0.019,0H133.07c-1.029-2.913-3.808-5-7.073-5  c-4.143,0-7.5,3.357-7.5,7.5c0,2.787,0.935,5.379,2.513,7.472c-30.521,61.794-47.889,122.585-51.697,180.905  C63.219,230.203,58.5,235.43,58.5,241.75c0,4.143,3.357,7.5,7.5,7.5c3.266,0,6.044-2.087,7.073-5h123.08h119.692H438.5v23.5H73.073  c-1.029-2.913-3.808-5-7.073-5c-4.143,0-7.5,3.357-7.5,7.5c0,6.32,4.719,11.547,10.817,12.373  c3.807,58.315,21.174,119.106,51.696,180.903c-1.577,2.094-2.513,4.686-2.513,7.474c0,4.143,3.357,7.5,7.5,7.5  c3.266,0,6.044-2.087,7.073-5h25.86c0.008,0,0.016,0.002,0.025,0.002s0.017-0.002,0.025-0.002h53.336  c0.007,0,0.014,0.001,0.021,0.001c0.004,0,0.008-0.001,0.013-0.001h87.293c0.004,0,0.009,0.001,0.013,0.001  c0.007,0,0.014-0.001,0.021-0.001h53.336c0.008,0,0.017,0.002,0.025,0.002s0.016-0.002,0.025-0.002H378.5V497H133.073  c-1.029-2.913-3.808-5-7.073-5c-4.143,0-7.5,3.357-7.5,7.5c0,6.893,5.607,12.5,12.5,12.5h250c6.893,0,12.5-5.607,12.5-12.5V471  c0-2.787-0.935-5.379-2.513-7.472c30.521-61.794,47.888-122.585,51.696-180.905c6.098-0.826,10.818-6.053,10.818-12.373v-28.5  C453.5,235.43,448.78,230.203,442.682,229.377z M376.73,53.5c29.946,60.181,47.05,119.239,50.907,175.75h-32.684  c-2.396-56.793-13.034-115.831-31.665-175.75H376.73z M135.27,53.5h13.442c-18.631,59.921-29.269,118.958-31.665,175.75H84.362  C88.221,172.74,105.325,113.681,135.27,53.5z M203.785,229.25c0.086-4.166,0.194-8.479,0.329-13.028  c0.122-4.141-3.136-7.597-7.275-7.719c-4.143-0.101-7.597,3.136-7.719,7.275c-0.139,4.708-0.251,9.165-0.338,13.472h-56.72  c2.453-56.705,13.327-115.762,32.369-175.75h39.193c-4.068,27.178-7.361,54.798-9.786,82.241c-0.365,4.126,2.685,7.767,6.811,8.131  c0.225,0.021,0.447,0.029,0.669,0.029c3.844,0,7.117-2.938,7.462-6.84c2.465-27.89,5.826-55.967,10.005-83.562h74.43  c4.173,27.56,7.532,55.608,9.997,83.471c0.365,4.127,4.008,7.18,8.132,6.81c4.126-0.365,7.175-4.006,6.81-8.132  c-2.425-27.415-5.714-55.004-9.778-82.148h39.193c19.042,59.987,29.916,119.044,32.369,175.75h-56.72  c-0.087-4.301-0.199-8.758-0.337-13.472c-0.12-4.064-3.453-7.278-7.493-7.278c-0.074,0-0.149,0.001-0.226,0.003  c-4.14,0.122-7.397,3.578-7.275,7.719c0.135,4.556,0.243,8.868,0.329,13.028H203.785z M376.73,458.5h-13.442  c18.63-59.917,29.268-118.955,31.665-175.75h32.684C423.778,339.26,406.674,398.319,376.73,458.5z M308.374,458.5  c8.698-58.092,13.68-117.132,14.833-175.75h56.73c-2.454,56.708-13.328,115.766-32.369,175.75H308.374z M218.798,458.5  c-8.795-58.072-13.836-117.122-15.004-175.75h104.411c-1.167,58.626-6.208,117.676-15.003,175.75H218.798z M164.432,458.5  c-19.042-59.989-29.916-119.046-32.369-175.75h56.73c1.154,58.621,6.136,117.66,14.834,175.75H164.432z M135.271,458.5  c-29.945-60.185-47.05-119.244-50.908-175.75h32.685c2.396,56.791,13.034,115.828,31.665,175.75H135.271z"/>
<circle cx="146" cy="26.75" r="7.5"/>
<circle cx="191" cy="26.75" r="7.5"/>
<circle cx="236" cy="26.75" r="7.5"/>
<circle cx="281" cy="26.75" r="7.5"/>
<circle cx="326" cy="26.75" r="7.5"/>
<circle cx="366" cy="26.75" r="7.5"/>
<circle cx="146" cy="256" r="7.5"/>
<circle cx="103.5" cy="256" r="7.5"/>
<circle cx="191" cy="256" r="7.5"/>
<circle cx="236" cy="256" r="7.5"/>
<circle cx="281" cy="256" r="7.5"/>
<circle cx="326" cy="256" r="7.5"/>
<circle cx="366" cy="256" r="7.5"/>
<circle cx="408.5" cy="256" r="7.5"/>
<circle cx="146" cy="485.25" r="7.5"/>
<circle cx="191" cy="485.25" r="7.5"/>
<circle cx="236" cy="485.25" r="7.5"/>
<circle cx="281" cy="485.25" r="7.5"/>
<circle cx="326" cy="485.25" r="7.5"/>
<circle cx="366" cy="485.25" r="7.5"/>
<circle cx="206" cy="181" r="15"/>
<circle cx="306" cy="181" r="15"/>
<g>
</g>
<g>
</g>
<g>
</g>
<g>
</g>
<g>
</g>
<g>
</g>
<g>
</g>
<g>
</g>
<g>
</g>
<g>
</g>
<g>
</g>
<g>
</g>
<g>
</g>
<g>
</g>
<g>
</g>
</svg>
