<?xml version="1.0" encoding="iso-8859-1"?>
<!-- Generator: Adobe Illustrator 19.0.0, SVG Export Plug-In . SVG Version: 6.00 Build 0)  -->
<svg xmlns="http://www.w3.org/2000/svg" xmlns:xlink="http://www.w3.org/1999/xlink" version="1.1" id="Capa_1" x="0px" y="0px" viewBox="0 0 512.002 512.002" style="enable-background:new 0 0 512.002 512.002;" xml:space="preserve">
<path style="fill:#B69362;" d="M231.751,31.752c0,3.435,0.715,6.701,2.003,9.661c4.515,10.368,7.247,21.424,7.247,32.734v1.855  l15,15l10-48.254l-10-35.245C242.608,7.503,231.751,18.359,231.751,31.752z"/>
<path style="fill:#8D663D;" d="M256.001,7.503v83.499l15-15v-1.855c0-11.309,2.732-22.365,7.247-32.734  c1.289-2.959,2.003-6.226,2.003-9.661C280.251,18.359,269.394,7.503,256.001,7.503z"/>
<path style="fill:#B69362;" d="M241.001,76.002c-8.284,0-15,6.716-15,15s6.716,15,15,15h20v-30H241.001z"/>
<path style="fill:#8D663D;" d="M286.001,91.002c0-8.284-6.716-15-15-15h-10c-8.284,0-15,6.716-15,15s6.716,15,15,15h10  C279.285,106.002,286.001,99.286,286.001,91.002z"/>
<path style="fill:#B69362;" d="M231.751,480.253c0-3.435,0.715-6.701,2.003-9.661c4.515-10.369,7.247-21.425,7.247-32.734v-1.855  l15-15l10,48.254l-10,35.245C242.608,504.502,231.751,493.646,231.751,480.253z"/>
<path style="fill:#8D663D;" d="M256.001,504.502v-83.499l15,15v1.855c0,11.309,2.732,22.365,7.247,32.734  c1.289,2.959,2.003,6.226,2.003,9.661C280.251,493.646,269.394,504.502,256.001,504.502z"/>
<path style="fill:#B69362;" d="M241.001,436.003c-8.284,0-15-6.716-15-15s6.716-15,15-15h20v30H241.001z"/>
<path style="fill:#8D663D;" d="M286.001,421.003c0,8.284-6.716,15-15,15h-10c-8.284,0-15-6.716-15-15s6.716-15,15-15h10  C279.285,406.003,286.001,412.719,286.001,421.003z"/>
<path style="fill:#B69362;" d="M480.251,231.752c-3.435,0-6.701,0.715-9.661,2.003c-10.369,4.515-21.425,7.247-32.734,7.247h-1.855  l-15,15l48.254,10l35.245-10C504.5,242.61,493.645,231.752,480.251,231.752z"/>
<path style="fill:#8D663D;" d="M504.501,256.002h-83.5l15,15h1.855c11.309,0,22.365,2.732,32.734,7.247  c2.959,1.289,6.226,2.003,9.661,2.003C493.645,280.252,504.5,269.395,504.501,256.002z"/>
<path style="fill:#B69362;" d="M436.001,241.002c0-8.284-6.716-15-15-15s-15,6.716-15,15v20h30V241.002z"/>
<path style="fill:#8D663D;" d="M421.001,286.002c8.284,0,15-6.716,15-15v-10c0-8.284-6.716-15-15-15s-15,6.716-15,15v10  C406.001,279.287,412.717,286.002,421.001,286.002z"/>
<path style="fill:#B69362;" d="M31.751,231.752c3.435,0,6.701,0.715,9.661,2.003c10.368,4.516,21.424,7.247,32.733,7.247h1.856  l15,15l-48.254,10l-35.246-10C7.502,242.61,18.357,231.752,31.751,231.752z"/>
<path style="fill:#8D663D;" d="M7.501,256.002h83.5l-15,15h-1.855c-11.309,0-22.365,2.732-32.734,7.247  c-2.959,1.289-6.226,2.003-9.661,2.003C18.357,280.252,7.502,269.395,7.501,256.002z"/>
<path style="fill:#B69362;" d="M76.001,241.002c0-8.284,6.716-15,15-15s15,6.716,15,15v20h-30V241.002z"/>
<path style="fill:#8D663D;" d="M91.001,286.002c-8.284,0-15-6.716-15-15v-10c0-8.284,6.716-15,15-15s15,6.716,15,15v10  C106.001,279.287,99.285,286.002,91.001,286.002z"/>
<path style="fill:#B69362;" d="M431.717,397.424c-2.429-2.429-5.244-4.233-8.248-5.414c-10.524-4.139-20.274-10.026-28.27-18.022  l-1.312-1.312h-21.213l27.05,41.192l31.993,17.851C441.186,422.248,441.188,406.895,431.717,397.424z"/>
<path style="fill:#8D663D;" d="M431.717,431.718l-59.043-59.043v21.213l1.312,1.312c7.997,7.997,13.883,17.746,18.022,28.27  c1.181,3.004,2.986,5.819,5.414,8.248C406.893,441.189,422.246,441.188,431.717,431.718z"/>
<path style="fill:#B69362;" d="M393.887,372.675c5.858-5.858,5.858-15.355,0-21.213s-15.355-5.858-21.213,0l-14.142,14.142  l21.213,21.213L393.887,372.675z"/>
<path style="fill:#8D663D;" d="M351.461,393.889c5.858,5.858,15.355,5.858,21.213,0l7.071-7.071c5.858-5.858,5.858-15.355,0-21.213  s-15.355-5.858-21.213,0l-7.071,7.071C345.603,378.533,345.603,388.031,351.461,393.889z"/>
<path style="fill:#B69362;" d="M114.579,80.286c2.429,2.429,4.233,5.244,5.414,8.248c4.139,10.524,10.026,20.274,18.022,28.27  l1.312,1.312v21.213l-41.192-27.05l-17.85-31.992C89.756,70.817,105.109,70.816,114.579,80.286z"/>
<path style="fill:#8D663D;" d="M80.285,80.287l59.043,59.043h-21.213l-1.312-1.312c-7.997-7.997-17.746-13.883-28.27-18.022  c-3.004-1.182-5.819-2.986-8.248-5.414C70.814,105.11,70.816,89.757,80.285,80.287z"/>
<path style="fill:#B69362;" d="M139.328,118.116c5.858-5.858,15.355-5.858,21.213,0s5.858,15.355,0,21.213l-14.142,14.142  l-21.213-21.213L139.328,118.116z"/>
<path style="fill:#8D663D;" d="M118.115,160.543c-5.858-5.858-5.858-15.355,0-21.213l7.071-7.071c5.858-5.858,15.355-5.858,21.213,0  c5.858,5.858,5.858,15.355,0,21.213l-7.071,7.071C133.47,166.401,123.973,166.401,118.115,160.543z"/>
<path style="fill:#B69362;" d="M397.423,80.286c-2.429,2.429-4.233,5.244-5.414,8.248c-4.139,10.524-10.026,20.274-18.022,28.27  l-1.312,1.312v21.213l41.192-27.05l17.851-31.993C422.246,70.817,406.893,70.816,397.423,80.286z"/>
<path style="fill:#8D663D;" d="M431.717,80.287l-59.043,59.043h21.213l1.312-1.312c7.997-7.997,17.746-13.883,28.27-18.022  c3.004-1.182,5.819-2.986,8.248-5.414C441.188,105.11,441.186,89.757,431.717,80.287z"/>
<path style="fill:#B69362;" d="M372.674,118.116c-5.858-5.858-15.355-5.858-21.213,0s-5.858,15.355,0,21.213l14.142,14.142  l21.213-21.213L372.674,118.116z"/>
<path style="fill:#8D663D;" d="M393.887,160.543c5.858-5.858,5.858-15.355,0-21.213l-7.071-7.071  c-5.858-5.858-15.355-5.858-21.213,0c-5.858,5.858-5.858,15.355,0,21.213l7.071,7.071  C378.532,166.401,388.029,166.401,393.887,160.543z"/>
<path style="fill:#B69362;" d="M80.285,397.424c2.429-2.429,5.244-4.233,8.248-5.414c10.524-4.139,20.274-10.026,28.27-18.022  l1.312-1.312h21.213l-27.05,41.192l-31.993,17.851C70.816,422.248,70.814,406.895,80.285,397.424z"/>
<path style="fill:#8D663D;" d="M80.285,431.718l59.043-59.043v21.213l-1.312,1.312c-7.997,7.997-13.883,17.746-18.022,28.27  c-1.182,3.004-2.986,5.819-5.414,8.248C105.109,441.189,89.756,441.188,80.285,431.718z"/>
<path style="fill:#B69362;" d="M118.115,372.675c-5.858-5.858-5.858-15.355,0-21.213s15.355-5.858,21.213,0l14.142,14.142  l-21.213,21.213L118.115,372.675z"/>
<path style="fill:#8D663D;" d="M160.541,393.889c-5.858,5.858-15.355,5.858-21.213,0l-7.071-7.071  c-5.858-5.858-5.858-15.355,0-21.213s15.355-5.858,21.213,0l7.071,7.071C166.399,378.533,166.399,388.031,160.541,393.889z"/>
<path style="fill:#B69362;" d="M256.001,105.002c-83.395,0-151,67.605-151,151s67.605,151,151,151s151-67.605,151-151  S339.396,105.002,256.001,105.002z M256.001,347.002c-50.178,0-91-40.822-91-91s40.822-91,91-91s91,40.822,91,91  S306.179,347.002,256.001,347.002z"/>
<path style="fill:#8D663D;" d="M256.001,394.502c-76.369,0-138.5-62.131-138.5-138.5s62.131-138.5,138.5-138.5  s138.5,62.131,138.5,138.5S332.37,394.502,256.001,394.502z M256.001,152.502c-57.07,0-103.5,46.43-103.5,103.5  s46.43,103.5,103.5,103.5s103.5-46.43,103.5-103.5S313.071,152.502,256.001,152.502z"/>
<path style="fill:#B69362;" d="M256.001,206.002c-27.57,0-50,22.43-50,50s22.43,50,50,50s50-22.43,50-50  S283.571,206.002,256.001,206.002z"/>
<path style="fill:#8D663D;" d="M256.001,221.502c-19.054,0-34.5,15.446-34.5,34.5s15.446,34.5,34.5,34.5s34.5-15.446,34.5-34.5  S275.055,221.502,256.001,221.502z M256.001,276.002c-11.046,0-20-8.954-20-20s8.954-20,20-20c11.046,0,20,8.954,20,20  S267.047,276.002,256.001,276.002z"/>
<path d="M479.378,223.379c-4.516,0-8.891,0.908-13.003,2.7c-8.205,3.573-16.346,5.69-24.27,6.316  c-3.451-8.631-11.899-14.744-21.747-14.744c-3.58,0-6.972,0.812-10.008,2.255c-3.988-17.059-10.745-33.063-19.76-47.521  c3.194-1.125,6.198-2.936,8.748-5.485c6.963-6.964,8.614-17.26,4.952-25.803c6.045-5.159,13.298-9.418,21.627-12.695  c4.178-1.644,7.915-4.095,11.104-7.286c12.719-12.719,12.718-33.415-0.001-46.135c-12.72-12.718-33.414-12.719-46.135-0.001  c-3.194,3.195-5.645,6.93-7.285,11.104c-3.273,8.324-7.531,15.575-12.687,21.619c-2.886-1.242-6.022-1.895-9.259-1.895  c-6.253,0-12.131,2.435-16.553,6.856c-2.506,2.506-4.372,5.481-5.52,8.726c-14.449-9.004-30.441-15.754-47.487-19.739  c1.443-3.037,2.255-6.429,2.255-10.009c0-9.848-6.113-18.295-14.744-21.747c0.626-7.923,2.743-16.063,6.316-24.269  c1.792-4.113,2.7-8.488,2.7-13.004c0-17.986-14.634-32.621-32.624-32.622c-17.987,0.001-32.622,14.635-32.622,32.622  c0,4.516,0.909,8.891,2.7,13.003c3.573,8.206,5.69,16.346,6.316,24.27c-8.631,3.452-14.744,11.899-14.744,21.747  c0,3.577,0.811,6.967,2.252,10.001c-1.97,0.458-3.934,0.944-5.884,1.479c-3.995,1.095-6.347,5.22-5.252,9.215  s5.22,6.346,9.215,5.252c12.324-3.376,25.115-5.088,38.019-5.088c79.126,0,143.5,64.374,143.5,143.5s-64.37,143.501-143.496,143.501  s-143.5-64.374-143.5-143.5c0-53.563,29.498-102.299,76.981-127.187c3.669-1.923,5.084-6.455,3.161-10.124  c-1.922-3.668-6.455-5.086-10.124-3.161c-3.464,1.815-6.835,3.753-10.122,5.792c-1.15-3.218-3.009-6.168-5.497-8.657  c-4.421-4.422-10.3-6.857-16.553-6.857c-3.236,0-6.374,0.653-9.26,1.895c-5.156-6.045-9.412-13.296-12.685-21.619  c-1.642-4.175-4.094-7.911-7.287-11.104c-12.719-12.716-33.414-12.715-46.134,0.002c-12.719,12.72-12.72,33.416-0.002,46.133  c3.191,3.192,6.927,5.644,11.105,7.288c8.33,3.276,15.583,7.537,21.628,12.695c-3.663,8.543-2.012,18.839,4.952,25.803  c2.523,2.523,5.49,4.322,8.646,5.45c-9.054,14.58-15.723,30.622-19.661,47.555c-3.036-1.443-6.427-2.255-10.007-2.255  c-9.848,0-18.296,6.113-21.747,14.744c-7.923-0.626-16.063-2.743-24.269-6.316c-4.113-1.792-8.488-2.7-13.004-2.7  c-17.985,0-32.62,14.634-32.621,32.623c0.001,17.987,14.636,32.622,32.623,32.622c4.514,0,8.888-0.908,13.003-2.699  c8.206-3.573,16.348-5.69,24.27-6.317c3.451,8.631,11.899,14.744,21.747,14.744c3.58,0,6.971-0.812,10.008-2.255  c3.989,17.061,10.747,33.065,19.763,47.525c-3.195,1.123-6.199,2.932-8.75,5.482c-6.963,6.964-8.613,17.26-4.951,25.803  c-6.047,5.16-13.3,9.419-21.628,12.695c-4.175,1.642-7.911,4.093-11.104,7.286c-12.718,12.719-12.717,33.415,0.002,46.136  c6.36,6.359,14.714,9.539,23.067,9.538c8.354,0,16.708-3.179,23.067-9.538c3.192-3.193,5.643-6.928,7.286-11.104  c3.275-8.329,7.535-15.582,12.693-21.627c8.545,3.664,18.842,2.012,25.803-4.951c2.506-2.506,4.373-5.481,5.521-8.726  c14.449,9.004,30.441,15.754,47.487,19.739c-1.443,3.037-2.255,6.429-2.255,10.009c0,9.848,6.113,18.295,14.744,21.747  c-0.626,7.923-2.743,16.063-6.316,24.269c-1.792,4.114-2.7,8.489-2.7,13.004c-0.003,17.984,14.632,32.618,32.62,32.618  s32.623-14.634,32.623-32.622c0-4.515-0.909-8.89-2.7-13.004c-3.573-8.206-5.69-16.345-6.316-24.269  c8.631-3.452,14.744-11.899,14.744-21.747c0-3.58-0.812-6.972-2.255-10.009c17.046-3.985,33.037-10.734,47.486-19.738  c1.148,3.245,3.014,6.22,5.52,8.726c6.964,6.963,17.26,8.614,25.803,4.951c5.159,6.045,9.419,13.298,12.694,21.625  c1.642,4.176,4.094,7.913,7.286,11.106c6.359,6.359,14.713,9.538,23.066,9.538c8.354,0,16.708-3.179,23.069-9.539  c12.718-12.72,12.719-33.416-0.001-46.137c-3.192-3.19-6.927-5.642-11.102-7.284h-0.001c-8.327-3.275-15.581-7.535-21.627-12.695  c3.662-8.543,2.012-18.839-4.952-25.804c-2.55-2.55-5.554-4.358-8.749-5.481c9.016-14.459,15.774-30.464,19.762-47.524  c3.036,1.443,6.428,2.255,10.008,2.255c9.848,0,18.296-6.113,21.747-14.744c7.921,0.627,16.063,2.744,24.271,6.318  c4.114,1.791,8.488,2.698,13.002,2.698c17.986,0,32.622-14.634,32.623-32.624C512,238.013,497.365,223.379,479.378,223.379z   M357.077,133.796c-2.525-2.524-2.525-6.632,0-9.158c1.223-1.223,2.848-1.896,4.578-1.896c1.729,0,3.355,0.673,4.578,1.897  c3.308,3.306,8.667,3.306,11.975,0l1.306-1.306c8.349-8.349,15.026-18.796,19.846-31.052c0.784-1.995,1.962-3.787,3.499-5.325  c6.117-6.117,16.07-6.116,22.187,0.001s6.118,16.069,0,22.187c-1.536,1.536-3.328,2.714-5.327,3.5  c-12.254,4.82-22.7,11.497-31.051,19.848l-1.306,1.307c-3.304,3.307-3.303,8.666,0.002,11.972c2.524,2.524,2.524,6.631,0.001,9.156  c-2.525,2.523-6.634,2.525-9.157,0l-1.362-1.361c-5.625-6.625-11.782-12.783-18.408-18.408L357.077,133.796z M241.059,98.118  c-3.57,0-6.475-2.904-6.475-6.475c0-3.57,2.905-6.475,6.475-6.475c4.676,0,8.467-3.791,8.467-8.467v-1.848  c0-11.807-2.666-23.915-7.922-35.989c-0.857-1.968-1.292-4.067-1.292-6.241c0-8.65,7.038-15.687,15.688-15.688  c8.652,0,15.69,7.038,15.69,15.688c0,2.174-0.435,4.273-1.292,6.242c-5.257,12.073-7.922,24.181-7.922,35.988v1.849  c0,4.676,3.791,8.467,8.467,8.467c3.57,0,6.475,2.905,6.475,6.475s-2.905,6.475-6.475,6.475h-1.051  c-4.579-0.399-9.21-0.616-13.891-0.616c-4.617,0-9.219,0.22-13.798,0.616L241.059,98.118L241.059,98.118z M133.796,154.926  c-2.524,2.523-6.633,2.525-9.157,0c-2.524-2.524-2.524-6.631,0-9.156c3.305-3.306,3.306-8.665,0.002-11.972l-1.308-1.31  c-8.348-8.348-18.795-15.024-31.049-19.845c-1.999-0.786-3.791-1.964-5.328-3.502c-6.117-6.116-6.116-16.068,0.001-22.185  c3.058-3.06,7.076-4.589,11.093-4.589c4.018,0,8.035,1.529,11.093,4.588c1.538,1.538,2.717,3.33,3.502,5.326  c4.817,12.253,11.494,22.7,19.846,31.053l1.307,1.306c3.306,3.306,8.667,3.305,11.972-0.003c1.223-1.223,2.848-1.896,4.578-1.896  s3.355,0.673,4.578,1.897c2.525,2.524,2.525,6.632,0,9.157l-0.461,0.461c-7.425,6.181-14.215,12.992-20.326,20.327L133.796,154.926z   M98.118,270.943c0,3.57-2.905,6.475-6.475,6.475c-3.57,0-6.475-2.905-6.475-6.475c0-4.676-3.791-8.467-8.467-8.467h-1.848  c-11.804,0-23.912,2.666-35.986,7.922c-1.969,0.857-4.069,1.292-6.243,1.292c-8.65,0-15.688-7.038-15.689-15.688  c0.001-8.652,7.039-15.69,15.689-15.69c2.174,0,4.273,0.435,6.242,1.292c12.073,5.257,24.181,7.922,35.987,7.922h1.848  c4.676,0,8.467-3.791,8.467-8.467c0-3.57,2.905-6.475,6.475-6.475c3.57,0,6.475,2.905,6.475,6.475v1.153  c-0.394,4.56-0.617,9.156-0.617,13.79c0,4.685,0.217,9.319,0.617,13.902V270.943z M154.926,378.209  c1.223,1.223,1.896,2.848,1.896,4.578s-0.673,3.355-1.897,4.578c-2.523,2.525-6.632,2.525-9.156,0  c-3.308-3.306-8.667-3.306-11.975,0l-1.307,1.307c-8.348,8.348-15.024,18.795-19.843,31.048c-0.786,1.998-1.964,3.791-3.502,5.328  c-6.116,6.116-16.068,6.117-22.186,0.001c-6.117-6.118-6.118-16.071-0.003-22.187c1.539-1.538,3.332-2.716,5.329-3.502  c12.253-4.818,22.699-11.495,31.05-19.845l1.306-1.306c3.306-3.307,3.306-8.667,0-11.974c-2.524-2.525-2.524-6.633-0.001-9.158  c1.263-1.263,2.921-1.893,4.58-1.893c1.658,0,3.316,0.63,4.578,1.892l1.356,1.356c5.626,6.627,11.785,12.787,18.412,18.413  L154.926,378.209z M270.943,413.886c3.57,0,6.475,2.905,6.475,6.475s-2.905,6.475-6.475,6.475c-4.676,0-8.467,3.791-8.467,8.467  v1.848c0,11.807,2.666,23.915,7.922,35.987c0.857,1.969,1.292,4.069,1.292,6.243c0,8.65-7.038,15.688-15.689,15.688  s-15.689-7.038-15.689-15.688c0-2.174,0.435-4.274,1.292-6.243c5.257-12.072,7.922-24.18,7.922-35.987v-1.849  c0-4.676-3.791-8.467-8.467-8.467c-3.57,0-6.475-2.905-6.475-6.475s2.905-6.475,6.475-6.475h1.045  c4.581,0.4,9.214,0.616,13.896,0.616s9.316-0.216,13.896-0.616h1.047V413.886z M378.206,357.078  c2.523-2.525,6.632-2.526,9.157-0.001c2.524,2.525,2.524,6.633,0,9.159c-3.306,3.306-3.306,8.667,0,11.974l1.306,1.306  c8.35,8.35,18.797,15.026,31.049,19.845c1.998,0.786,3.791,1.964,5.328,3.5c6.117,6.118,6.116,16.071,0,22.188  c-6.119,6.117-16.072,6.117-22.187,0c-1.538-1.537-2.716-3.33-3.501-5.328c-4.821-12.255-11.498-22.701-19.843-31.045l-1.306-1.308  c-1.588-1.589-3.741-2.482-5.988-2.482h-0.002c-2.245,0-4.399,0.892-5.987,2.48c-2.522,2.523-6.63,2.525-9.156,0  c-1.223-1.223-1.896-2.849-1.896-4.578s0.673-3.355,1.897-4.578l1.367-1.367c6.625-5.625,12.782-11.783,18.407-18.409  L378.206,357.078z M479.378,271.69c-2.174,0-4.274-0.435-6.242-1.291c-12.075-5.258-24.183-7.923-35.987-7.923h-1.848  c-4.676,0-8.467,3.791-8.467,8.467c0,3.57-2.905,6.475-6.475,6.475s-6.475-2.905-6.475-6.475v-1.04  c0.4-4.583,0.617-9.217,0.617-13.902s-0.217-9.319-0.617-13.902v-1.041c0-3.57,2.905-6.475,6.475-6.475s6.475,2.905,6.475,6.475  c0,4.676,3.791,8.467,8.467,8.467h1.848c11.806,0,23.914-2.666,35.988-7.922c1.968-0.857,4.067-1.292,6.241-1.292  c8.65,0,15.688,7.038,15.689,15.688C495.066,264.652,488.028,271.69,479.378,271.69z"/>
<circle cx="256.001" cy="135.002" r="7.5"/>
<circle cx="256.001" cy="377.002" r="7.5"/>
<circle cx="377.001" cy="256.002" r="7.5"/>
<circle cx="135.001" cy="256.002" r="7.5"/>
<circle cx="341.561" cy="341.562" r="7.5"/>
<circle cx="170.441" cy="170.442" r="7.5"/>
<circle cx="170.441" cy="341.562" r="7.5"/>
<circle cx="341.561" cy="170.442" r="7.5"/>
<path d="M157.501,256.002c0,54.313,44.187,98.5,98.5,98.5s98.5-44.187,98.5-98.5s-44.187-98.5-98.5-98.5  S157.501,201.689,157.501,256.002z M221.018,301.591c7.824,6.018,17.232,10.063,27.483,11.406v26.151  c-17.399-1.557-33.276-8.463-45.968-19.071L221.018,301.591z M263.501,312.997c10.251-1.342,19.659-5.388,27.483-11.406  l18.485,18.486c-12.692,10.608-28.57,17.514-45.968,19.071L263.501,312.997L263.501,312.997z M256.001,298.502  c-23.435,0-42.5-19.065-42.5-42.5s19.065-42.5,42.5-42.5s42.5,19.065,42.5,42.5S279.436,298.502,256.001,298.502z M290.984,210.413  c-7.824-6.018-17.232-10.063-27.483-11.406v-26.151c17.399,1.557,33.276,8.463,45.968,19.071L290.984,210.413z M248.501,199.007  c-10.251,1.342-19.659,5.388-27.483,11.406l-18.485-18.486c12.692-10.608,28.57-17.514,45.968-19.071V199.007z M210.412,221.019  c-6.018,7.824-10.063,17.231-11.406,27.483h-26.151c1.557-17.399,8.462-33.276,19.071-45.968L210.412,221.019z M172.855,263.502  h26.151c1.342,10.251,5.388,19.659,11.406,27.483l-18.486,18.485C181.317,296.778,174.412,280.901,172.855,263.502z M320.076,309.47  l-18.486-18.485c6.018-7.824,10.063-17.231,11.406-27.483h26.151C337.59,280.901,330.685,296.778,320.076,309.47z M339.147,248.502  h-26.151c-1.342-10.251-5.388-19.659-11.406-27.483l18.486-18.485C330.685,215.226,337.59,231.103,339.147,248.502z"/>
<circle cx="256.001" cy="256.002" r="7.5"/>
<g>
</g>
<g>
</g>
<g>
</g>
<g>
</g>
<g>
</g>
<g>
</g>
<g>
</g>
<g>
</g>
<g>
</g>
<g>
</g>
<g>
</g>
<g>
</g>
<g>
</g>
<g>
</g>
<g>
</g>
</svg>
