<?xml version="1.0" encoding="iso-8859-1"?>
<!-- Generator: Adobe Illustrator 19.0.0, SVG Export Plug-In . SVG Version: 6.00 Build 0)  -->
<svg xmlns="http://www.w3.org/2000/svg" xmlns:xlink="http://www.w3.org/1999/xlink" version="1.1" id="Capa_1" x="0px" y="0px" viewBox="0 0 512 512" style="enable-background:new 0 0 512 512;" xml:space="preserve">
<path style="fill:#AB5034;" d="M256,470c-57.429,0-111.42-22.364-152.028-62.972S41,312.429,41,255s22.364-111.42,62.972-152.028  S198.571,40,256,40s111.42,22.364,152.028,62.972C448.636,143.58,471,197.571,471,255s-22.364,111.42-62.972,152.028  C367.42,447.636,313.429,470,256,470z M256,155c-55.14,0-100,44.86-100,100s44.86,100,100,100s100-44.86,100-100S311.14,155,256,155  z"/>
<g style="opacity:0.5;">
	<path style="opacity:0.8;fill:#6F3D28;enable-background:new    ;" d="M256,155c21.198,0,40.874,6.636,57.068,17.932   C294.982,147.002,264.942,130,231,130c-55.14,0-100,44.86-100,100c0,33.941,17.002,63.982,42.932,82.068   C162.636,295.874,156,276.199,156,255C156,199.86,200.86,155,256,155z"/>
	<path style="opacity:0.8;fill:#6F3D28;enable-background:new    ;" d="M408.028,102.972c-4.196-4.196-8.542-8.185-13.013-11.987   C428.007,129.782,446,178.505,446,230c0,57.429-22.364,111.42-62.972,152.028C342.42,422.636,288.429,445,231,445   c-51.495,0-100.218-17.993-139.015-50.985c3.802,4.471,7.791,8.817,11.987,13.013C144.58,447.636,198.571,470,256,470   s111.42-22.364,152.028-62.972C448.636,366.42,471,312.429,471,255S448.636,143.58,408.028,102.972z"/>
</g>
<path style="opacity:0.4;fill:#F8E5B5;enable-background:new    ;" d="M81,270c-8.284,0-15-6.716-15-15  c0-50.75,19.764-98.464,55.649-134.351C157.536,84.764,205.25,65,256,65c8.284,0,15,6.716,15,15s-6.716,15-15,15  c-42.737,0-82.917,16.643-113.138,46.862C112.643,172.083,96,212.263,96,255C96,263.284,89.284,270,81,270z"/>
<path style="fill:#C9AD80;" d="M222.02,177.098C232.769,172.388,244.2,170,256,170c11.8,0,23.231,2.388,33.98,7.098  c9.911,4.343,21.02-2.918,21.02-13.739v-58.655L256,65l-55,39.704v58.655C201,174.18,212.108,181.44,222.02,177.098z"/>
<path style="fill:#E6D8B3;" d="M311,104.704V25.138c0-7.239-5.17-13.445-12.29-14.752C284.673,7.808,270.304,6.5,256,6.5  s-28.673,1.308-42.71,3.886C206.17,11.693,201,17.899,201,25.138v79.566C218.15,98.426,236.675,95,256,95S293.85,98.426,311,104.704  z"/>
<path style="fill:#C9AD80;" d="M178.098,288.98C173.388,278.231,171,266.8,171,255s2.388-23.231,7.098-33.98l0,0  c4.343-9.911-2.918-21.02-13.739-21.02h-58.655L66,255l39.704,55h58.655C175.18,310,182.44,298.892,178.098,288.98z"/>
<g>
	<path style="fill:#E6D8B3;" d="M105.704,200H26.138c-7.239,0-13.445,5.17-14.752,12.29C8.808,226.327,7.5,240.696,7.5,255   c0,14.304,1.308,28.673,3.886,42.71c1.307,7.12,7.513,12.29,14.752,12.29h79.566C99.426,292.85,96,274.325,96,255   S99.426,217.15,105.704,200z"/>
	<path style="fill:#E6D8B3;" d="M406.296,200h-58.655c-10.821,0-18.082,11.108-13.739,21.02l0,0C338.612,231.769,341,243.2,341,255   c0,11.8-2.388,23.231-7.098,33.98c-4.343,9.911,2.918,21.02,13.739,21.02h58.655L456,255L406.296,200z"/>
</g>
<path style="fill:#C9AD80;" d="M500.614,212.29c-1.307-7.12-7.513-12.29-14.752-12.29h-79.566c6.278,17.15,9.704,35.675,9.704,55  s-3.426,37.85-9.704,55h79.566c7.239,0,13.445-5.17,14.752-12.29c2.578-14.036,3.886-28.406,3.886-42.71  S503.192,226.326,500.614,212.29z"/>
<path style="fill:#E6D8B3;" d="M289.98,332.902C279.231,337.612,267.8,340,256,340s-23.231-2.388-33.98-7.098  c-9.911-4.343-21.02,2.918-21.02,13.739v58.655L256,445l55-39.704v-58.655C311,335.82,299.892,328.56,289.98,332.902z"/>
<path style="fill:#C9AD80;" d="M201,405.296v79.566c0,7.239,5.17,13.445,12.29,14.752c14.036,2.578,28.406,3.886,42.71,3.886  c14.304,0,28.674-1.308,42.71-3.886c7.12-1.308,12.29-7.514,12.29-14.752v-79.566c-17.15,6.278-35.675,9.704-55,9.704  S218.15,411.574,201,405.296z"/>
<g>
	<path style="fill:#B69362;" d="M201,462.924v21.938c0,7.239,5.17,13.445,12.29,14.752c14.036,2.578,28.406,3.886,42.71,3.886   c14.304,0,28.674-1.308,42.71-3.886c7.12-1.308,12.29-7.514,12.29-14.752v-21.938c-17.732,4.659-36.179,7.076-55,7.076   S218.732,467.583,201,462.924z"/>
	<path style="fill:#B69362;" d="M500.614,212.29c-1.307-7.12-7.513-12.29-14.752-12.29h-21.938c4.659,17.732,7.076,36.179,7.076,55   s-2.417,37.268-7.076,55h21.938c7.239,0,13.445-5.17,14.752-12.29c2.578-14.036,3.886-28.406,3.886-42.71   S503.192,226.326,500.614,212.29z"/>
</g>
<path style="fill:#C9AD80;" d="M311,47.076V25.138c0-7.239-5.17-13.445-12.29-14.752C284.673,7.808,270.304,6.5,256,6.5  s-28.673,1.308-42.71,3.886C206.17,11.693,201,17.899,201,25.138v21.938C218.732,42.417,237.179,40,256,40  S293.268,42.417,311,47.076z"/>
<path style="opacity:0.6;fill:#E6D8B3;enable-background:new    ;" d="M238.29,10.386c9.95-1.828,20.068-3.003,30.21-3.541  C264.334,6.624,260.165,6.5,256,6.5c-14.304,0-28.673,1.308-42.71,3.886C206.17,11.693,201,17.899,201,25.138v21.938  c8.19-2.152,16.539-3.802,25-4.98V25.138C226,17.899,231.17,11.693,238.29,10.386z"/>
<path style="fill:#C9AD80;" d="M48.076,200H26.138c-7.239,0-13.445,5.17-14.752,12.29C8.808,226.327,7.5,240.696,7.5,255  c0,14.304,1.308,28.673,3.886,42.71c1.307,7.12,7.513,12.29,14.752,12.29h21.938C43.417,292.268,41,273.821,41,255  S43.417,217.732,48.076,200z"/>
<path style="opacity:0.6;fill:#E6D8B3;enable-background:new    ;" d="M26.138,225h16.958c1.178-8.461,2.829-16.81,4.981-25H26.138  c-7.239,0-13.445,5.17-14.752,12.29C8.808,226.327,7.5,240.696,7.5,255c0,4.165,0.124,8.334,0.345,12.5  c0.537-10.142,1.713-20.26,3.541-30.21C12.693,230.17,18.899,225,26.138,225z"/>
<path d="M507.991,211.925c-1.483-8.075-7.164-14.468-14.539-17.113c0.03-0.271,0.047-0.545,0.047-0.823  c0-96.775-78.729-175.506-175.5-175.506c-0.279,0-0.552,0.018-0.823,0.047c-2.644-7.375-9.038-13.056-17.112-14.539  c-28.969-5.321-59.16-5.321-88.129,0c-8.074,1.483-14.468,7.164-17.112,14.539c-0.271-0.03-0.545-0.047-0.823-0.047  c-96.771,0-175.5,78.731-175.5,175.506c0,0.278,0.018,0.553,0.047,0.823c-7.374,2.645-13.056,9.038-14.539,17.113  C1.349,226.41,0,241.235,0,255.991c0,14.755,1.349,29.581,4.009,44.066c1.483,8.075,7.164,14.468,14.539,17.113  c-0.03,0.271-0.047,0.545-0.047,0.823c0,96.775,78.729,175.506,175.5,175.506c0.279,0,0.552-0.018,0.823-0.047  c2.644,7.375,9.038,13.056,17.112,14.539C226.419,510.651,241.244,512,256,512c14.756,0,29.581-1.349,44.064-4.009  c8.074-1.483,14.468-7.164,17.112-14.539c0.271,0.03,0.545,0.047,0.823,0.047c96.771,0,175.5-78.731,175.5-175.506  c0-0.278-0.018-0.553-0.047-0.823c7.374-2.645,13.056-9.038,14.539-17.113c2.66-14.484,4.009-29.31,4.009-44.066  C512,241.234,510.651,226.409,507.991,211.925z M478.494,193.488h-8.874c-10.379-35.615-29.756-68.302-56.288-94.835  c-26.533-26.533-59.219-45.91-94.832-56.29v-8.874C406.603,33.76,478.223,105.382,478.494,193.488z M301.707,325.92  c-0.156-0.041-0.311-0.086-0.469-0.124c-0.612-0.147-1.229-0.276-1.852-0.373c-0.031-0.005-0.062-0.007-0.092-0.011  c-0.587-0.089-1.179-0.149-1.773-0.192c-0.174-0.012-0.348-0.019-0.522-0.027c-0.479-0.023-0.958-0.03-1.439-0.022  c-0.169,0.002-0.337,0.002-0.506,0.008c-0.635,0.024-1.271,0.068-1.907,0.148c-0.009,0.001-0.017,0.003-0.026,0.004  c-0.618,0.078-1.235,0.19-1.851,0.321c-0.179,0.038-0.356,0.083-0.535,0.125c-0.467,0.111-0.932,0.239-1.395,0.382  c-0.179,0.055-0.357,0.107-0.535,0.168c-0.617,0.208-1.23,0.435-1.835,0.7c-9.794,4.291-20.214,6.467-30.971,6.467  s-21.177-2.176-30.971-6.467c-0.626-0.274-1.26-0.512-1.898-0.725c-0.065-0.021-0.129-0.046-0.194-0.067  c-0.603-0.195-1.211-0.358-1.822-0.5c-0.1-0.023-0.199-0.048-0.299-0.07c-0.592-0.128-1.185-0.23-1.78-0.309  c-0.117-0.016-0.235-0.031-0.352-0.045c-0.587-0.068-1.174-0.114-1.76-0.136c-0.12-0.005-0.24-0.007-0.361-0.009  c-0.161-0.003-0.322-0.012-0.483-0.012c-0.228,0-0.455,0.023-0.683,0.03c-0.346,0.011-0.692,0.02-1.036,0.046  c-0.333,0.025-0.663,0.067-0.994,0.107c-0.343,0.042-0.686,0.081-1.026,0.138c-0.329,0.055-0.653,0.127-0.979,0.197  c-0.337,0.072-0.674,0.14-1.007,0.227c-0.323,0.084-0.64,0.187-0.959,0.285c-0.327,0.101-0.655,0.196-0.978,0.312  c-0.318,0.114-0.628,0.248-0.94,0.375c-0.313,0.128-0.629,0.25-0.937,0.392c-0.311,0.144-0.611,0.308-0.915,0.465  c-0.297,0.154-0.598,0.299-0.889,0.467c-0.303,0.174-0.593,0.37-0.887,0.558c-0.278,0.177-0.561,0.345-0.832,0.535  c-0.292,0.205-0.569,0.432-0.851,0.651c-0.257,0.2-0.522,0.388-0.771,0.599c-0.011,0.01-0.024,0.018-0.035,0.027  c-0.125-0.092-0.251-0.183-0.375-0.276c-0.707-0.526-1.406-1.061-2.098-1.607c-0.141-0.112-0.286-0.22-0.427-0.332  c-0.82-0.654-1.627-1.325-2.424-2.007c-0.214-0.183-0.424-0.37-0.635-0.554c-0.608-0.53-1.21-1.067-1.805-1.613  c-0.227-0.208-0.454-0.415-0.678-0.624c-0.762-0.713-1.517-1.435-2.255-2.172c-0.016-0.016-0.032-0.032-0.048-0.048  c-0.737-0.737-1.457-1.49-2.168-2.251c-0.215-0.229-0.427-0.462-0.639-0.694c-0.538-0.586-1.068-1.18-1.59-1.78  c-0.192-0.22-0.385-0.438-0.575-0.66c-0.677-0.793-1.344-1.595-1.994-2.409c-0.12-0.15-0.234-0.303-0.353-0.454  c-0.54-0.685-1.07-1.377-1.59-2.076c-0.093-0.125-0.184-0.251-0.276-0.376c0.016-0.019,0.029-0.038,0.045-0.056  c0.061-0.072,0.115-0.148,0.174-0.22c0.342-0.415,0.667-0.841,0.977-1.277c0.11-0.154,0.215-0.311,0.32-0.467  c0.262-0.39,0.511-0.787,0.749-1.191c0.085-0.146,0.174-0.289,0.256-0.436c0.303-0.544,0.587-1.097,0.844-1.663  c0.031-0.069,0.057-0.141,0.088-0.211c0.221-0.5,0.423-1.008,0.607-1.522c0.064-0.177,0.122-0.355,0.181-0.534  c0.146-0.439,0.277-0.882,0.396-1.329c0.045-0.169,0.093-0.337,0.134-0.507c0.145-0.604,0.272-1.211,0.368-1.826  c0.009-0.057,0.012-0.114,0.021-0.17c0.083-0.56,0.142-1.123,0.183-1.688c0.014-0.189,0.021-0.378,0.03-0.567  c0.022-0.461,0.029-0.922,0.022-1.385c-0.003-0.183-0.002-0.365-0.009-0.548c-0.025-0.627-0.068-1.255-0.146-1.883  c-0.004-0.032-0.011-0.063-0.015-0.095c-0.077-0.595-0.183-1.189-0.309-1.781c-0.04-0.187-0.086-0.373-0.131-0.559  c-0.11-0.458-0.235-0.916-0.376-1.37c-0.057-0.184-0.11-0.368-0.172-0.55c-0.207-0.615-0.434-1.227-0.698-1.831  c-4.291-9.794-6.467-20.215-6.467-30.972s2.176-21.178,6.468-30.972c0.264-0.604,0.49-1.215,0.698-1.83  c0.062-0.185,0.117-0.37,0.174-0.556c0.139-0.452,0.264-0.906,0.373-1.361c0.045-0.189,0.093-0.378,0.134-0.568  c0.124-0.586,0.229-1.173,0.305-1.762c0.005-0.038,0.013-0.076,0.018-0.114c0.078-0.625,0.121-1.25,0.145-1.874  c0.008-0.188,0.007-0.376,0.01-0.565c0.006-0.455,0-0.91-0.021-1.363c-0.009-0.196-0.017-0.391-0.031-0.586  c-0.04-0.551-0.098-1.1-0.178-1.646c-0.01-0.07-0.015-0.141-0.026-0.211c-0.095-0.609-0.221-1.211-0.364-1.809  c-0.044-0.181-0.095-0.36-0.143-0.54c-0.116-0.434-0.243-0.864-0.384-1.29c-0.062-0.189-0.124-0.377-0.191-0.564  c-0.178-0.496-0.373-0.984-0.585-1.467c-0.038-0.087-0.07-0.176-0.11-0.263c-0.254-0.559-0.535-1.105-0.834-1.642  c-0.088-0.159-0.185-0.314-0.277-0.471c-0.229-0.39-0.47-0.773-0.723-1.15c-0.112-0.167-0.224-0.333-0.341-0.497  c-0.299-0.42-0.613-0.831-0.942-1.231c-0.071-0.085-0.135-0.176-0.207-0.261c-0.013-0.015-0.025-0.032-0.038-0.048  c0.092-0.125,0.184-0.251,0.276-0.376c0.52-0.699,1.05-1.391,1.59-2.076c0.119-0.15,0.233-0.304,0.353-0.454  c0.65-0.814,1.317-1.617,1.994-2.409c0.19-0.222,0.383-0.44,0.575-0.66c0.522-0.6,1.052-1.193,1.59-1.78  c0.212-0.232,0.424-0.464,0.639-0.694c0.711-0.761,1.431-1.514,2.168-2.251c0.016-0.016,0.032-0.032,0.048-0.048  c0.738-0.738,1.493-1.46,2.255-2.172c0.224-0.209,0.451-0.417,0.678-0.624c0.595-0.545,1.197-1.083,1.805-1.613  c0.212-0.184,0.422-0.371,0.635-0.554c0.798-0.682,1.605-1.353,2.424-2.007c0.141-0.112,0.285-0.22,0.427-0.332  c0.692-0.546,1.391-1.081,2.098-1.607c0.125-0.093,0.25-0.184,0.375-0.276c0.019,0.016,0.039,0.03,0.058,0.046  c0.069,0.058,0.141,0.11,0.211,0.167c0.418,0.345,0.848,0.672,1.288,0.985c0.152,0.108,0.306,0.212,0.461,0.316  c0.393,0.265,0.792,0.515,1.2,0.754c0.144,0.084,0.284,0.171,0.429,0.252c0.544,0.303,1.098,0.588,1.665,0.845  c0.07,0.032,0.142,0.057,0.211,0.088c0.5,0.221,1.007,0.422,1.521,0.606c0.179,0.064,0.359,0.123,0.539,0.183  c0.435,0.144,0.874,0.274,1.318,0.392c0.173,0.046,0.345,0.096,0.52,0.138c0.6,0.145,1.204,0.271,1.815,0.366  c0.071,0.011,0.143,0.016,0.214,0.026c0.543,0.079,1.09,0.137,1.639,0.177c0.199,0.014,0.398,0.022,0.597,0.031  c0.447,0.021,0.896,0.027,1.345,0.021c0.194-0.002,0.388-0.002,0.582-0.01c0.62-0.025,1.24-0.067,1.859-0.145  c0.058-0.007,0.115-0.02,0.173-0.027c0.568-0.075,1.135-0.175,1.701-0.295c0.198-0.042,0.394-0.091,0.591-0.139  c0.448-0.107,0.894-0.23,1.338-0.367c0.19-0.059,0.381-0.114,0.57-0.178c0.613-0.207,1.222-0.433,1.824-0.696  c9.794-4.291,20.214-6.467,30.971-6.467c10.757,0,21.177,2.176,30.971,6.467c0.452,0.198,0.908,0.374,1.367,0.54  c0.128,0.046,0.256,0.09,0.384,0.134c0.366,0.125,0.733,0.24,1.102,0.345c0.105,0.03,0.21,0.063,0.316,0.091  c0.46,0.124,0.923,0.232,1.387,0.326c0.102,0.02,0.203,0.036,0.305,0.055c0.373,0.069,0.747,0.129,1.121,0.179  c0.138,0.019,0.276,0.037,0.414,0.053c0.419,0.048,0.839,0.086,1.259,0.11c0.051,0.003,0.103,0.009,0.154,0.012  c0.38,0.019,0.76,0.029,1.14,0.029c0.063,0,0.125-0.006,0.188-0.006c0.267-0.002,0.532-0.015,0.798-0.027  c0.247-0.011,0.494-0.02,0.74-0.039c0.266-0.021,0.531-0.051,0.796-0.081c0.244-0.027,0.487-0.054,0.729-0.089  c0.264-0.038,0.525-0.085,0.787-0.133c0.241-0.044,0.482-0.088,0.722-0.139c0.259-0.056,0.516-0.119,0.773-0.184  c0.238-0.06,0.476-0.121,0.712-0.188c0.253-0.072,0.504-0.151,0.755-0.233c0.236-0.076,0.471-0.155,0.705-0.239  c0.245-0.088,0.487-0.182,0.729-0.279c0.234-0.093,0.466-0.189,0.697-0.29c0.235-0.103,0.468-0.211,0.7-0.322  c0.231-0.111,0.46-0.225,0.687-0.343c0.224-0.117,0.446-0.238,0.667-0.362c0.227-0.128,0.452-0.261,0.675-0.397  c0.213-0.13,0.423-0.262,0.632-0.399c0.223-0.146,0.443-0.298,0.661-0.453c0.199-0.141,0.397-0.284,0.592-0.432  c0.218-0.166,0.431-0.336,0.644-0.51c0.11-0.09,0.225-0.172,0.333-0.264c0.127,0.094,0.255,0.186,0.381,0.28  c0.697,0.519,1.387,1.047,2.07,1.585c0.151,0.119,0.304,0.234,0.454,0.354c0.816,0.651,1.619,1.319,2.413,1.998  c0.219,0.187,0.433,0.377,0.65,0.566c0.604,0.525,1.201,1.059,1.791,1.6c0.23,0.21,0.46,0.42,0.688,0.633  c0.761,0.712,1.515,1.433,2.252,2.169c0.016,0.017,0.032,0.033,0.049,0.049c0.737,0.737,1.457,1.491,2.169,2.252  c0.213,0.228,0.422,0.458,0.633,0.688c0.541,0.59,1.074,1.187,1.6,1.791c0.189,0.217,0.379,0.432,0.566,0.65  c0.679,0.794,1.346,1.597,1.998,2.413c0.12,0.15,0.235,0.303,0.354,0.454c0.538,0.683,1.067,1.373,1.585,2.07  c0.094,0.126,0.187,0.254,0.28,0.381c-0.014,0.017-0.027,0.035-0.041,0.051c-0.065,0.077-0.123,0.158-0.187,0.235  c-0.337,0.409-0.657,0.829-0.963,1.259c-0.113,0.159-0.221,0.32-0.33,0.482c-0.258,0.383-0.502,0.773-0.736,1.17  c-0.089,0.152-0.182,0.301-0.267,0.454c-0.301,0.541-0.584,1.09-0.839,1.652c-0.035,0.077-0.063,0.156-0.097,0.232  c-0.218,0.493-0.416,0.993-0.598,1.5c-0.065,0.182-0.125,0.365-0.186,0.548c-0.143,0.432-0.272,0.869-0.39,1.309  c-0.046,0.175-0.096,0.349-0.139,0.525c-0.145,0.601-0.271,1.206-0.366,1.817c-0.01,0.063-0.014,0.125-0.023,0.188  c-0.082,0.554-0.14,1.11-0.18,1.67c-0.014,0.192-0.021,0.384-0.031,0.577c-0.021,0.458-0.028,0.916-0.022,1.375  c0.003,0.186,0.002,0.37,0.009,0.555c0.025,0.626,0.068,1.252,0.146,1.878c0.004,0.036,0.012,0.072,0.017,0.108  c0.076,0.591,0.182,1.18,0.307,1.768c0.04,0.188,0.087,0.376,0.132,0.564c0.109,0.457,0.234,0.912,0.374,1.365  c0.057,0.185,0.111,0.37,0.173,0.554c0.208,0.615,0.434,1.226,0.698,1.83c4.291,9.794,6.467,20.215,6.467,30.972  c0,10.757-2.176,21.178-6.468,30.972c-0.264,0.604-0.49,1.215-0.698,1.83c-0.062,0.185-0.117,0.37-0.174,0.556  c-0.139,0.452-0.264,0.906-0.373,1.361c-0.045,0.189-0.093,0.378-0.134,0.568c-0.124,0.586-0.229,1.173-0.305,1.762  c-0.005,0.038-0.013,0.076-0.018,0.114c-0.078,0.625-0.121,1.25-0.145,1.874c-0.008,0.189-0.007,0.376-0.01,0.564  c-0.006,0.456,0,0.91,0.021,1.363c0.009,0.196,0.017,0.391,0.031,0.586c0.04,0.551,0.098,1.1,0.178,1.646  c0.01,0.07,0.015,0.141,0.026,0.211c0.095,0.609,0.221,1.211,0.364,1.809c0.044,0.181,0.095,0.36,0.143,0.54  c0.116,0.434,0.243,0.864,0.384,1.29c0.062,0.189,0.124,0.377,0.191,0.564c0.178,0.496,0.373,0.984,0.585,1.467  c0.038,0.087,0.07,0.176,0.11,0.263c0.254,0.559,0.535,1.105,0.834,1.642c0.088,0.159,0.185,0.314,0.277,0.471  c0.229,0.39,0.47,0.773,0.723,1.15c0.112,0.167,0.224,0.333,0.341,0.497c0.299,0.421,0.614,0.832,0.943,1.233  c0.07,0.085,0.134,0.174,0.205,0.259c0.013,0.016,0.025,0.032,0.038,0.048c-0.092,0.125-0.184,0.251-0.276,0.376  c-0.52,0.699-1.05,1.391-1.59,2.076c-0.119,0.15-0.233,0.304-0.353,0.454c-0.65,0.814-1.317,1.617-1.994,2.409  c-0.19,0.222-0.383,0.44-0.575,0.66c-0.522,0.6-1.052,1.193-1.59,1.78c-0.212,0.232-0.424,0.464-0.639,0.694  c-0.711,0.761-1.431,1.514-2.168,2.251c-0.016,0.016-0.032,0.032-0.048,0.048c-0.738,0.738-1.493,1.46-2.255,2.172  c-0.224,0.209-0.451,0.417-0.678,0.624c-0.595,0.545-1.197,1.083-1.805,1.613c-0.212,0.184-0.422,0.371-0.635,0.554  c-0.798,0.682-1.605,1.353-2.424,2.007c-0.141,0.112-0.285,0.22-0.427,0.332c-0.692,0.546-1.391,1.081-2.098,1.607  c-0.125,0.093-0.25,0.184-0.375,0.276c-0.018-0.016-0.038-0.029-0.056-0.044c-0.072-0.061-0.147-0.115-0.219-0.174  c-0.416-0.343-0.843-0.668-1.28-0.979c-0.153-0.108-0.307-0.212-0.462-0.316c-0.393-0.265-0.794-0.517-1.202-0.755  c-0.141-0.083-0.281-0.169-0.424-0.25c-0.547-0.305-1.104-0.591-1.673-0.85c-0.056-0.025-0.114-0.046-0.17-0.071  c-0.515-0.229-1.039-0.436-1.569-0.625c-0.167-0.06-0.336-0.115-0.505-0.171C302.626,326.178,302.169,326.042,301.707,325.92z   M164.359,318.493c1.354,0,2.682-0.119,3.982-0.349c6.997,9.827,15.68,18.51,25.509,25.509c-0.23,1.3-0.35,2.629-0.35,3.982v106.288  c-31.563-9.943-60.524-27.5-84.225-51.202c-23.7-23.701-41.256-52.663-51.2-84.228H164.359z M318.151,343.653  c9.828-6.999,18.511-15.682,25.509-25.509c1.3,0.23,2.628,0.35,3.981,0.35h106.284c-9.943,31.564-27.499,60.526-51.2,84.228  c-23.701,23.703-52.662,41.259-84.225,51.202V347.635C318.5,346.281,318.381,344.952,318.151,343.653z M347.641,193.488  c-1.354,0-2.682,0.12-3.982,0.35c-6.998-9.828-15.681-18.51-25.508-25.509c0.23-1.3,0.35-2.628,0.35-3.982V58.059  c31.563,9.943,60.524,27.5,84.225,51.202c23.702,23.702,41.257,52.664,51.2,84.228L347.641,193.488L347.641,193.488z M208.5,26.121  c0-3.62,2.584-6.723,6.145-7.376c27.186-4.994,55.525-4.994,82.711,0c3.561,0.653,6.145,3.756,6.145,7.376v138.226  c0,1.256-0.29,2.438-0.864,3.515c-1.608,3.021-5.654,5.101-9.646,3.355c-11.703-5.128-24.148-7.729-36.99-7.729  s-25.287,2.601-36.99,7.729c-3.992,1.745-8.037-0.334-9.646-3.355l-0.004-0.008c-0.57-1.073-0.86-2.253-0.86-3.507V26.121H208.5z   M193.5,33.489v130.858c0,1.354,0.119,2.682,0.349,3.982c-9.828,6.999-18.511,15.682-25.509,25.509c-1.3-0.23-2.628-0.35-3.981-0.35  H58.075c9.944-31.565,27.5-60.527,51.199-84.228c17.524-17.524,37.666-31.599,59.867-41.836c3.761-1.734,5.404-6.19,3.67-9.952  c-1.732-3.76-6.186-5.403-9.951-3.67c-23.814,10.98-45.411,26.069-64.192,44.849c-26.531,26.533-45.908,59.221-56.288,94.835h-8.874  C33.777,105.382,105.397,33.76,193.5,33.489z M18.763,214.634c0.653-3.561,3.756-6.145,7.376-6.145h21.912  c0.01,0,0.021,0.002,0.031,0.002c0.008,0,0.016-0.002,0.023-0.002H164.36c1.256,0,2.438,0.29,3.515,0.864  c3.021,1.608,5.102,5.656,3.354,9.646c-5.128,11.704-7.729,24.149-7.729,36.992c0,12.842,2.601,25.288,7.728,36.992  c1.748,3.989-0.332,8.037-3.354,9.646l-0.008,0.004c-1.073,0.57-2.253,0.86-3.507,0.86H26.139c-3.62,0-6.723-2.584-7.376-6.145  C16.266,283.754,15,269.84,15,255.991S16.266,228.227,18.763,214.634z M33.506,318.493h8.874  c10.38,35.615,29.757,68.302,56.288,94.835c26.533,26.533,59.219,45.91,94.832,56.29v8.874  C105.397,478.221,33.777,406.6,33.506,318.493z M303.5,485.86c0,3.62-2.584,6.723-6.145,7.376c-27.184,4.994-55.527,4.994-82.711,0  c-3.561-0.653-6.145-3.756-6.145-7.376V347.635c0-1.256,0.29-2.438,0.864-3.515c0.134-0.251,0.29-0.492,0.456-0.729  c0.042-0.06,0.085-0.119,0.129-0.178c0.169-0.226,0.348-0.447,0.544-0.655c0.005-0.006,0.01-0.012,0.016-0.018  c0.2-0.211,0.419-0.408,0.645-0.598c0.06-0.05,0.12-0.099,0.181-0.147c0.221-0.175,0.451-0.342,0.692-0.494  c0.014-0.009,0.027-0.02,0.042-0.028c0.252-0.156,0.517-0.293,0.787-0.42c0.074-0.035,0.149-0.068,0.225-0.101  c0.258-0.111,0.521-0.212,0.792-0.295c0.024-0.008,0.048-0.018,0.072-0.025c0.289-0.085,0.586-0.147,0.887-0.197  c0.085-0.014,0.17-0.026,0.256-0.037c0.282-0.037,0.569-0.061,0.859-0.064c0.032,0,0.063-0.004,0.094-0.004  c0.053,0,0.107,0.007,0.161,0.008c0.189,0.005,0.379,0.011,0.571,0.031c0.057,0.006,0.115,0.02,0.172,0.027  c0.189,0.024,0.378,0.05,0.569,0.09c0.072,0.015,0.144,0.04,0.215,0.057c0.177,0.042,0.354,0.084,0.531,0.141  c0.25,0.08,0.5,0.174,0.75,0.283c11.703,5.128,24.148,7.729,36.99,7.729s25.287-2.601,36.99-7.729  c3.99-1.746,8.036,0.333,9.646,3.355l0.004,0.008c0.57,1.073,0.86,2.253,0.86,3.507V485.86H303.5z M318.5,478.492v-8.874  c35.613-10.38,68.299-29.757,94.832-56.29c26.532-26.534,45.909-59.221,56.288-94.835h8.874  C478.223,406.6,406.603,478.221,318.5,478.492z M493.237,297.348c-0.653,3.561-3.756,6.145-7.376,6.145h-138.22  c-1.256,0-2.438-0.29-3.515-0.864c-3.021-1.608-5.102-5.656-3.354-9.646c5.128-11.704,7.729-24.149,7.729-36.992  c0-12.842-2.601-25.288-7.728-36.992c-0.219-0.499-0.377-0.998-0.482-1.494c-0.679-3.221,0.93-6.275,3.282-7.824  c0.18-0.119,0.365-0.229,0.553-0.329l0.008-0.004c1.073-0.57,2.253-0.86,3.507-0.86h116.255c0,0,0.016,0.002,0.023,0.002  c0.01,0,0.021-0.002,0.031-0.002h21.912c3.62,0,6.723,2.584,7.376,6.145c2.497,13.592,3.763,27.507,3.763,41.357  C497,269.841,495.734,283.755,493.237,297.348z"/>
<path d="M469.392,228.521c-4.124,0.378-7.162,4.028-6.784,8.154c0.592,6.465,0.893,12.964,0.893,19.316s-0.301,12.851-0.893,19.316  c-0.378,4.125,2.66,7.776,6.784,8.154c0.233,0.021,0.464,0.032,0.693,0.032c3.833,0,7.104-2.925,7.46-6.817  c0.634-6.919,0.955-13.878,0.955-20.685s-0.321-13.766-0.955-20.685C477.167,231.18,473.526,228.135,469.392,228.521z"/>
<path d="M275.315,462.606c-6.465,0.592-12.964,0.893-19.315,0.893s-12.851-0.301-19.315-0.893c-4.143-0.394-7.775,2.659-8.153,6.784  s2.66,7.776,6.784,8.154c6.919,0.634,13.878,0.955,20.685,0.955s13.766-0.321,20.685-0.955c4.124-0.378,7.162-4.028,6.784-8.154  C283.091,465.265,279.443,462.212,275.315,462.606z"/>
<path d="M41.915,283.493c0.229,0,0.46-0.011,0.693-0.032c4.124-0.378,7.162-4.028,6.784-8.154  c-0.592-6.465-0.893-12.964-0.893-19.316s0.301-12.851,0.893-19.316c0.378-4.125-2.66-7.776-6.784-8.154  c-4.133-0.387-7.775,2.659-8.153,6.784c-0.634,6.919-0.955,13.878-0.955,20.685s0.321,13.766,0.955,20.685  C34.812,280.568,38.082,283.493,41.915,283.493z"/>
<path d="M236.685,49.376c6.465-0.592,12.964-0.893,19.315-0.893c6.351,0,12.851,0.301,19.315,0.893  c0.233,0.021,0.464,0.031,0.693,0.031c3.833,0,7.104-2.924,7.46-6.816c0.378-4.125-2.66-7.776-6.784-8.154  c-6.919-0.634-13.878-0.955-20.685-0.955s-13.766,0.321-20.685,0.955c-4.124,0.378-7.162,4.028-6.784,8.154  S232.543,49.759,236.685,49.376z"/>
<g>
</g>
<g>
</g>
<g>
</g>
<g>
</g>
<g>
</g>
<g>
</g>
<g>
</g>
<g>
</g>
<g>
</g>
<g>
</g>
<g>
</g>
<g>
</g>
<g>
</g>
<g>
</g>
<g>
</g>
</svg>
