<?xml version="1.0" encoding="iso-8859-1"?>
<!-- Generator: Adobe Illustrator 19.0.0, SVG Export Plug-In . SVG Version: 6.00 Build 0)  -->
<svg xmlns="http://www.w3.org/2000/svg" xmlns:xlink="http://www.w3.org/1999/xlink" version="1.1" id="Capa_1" x="0px" y="0px" viewBox="0 0 512 512" style="enable-background:new 0 0 512 512;" xml:space="preserve">
<path style="fill:#AD712C;" d="M87.766,363.975c-24.688-41.344-69.931-44.178-79.362-4.97c-4.33,22.859,7.193,50.984,28.023,68.393  c3.496,2.922,10.762,8.188,20.15,10.628C91.015,446.978,114.13,408.126,87.766,363.975z"/>
<path style="fill:#915729;" d="M87.766,363.975c-10.282-17.219-24.127-27.753-37.467-31.355c-6.456-1.744-13.237,1.318-16.254,7.287  c-1.508,2.983-2.738,6.348-3.64,10.099c-4.33,22.859,7.193,50.984,28.023,68.393c3.496,2.922,10.762,8.188,20.15,10.628  c0.034,0.009,0.068,0.018,0.102,0.026c6.312,1.624,12.891-1.485,15.865-7.285C101.787,407.647,101.218,386.502,87.766,363.975z"/>
<path style="fill:#AD712C;" d="M169.618,277.746L48.049,348.394c-3.223,1.873-5.579,5.324-6.592,10.268  c-2.147,10.483,2.387,24.61,10.613,35.488l138.46-80.464L169.618,277.746z"/>
<path style="fill:#915729;" d="M52.07,394.149c2.459,3.252,5.233,6.226,8.275,8.71c8.42,6.873,16.741,8.441,22.395,5.156  l121.569-70.648l-13.779-23.681L52.07,394.149z"/>
<path style="fill:#C98A2E;" d="M194.302,320.168l-3.772-6.482l-3.772-6.482L48.301,387.665c-0.123,0.071-0.236,0.153-0.353,0.23  c1.239,2.165,2.617,4.265,4.122,6.254c1.551,2.052,3.241,3.974,5.031,5.75l137.198-79.729  C194.3,320.17,194.301,320.169,194.302,320.168z"/>
<path style="fill:#915729;" d="M156.684,321.553c5.578,10.345,13.072,19.922,21.863,27.1c14.035,11.457,27.906,14.07,37.33,8.595  l145.89-84.783l-30.478-52.381L156.684,321.553z"/>
<path style="fill:#AD712C;" d="M303.941,173.084l-145.89,84.782c-5.373,3.123-9.3,8.874-10.988,17.116  c-2.794,13.641,1.217,30.985,9.62,46.571l174.604-101.47L303.941,173.084z"/>
<path style="fill:#C98A2E;" d="M338.825,233.051c0.002-0.001,0.004-0.003,0.007-0.004l-7.543-12.964l-7.544-12.964L150.578,307.752  c1.635,4.659,3.68,9.304,6.105,13.801c2.37,4.396,5.105,8.637,8.119,12.63L338.825,233.051z"/>
<path style="fill:#AD712C;" d="M373.431,106.099l-81.057,47.105c-7.522,4.372-13.021,12.425-15.384,23.963  c-2.328,11.368-1.283,24.582,2.414,38.017l117.7-68.399L373.431,106.099z"/>
<path style="fill:#915729;" d="M279.404,215.184c6.637,24.117,21.851,48.95,41.665,65.126c19.65,16.042,39.07,19.701,52.264,12.033  l81.057-47.105l-57.286-98.453L279.404,215.184z"/>
<path style="fill:#C98A2E;" d="M397.104,146.785l-12.573-21.609L275.773,188.38c-0.192,8.482,1.096,17.591,3.631,26.805  c2.174,7.899,5.283,15.87,9.158,23.594l121.115-70.385L397.104,146.785z"/>
<path style="fill:#915729;" d="M483.134,133.086c-20.014-33.517-49.486-56.48-76.916-59.931  c-21.313-2.681-33.749,6.737-37.835,9.832c-13.552,10.262-17.565,26.975-19.075,33.266c-7.848,41.463,14.536,95.029,53.225,127.369  c6.281,5.25,19.255,14.693,35.584,18.942c27.923,7.266,52.877-5.663,62.095-32.175C509.664,203.199,503.281,166.825,483.134,133.086  z"/>
<path style="fill:#AD712C;" d="M403.431,97.418L403.431,97.418c2.037-0.962,4.727-1.739,8.374-1.739c1.169,0,2.404,0.081,3.669,0.24  c14.91,1.876,37.669,16.687,54.902,45.547c0.065,0.11,0.131,0.219,0.196,0.329c2.782,4.687,9.902,1.537,8.301-3.673  c-2.69-8.753-6.33-17.598-10.886-26.337c-18.298-21.725-40.638-35.973-61.77-38.632c-21.313-2.681-33.749,6.737-37.835,9.833  c-13.552,10.262-17.565,26.975-19.075,33.266c-4.603,24.319,1.206,52.797,14.592,78.719c5.672,6.739,11.899,13.021,18.632,18.65  c6.281,5.25,19.256,14.693,35.584,18.942c0.156,0.041,0.313,0.081,0.469,0.12c19.558,4.937,35.372-16.253,25.3-33.73l-54.249-94.137  L403.431,97.418z"/>
<path style="fill:#3E474C;" d="M453.272,234.564c-2.407,0-4.964-0.348-7.601-1.034c-11.055-2.876-20.396-9.998-23.899-12.926  c-15.089-12.613-27.74-29.948-35.624-48.813c-7.352-17.594-10-35.067-7.485-49.301c0.947-3.873,3.169-12.059,7.831-15.589  c2.086-1.579,5.576-4.223,12.311-4.223c1.169,0,2.404,0.081,3.669,0.24c14.91,1.876,37.669,16.687,54.902,45.547  c15.42,25.824,20.976,53.439,14.499,72.071c-2.225,6.398-7.258,14.026-18.601,14.026  C453.274,234.564,453.273,234.564,453.272,234.564z"/>
<path style="fill:#4E565A;" d="M442.885,128.611c-14.164-15.887-29.419-24.309-40.41-25.692c-1.266-0.159-2.5-0.24-3.669-0.24  c-6.735,0-10.225,2.644-12.311,4.223c-4.662,3.53-6.883,11.716-7.831,15.589c-2.515,14.233,0.134,31.707,7.485,49.301  c0.901,2.157,1.873,4.291,2.895,6.403c3.989,4.494,8.248,8.664,12.728,12.409c3.503,2.928,12.844,10.05,23.899,12.926  c2.637,0.687,5.194,1.034,7.601,1.034c0.001,0,0.001,0,0.001,0c11.343,0,16.376-7.628,18.601-14.026  C457.51,174.33,454.034,151.323,442.885,128.611z"/>
<path style="fill:#7F8383;" d="M423.866,171.695c-0.952,0-1.963-0.137-3.005-0.409c-4.371-1.137-8.064-3.953-9.449-5.111  c-5.966-4.987-10.968-11.841-14.085-19.3c-2.907-6.956-3.954-13.865-2.96-19.493c0.375-1.531,1.253-4.768,3.096-6.164  c0.825-0.624,2.205-1.67,4.867-1.67c0.462,0,0.95,0.032,1.451,0.095c5.895,0.742,14.894,6.598,21.708,18.009  c6.097,10.211,8.294,21.13,5.733,28.496C430.341,168.679,428.351,171.695,423.866,171.695L423.866,171.695z"/>
<path d="M489.594,129.301c-21.172-35.442-52.755-59.778-82.426-63.509c-24.345-3.07-38.615,7.742-43.301,11.291  c-15.691,11.877-20.16,30.478-21.842,37.481l-0.077,0.357c-0.06,0.32-0.119,0.644-0.177,0.971l-53.16,30.882  c-9.68,5.624-16.238,15.629-18.964,28.934c-0.875,4.274-1.339,8.894-1.378,13.732c-0.068,8.753,1.246,18.095,3.909,27.767  c7.312,26.561,23.819,52.329,44.157,68.925c0.989,0.807,1.987,1.582,2.987,2.34l-107.213,62.282  c-6.361,3.691-16.201,1.451-26.335-5.996c-0.005-0.003-0.01-0.007-0.015-0.01c-0.015-0.011-0.03-0.021-0.045-0.032  c-0.829-0.611-1.646-1.244-2.425-1.879c-7.72-6.301-14.638-14.891-20.006-24.842c-4.979-9.23-8.168-18.825-9.224-27.75  c-0.599-5.064-0.482-9.687,0.349-13.744c0.83-4.052,2.789-9.448,7.409-12.132l89.51-51.998c3.581-2.08,4.798-6.67,2.716-10.25  c-2.082-3.582-6.673-4.798-10.254-2.715l-89.511,51.998c-7.458,4.334-12.495,11.972-14.568,22.089  c-1.153,5.627-1.338,11.856-0.55,18.513c1.275,10.782,5.051,22.23,10.917,33.106c5.022,9.311,11.265,17.649,18.274,24.468  l-89.388,51.926c-2.441,1.418-7.683,0.584-13.885-4.478c-2.467-2.013-4.835-4.511-7.038-7.423  c-7.08-9.359-10.883-21.469-9.248-29.45c0.376-1.831,1.203-4.235,3.013-5.286l70.885-41.178c3.581-2.08,4.798-6.67,2.716-10.25  s-6.673-4.798-10.254-2.715l-50.84,29.534c-1.084-0.586-2.174-1.147-3.268-1.655l-0.132-0.063c-0.908-0.42-1.847-0.823-2.884-1.237  l-0.048-0.019c-1.755-0.695-3.535-1.296-5.3-1.789l-0.956-0.382h-0.491c-11.071-2.746-21.971-1.39-30.8,3.846  c-9.564,5.672-16.251,15.45-19.337,28.277L1.019,357.6c-4.813,25.399,7.764,56.454,30.585,75.52  c3.979,3.324,12.269,9.321,23.075,12.129c3.89,1.01,7.734,1.502,11.467,1.501c14.749,0,27.75-7.673,34.901-21.283l0.162-0.304  c0.055-0.106,0.107-0.214,0.131-0.267c0.197-0.391,0.391-0.786,0.593-1.215l0.19-0.417c0.178-0.392,0.353-0.787,0.523-1.189  l0.193-0.469c0.162-0.395,0.319-0.793,0.469-1.187l0.192-0.519c0.145-0.398,0.286-0.798,0.415-1.182l0.182-0.554  c0.128-0.397,0.251-0.796,0.37-1.197l0.164-0.572c0.112-0.395,0.219-0.795,0.326-1.212l0.149-0.598  c0.096-0.396,0.188-0.795,0.276-1.2l0.133-0.631c0.083-0.4,0.16-0.802,0.233-1.205l0.115-0.659c0.068-0.402,0.131-0.807,0.188-1.203  l0.099-0.705c0.052-0.392,0.099-0.788,0.146-1.203l0.076-0.718c0.039-0.394,0.072-0.794,0.103-1.186  c0.02-0.253,0.039-0.507,0.055-0.766c0.025-0.392,0.045-0.787,0.063-1.195c0.011-0.26,0.022-0.519,0.03-0.773  c0.004-0.12,0.004-0.243,0.007-0.364l74.322-43.174c8.244,5.183,16.61,7.849,24.277,7.848c5.215,0,10.108-1.23,14.416-3.732  l114.081-66.272c8.458,4.129,16.847,6.215,24.639,6.215c6.828,0,13.196-1.6,18.749-4.826l53.079-30.835  c2.027,0.696,4.052,1.317,6.051,1.837c5.805,1.509,11.536,2.26,17.113,2.26c9.336,0,18.234-2.106,26.292-6.279  c12.937-6.7,22.504-18.09,27.668-32.939C517.491,203.631,510.866,164.909,489.594,129.301z M90.078,412.724  c-0.083,0.282-0.17,0.561-0.264,0.851l-0.12,0.366c-0.093,0.277-0.189,0.552-0.284,0.811l-0.131,0.356  c-0.104,0.276-0.213,0.549-0.32,0.811l-0.134,0.326c-0.116,0.275-0.237,0.547-0.355,0.808l-0.131,0.286  c-0.126,0.269-0.258,0.537-0.385,0.789l-0.119,0.236c-5.692,11.047-16.677,15.67-29.381,12.369  c-7.968-2.071-14.215-6.604-17.229-9.122c-18.787-15.694-29.252-40.769-25.499-61.044c2.132-8.707,6.404-15.174,12.363-18.709  c5.562-3.299,12.413-4.027,19.837-2.111l0.036,0.01l-3.694,2.146c-3.65,2.119-8.377,6.485-10.172,15.242  c-2.514,12.271,2.188,28.562,11.979,41.503c2.923,3.863,6.124,7.225,9.516,9.995c6.871,5.606,14.112,8.504,20.721,8.503  c3.644,0,7.097-0.882,10.187-2.676l3.692-2.145L90.078,412.724z M493.148,227.957c-7.98,22.945-28.832,33.686-53.126,27.371  c-2.571-0.67-5.208-1.529-7.837-2.554c-11.462-4.473-20.476-11.242-24.829-14.879c-3.178-2.654-7.909-2.232-10.565,0.945  s-2.234,7.905,0.945,10.561c3.841,3.209,9.18,7.206,15.74,10.969l-43.899,25.503c-8.145,4.732-19.944,3.447-32.373-3.524  c-3.797-2.13-7.628-4.764-11.385-7.831c-18.016-14.703-32.663-37.614-39.18-61.289c-2.295-8.336-3.43-16.3-3.371-23.669  c0.03-3.869,0.392-7.517,1.073-10.842c1.844-8.999,5.926-15.562,11.806-18.978l44.112-25.626c0.04,8.439,1.049,17.201,3.025,26.195  c0.889,4.044,4.884,6.606,8.934,5.715c4.046-0.887,6.606-4.886,5.717-8.931c-2.759-12.559-3.391-24.499-1.878-35.49  c0.187-1.354,0.382-2.572,0.596-3.718c1.372-5.71,4.975-20.299,16.269-28.849c3.852-2.917,14.084-10.663,32.372-8.367  c25.194,3.169,52.561,24.748,71.419,56.318C495.739,168.837,501.883,202.844,493.148,227.957z"/>
<path d="M450.236,125.596c-16.727-19.625-34.706-28.525-46.81-30.047h-0.001c-1.576-0.198-3.126-0.299-4.606-0.299  c-9.252,0-14.375,3.877-16.839,5.741c-6.325,4.788-9.072,13.582-10.589,19.78l-0.101,0.476c-2.761,15.617,0.063,34.611,7.951,53.482  c8.34,19.947,21.741,38.293,37.737,51.66c3.893,3.252,14.298,11.167,26.821,14.424c3.252,0.846,6.447,1.276,9.493,1.276  c12.111,0,21.474-6.946,25.687-19.058c7.186-20.663,1.384-50.687-15.144-78.355C459.505,137.427,454.919,131.091,450.236,125.596z   M464.81,218.108c-2.802,8.055-7.917,8.987-11.519,8.987c-1.771,0-3.693-0.267-5.712-0.793c-9.583-2.491-17.865-8.815-20.979-11.417  c-14.185-11.853-26.088-28.167-33.517-45.936c-6.751-16.153-9.256-32.069-7.061-44.853c2.029-8.168,4.179-10.516,5.015-11.15  c1.673-1.265,3.569-2.7,7.783-2.7c0.856,0,1.776,0.062,2.734,0.182c12.682,1.595,33.55,15.399,49.403,41.937  C465.054,175.966,470.491,201.771,464.81,218.108z"/>
<g>
</g>
<g>
</g>
<g>
</g>
<g>
</g>
<g>
</g>
<g>
</g>
<g>
</g>
<g>
</g>
<g>
</g>
<g>
</g>
<g>
</g>
<g>
</g>
<g>
</g>
<g>
</g>
<g>
</g>
</svg>
