<?xml version="1.0" encoding="iso-8859-1"?>
<!-- Generator: Adobe Illustrator 19.0.0, SVG Export Plug-In . SVG Version: 6.00 Build 0)  -->
<svg xmlns="http://www.w3.org/2000/svg" xmlns:xlink="http://www.w3.org/1999/xlink" version="1.1" id="Capa_1" x="0px" y="0px" viewBox="0 0 512 512" style="enable-background:new 0 0 512 512;" xml:space="preserve">
<path style="fill:#6F3D28;" d="M256,16C126,16,86,80.471,86,160h340C426,80.471,386,16,256,16z"/>
<path style="fill:#8D472E;" d="M262.418,86.116c20.578-14.54,36.098-35.756,43.419-60.495c3.196-10.8,13.241-18.121,24.504-18.121  l0,0c12.341,0,22.853,8.811,25.191,20.928c9.591,49.708,33.4,93.294,66.298,124.868c0.155,0.148,0.309,0.298,0.463,0.448  c18.032,17.598,9.882,46.308-11.226,54.393c2.416,2.532,5.792,6.131,6.988,7.327C435.949,233.357,446,257.625,446,282.931  C446,301.194,431.194,316,412.931,316C431.194,316,446,330.806,446,349.069v47.598c0,13.173-10.191,23.959-23.118,24.922  l0.285,0.078c12.61,0,22.833,10.223,22.833,22.833c0,33.137-26.863,60-60,60H276c-11.046,0-20-8.954-20-20l-50-188.513L256,98.41  C256,93.509,258.415,88.944,262.418,86.116z"/>
<g>
	<path style="fill:#AB5034;" d="M422.882,421.589l0.285,0.078c6.248,0,11.907,2.512,16.029,6.577   C429.18,447.41,409.124,460.5,386,460.5h-90.584c-10.723,0-19.416-8.693-19.416-19.416l0,0c0-10.723,8.693-19.416,19.416-19.416   H421C421.634,421.667,422.26,421.636,422.882,421.589z"/>
	<path style="fill:#AB5034;" d="M421,381.667H296c-11.046,0-20-8.954-20-20V336c0-11.046,8.954-20,20-20h116.931   C431.194,316,446,330.806,446,349.069v7.598C446,370.474,434.807,381.667,421,381.667z"/>
	<path style="fill:#AB5034;" d="M411.068,208.137c2.416,2.532,5.792,6.132,6.988,7.327c13.361,13.361,22.347,30.277,26.044,48.525   C439.548,276.813,427.315,286,412.931,286H296c-11.046,0-20-8.954-20-20v-35.667c0-11.046,8.954-20,20-20h103.037   C403.393,210.333,407.419,209.535,411.068,208.137z"/>
	<path style="fill:#AB5034;" d="M276,118.42c0-9.496,4.51-18.414,12.128-24.084C311.735,76.762,326,48.892,326,18.91V7.873   c1.418-0.241,2.868-0.373,4.341-0.373l0,0c12.341,0,22.853,8.811,25.191,20.928c9.592,49.708,33.4,93.293,66.298,124.868   c0.155,0.148,0.309,0.298,0.463,0.448c0.078,0.076,0.156,0.153,0.233,0.229c9.749,9.688,2.718,26.359-11.025,26.359H291.483   c-8.551,0-15.483-6.932-15.483-15.483V118.42z"/>
	<path style="fill:#AB5034;" d="M249.582,86.116c-20.578-14.54-36.098-35.756-43.419-60.495C202.968,14.821,192.922,7.5,181.659,7.5   l0,0c-12.341,0-22.853,8.811-25.191,20.928c-9.591,49.708-33.4,93.294-66.298,124.868c-0.155,0.148-0.309,0.298-0.463,0.448   c-18.032,17.598-9.882,46.308,11.226,54.393c-2.416,2.532-5.792,6.131-6.988,7.327C76.051,233.357,66,257.625,66,282.931   C66,301.194,80.806,316,99.069,316C80.806,316,66,330.806,66,349.069v47.598c0,13.173,10.191,23.959,23.118,24.922l-0.285,0.078   C76.223,421.667,66,431.89,66,444.5c0,33.137,26.863,60,60,60h110c11.046,0,20-8.954,20-20V98.41   C256,93.509,253.585,88.944,249.582,86.116z"/>
</g>
<g>
	<path style="fill:#C95A3A;" d="M89.118,421.589l-0.285,0.078c-6.248,0-11.907,2.512-16.029,6.577   C82.82,447.41,102.876,460.5,126,460.5h90.584c10.723,0,19.416-8.693,19.416-19.416l0,0c0-10.723-8.693-19.416-19.416-19.416H91   C90.366,421.667,89.74,421.636,89.118,421.589z"/>
	<path style="fill:#C95A3A;" d="M91,381.667h125c11.046,0,20-8.954,20-20V336c0-11.046-8.954-20-20-20H99.069   C80.806,316,66,330.806,66,349.069v7.598C66,370.474,77.193,381.667,91,381.667z"/>
	<path style="fill:#C95A3A;" d="M100.932,208.137c-2.416,2.532-5.792,6.132-6.988,7.327c-13.361,13.361-22.347,30.277-26.044,48.525   C72.452,276.813,84.685,286,99.069,286H216c11.046,0,20-8.954,20-20v-35.667c0-11.046-8.954-20-20-20H112.963   C108.607,210.333,104.581,209.535,100.932,208.137z"/>
	<path style="fill:#C95A3A;" d="M236,118.42c0-9.496-4.51-18.414-12.128-24.084C200.265,76.762,186,48.892,186,18.91V7.873   c-1.418-0.241-2.868-0.373-4.341-0.373l0,0c-12.341,0-22.853,8.811-25.191,20.928c-9.592,49.708-33.4,93.293-66.298,124.868   c-0.155,0.148-0.309,0.298-0.463,0.448c-0.078,0.076-0.156,0.153-0.233,0.229c-9.749,9.688-2.718,26.359,11.025,26.359h120.018   c8.551,0,15.483-6.932,15.483-15.483V118.42z"/>
</g>
<g>
	<path style="fill:#47423F;" d="M276,225.5h-40c-5.523,0-10-4.477-10-10v-10c0-5.523,4.477-10,10-10h40c5.523,0,10,4.477,10,10v10   C286,221.023,281.523,225.5,276,225.5z"/>
	<path style="fill:#47423F;" d="M276,331.5h-40c-5.523,0-10-4.477-10-10v-10c0-5.523,4.477-10,10-10h40c5.523,0,10,4.477,10,10v10   C286,327.023,281.523,331.5,276,331.5z"/>
	<path style="fill:#47423F;" d="M276,437.5h-40c-5.523,0-10-4.477-10-10v-10c0-5.523,4.477-10,10-10h40c5.523,0,10,4.477,10,10v10   C286,433.023,281.523,437.5,276,437.5z"/>
</g>
<path d="M436.387,316c10.345-7.359,17.113-19.435,17.113-33.069c0-27.33-10.642-53.022-29.965-72.345l-0.467-0.467  c5.91-4.334,10.638-10.342,13.61-17.643c5.107-12.545,3.797-25.983-3.195-36.833c-0.35-60.211-23.908-102.569-70.048-125.977  c-0.181-0.887-0.367-1.771-0.539-2.661C359.876,11.357,346.185,0,330.341,0c-10.017,0-19.309,4.567-25.467,11.917  C289.906,9.656,273.501,8.5,256,8.5s-33.906,1.156-48.874,3.417C200.967,4.567,191.676,0,181.659,0c-4.142,0-7.5,3.357-7.5,7.5  s3.358,7.5,7.5,7.5c7.972,0,15.091,5.242,17.313,12.749c8.119,27.438,25.63,50.975,49.528,66.709V188H236  c-8.74,0-15.984,6.448-17.275,14.833H112.963c-12.703,0-20.597-8.271-23.748-16.012c-3.115-7.652-3.246-18.95,5.734-27.715  l0.414-0.399c32.946-31.62,56.591-74.766,67.058-122.094c0.01-0.041,0.018-0.084,0.028-0.125c0.487-2.205,0.955-4.417,1.384-6.64  c0.785-4.067-1.876-8-5.943-8.785c-4.061-0.786-8,1.876-8.785,5.943c-0.172,0.889-0.358,1.773-0.539,2.66  c-46.141,23.408-69.699,65.768-70.048,125.981c-6.992,10.854-8.3,24.288-3.195,36.829c2.948,7.241,7.625,13.209,13.468,17.534  l-0.149,0.148C69.205,229.598,58.5,255.441,58.5,282.931c0,13.635,6.768,25.71,17.113,33.069  C65.268,323.359,58.5,335.435,58.5,349.069v47.598c0,9.72,4.295,18.451,11.08,24.411c-6.761,5.568-11.08,14-11.08,23.422  c0,37.22,30.28,67.5,67.5,67.5h110c7.875,0,14.982-3.332,20-8.655c5.018,5.323,12.125,8.655,20,8.655h110  c37.22,0,67.5-30.28,67.5-67.5c0-9.422-4.319-17.854-11.08-23.422c6.785-5.96,11.08-14.691,11.08-24.411v-47.598  C453.5,335.435,446.732,323.359,436.387,316z M143.501,49.912c-9.901,33.359-26.825,63.837-49.11,88.298  C98.235,98.536,114.689,68.94,143.501,49.912z M438.5,349.069v47.598c0,9.649-7.851,17.5-17.5,17.5H293.173  C291.611,406.107,284.509,400,276,400h-12.5v-61H276c8.972,0,16.38-6.79,17.377-15.5h119.554  C427.029,323.5,438.5,334.971,438.5,349.069z M236,430c-1.378,0-2.5-1.121-2.5-2.5v-10c0-1.379,1.122-2.5,2.5-2.5h40  c1.379,0,2.5,1.121,2.5,2.5v10c0,1.379-1.121,2.5-2.5,2.5H236z M233.5,311.5c0-1.379,1.122-2.5,2.5-2.5h40  c1.379,0,2.5,1.121,2.5,2.5v10c0,1.379-1.121,2.5-2.5,2.5h-40c-1.378,0-2.5-1.121-2.5-2.5V311.5z M409.568,217.833l3.36,3.36  c16.49,16.489,25.571,38.414,25.571,61.737c0,14.099-11.471,25.569-25.569,25.569H293.224c-1.429-8.223-8.599-14.5-17.224-14.5  h-12.5v-61H276c8.856,0,16.179-6.619,17.326-15.167L409.568,217.833L409.568,217.833z M417.609,138.208  c-22.288-24.465-39.21-54.939-49.11-88.295C397.311,68.94,413.764,98.536,417.609,138.208z M214.184,26.072  C227.104,24.374,241.113,23.5,256,23.5s28.896,0.874,41.817,2.572C290.485,48.707,275.804,68.145,256,81.425  C236.196,68.145,221.515,48.707,214.184,26.072z M263.5,94.448c23.896-15.733,41.41-39.264,49.528-66.699  C315.25,20.242,322.368,15,330.341,15c8.669,0,16.167,6.245,17.827,14.849c9.643,49.974,33.958,95.737,68.479,128.868l0.407,0.396  c8.976,8.759,8.846,20.057,5.73,27.709c-3.151,7.74-11.045,16.012-23.748,16.012H293.275C291.984,194.448,284.74,188,276,188h-12.5  V94.448z M233.5,205.5c0-1.379,1.122-2.5,2.5-2.5h40c1.379,0,2.5,1.121,2.5,2.5v10c0,1.379-1.121,2.5-2.5,2.5h-40  c-1.378,0-2.5-1.121-2.5-2.5V205.5z M73.5,282.931c0-23.482,9.144-45.56,25.747-62.163l2.935-2.935h116.492  C219.821,226.381,227.144,233,236,233h12.5v61H236c-8.625,0-15.794,6.277-17.224,14.5H99.069C84.97,308.5,73.5,297.029,73.5,282.931  z M73.5,349.069c0-14.099,11.47-25.569,25.569-25.569h119.554c0.997,8.71,8.405,15.5,17.377,15.5h12.5v61H236  c-8.509,0-15.611,6.107-17.173,14.167H91c-9.649,0-17.5-7.851-17.5-17.5V349.069z M236,497H126c-28.949,0-52.5-23.552-52.5-52.5  c0-8.455,6.878-15.333,15.333-15.333c0.245,0,0.486-0.014,0.725-0.036c0.479,0.021,0.958,0.036,1.442,0.036h127.584  C219.427,438.037,226.913,445,236,445h12.5v39.5C248.5,491.393,242.893,497,236,497z M423.167,429.167  c8.455,0,15.333,6.878,15.333,15.333c0,28.948-23.552,52.5-52.5,52.5H276c-6.893,0-12.5-5.607-12.5-12.5V445H276  c9.087,0,16.573-6.963,17.416-15.833H423.167z"/>
<g>
</g>
<g>
</g>
<g>
</g>
<g>
</g>
<g>
</g>
<g>
</g>
<g>
</g>
<g>
</g>
<g>
</g>
<g>
</g>
<g>
</g>
<g>
</g>
<g>
</g>
<g>
</g>
<g>
</g>
</svg>
