<?xml version="1.0" encoding="iso-8859-1"?>
<!-- Generator: Adobe Illustrator 19.0.0, SVG Export Plug-In . SVG Version: 6.00 Build 0)  -->
<svg xmlns="http://www.w3.org/2000/svg" xmlns:xlink="http://www.w3.org/1999/xlink" version="1.1" id="Capa_1" x="0px" y="0px" viewBox="0 0 512.002 512.002" style="enable-background:new 0 0 512.002 512.002;" xml:space="preserve">
<path style="fill:#989487;" d="M276.002,101.77v-0.015c17.918-7.975,30.201-26.321,29.192-47.422  c-1.211-25.31-21.873-45.791-47.192-46.793c-28.111-1.113-51.25,21.346-51.25,49.21c0,20.077,12.02,37.335,29.25,45.004v0.015  c6.112,2.719,12.879,4.23,20,4.23S269.89,104.49,276.002,101.77z M236.752,56.751c0-10.614,8.636-19.25,19.25-19.25  c10.614,0,19.25,8.636,19.25,19.25s-8.636,19.25-19.25,19.25S236.752,67.365,236.752,56.751z"/>
<g>
	<path style="fill:#706B63;" d="M304.509,48.272c-2.855,16.35-13.772,29.924-28.507,36.483v0.015c-6.112,2.719-12.879,4.23-20,4.23   s-13.888-1.511-20-4.23v-0.015c-14.736-6.559-25.654-20.135-28.508-36.487c-0.479,2.757-0.742,5.588-0.742,8.483   c0,20.077,12.02,37.335,29.25,45.004v0.015c6.112,2.719,12.879,4.23,20,4.23s13.888-1.511,20-4.23v-0.015   c17.918-7.975,30.201-26.321,29.192-47.422C305.096,52.277,304.856,50.257,304.509,48.272z"/>
	<path style="fill:#706B63;" d="M446.08,288.977l-67.387,20.216c-7.014,2.104-7.164,11.983-0.217,14.299l30.298,10.1   c-18.39,58.907-69.984,103.297-132.773,111.162V196.001h30c5.493,6.136,13.471,10,22.355,10c16.569,0,30-13.432,30-30   s-13.431-30-30-30c-8.884,0-16.862,3.864-22.355,10h-30v-54.23h-20l-14,174.558l14,228.173l0.928-0.929   c11.18-11.18,25.432-18.678,40.894-21.98c86.96-18.573,153.166-93.837,157.905-185.099   C455.998,291.337,451.026,287.494,446.08,288.977z"/>
</g>
<path style="fill:#989487;" d="M236.002,101.77V156h-30c-5.493-6.136-13.471-10-22.355-10c-16.569,0-30,13.432-30,30  s13.431,30,30,30c8.884,0,16.862-3.864,22.355-10h30v248.752c-62.789-7.865-114.383-52.254-132.773-111.162l30.298-10.1  c6.948-2.315,6.798-12.194-0.217-14.299l-67.387-20.216c-4.945-1.484-9.917,2.359-9.649,7.516  c4.74,91.262,70.945,166.526,157.905,185.099c15.462,3.302,29.714,10.8,40.894,21.98l0.928,0.929V101.77H236.002z"/>
<circle style="fill:#C1BDAB;" cx="174.171" cy="169.5" r="15"/>
<path style="fill:#989487;" d="M328.357,184.001c12.684,0,23.521-7.875,27.909-19c-4.388-11.125-15.226-19-27.909-19  c-8.884,0-16.862,3.864-22.355,10v18C311.495,180.137,319.473,184.001,328.357,184.001z"/>
<path style="fill:#706B63;" d="M218.357,462.034c-79.46-16.973-137.898-85.472-142.111-166.578c0-0.012-0.001-0.024-0.002-0.037  c-0.111-2.067-1.573-3.818-3.557-4.413l-6.764-2.029c-4.945-1.484-9.917,2.359-9.649,7.516  c4.74,91.262,70.945,166.526,157.905,185.099c15.462,3.302,29.714,10.8,40.894,21.98l0.928,0.929l10-12.38l-10-13.767  C244.846,470.53,232.082,464.965,218.357,462.034z"/>
<path style="fill:#989487;" d="M408.775,333.592c-18.39,58.907-69.984,103.297-132.773,111.162v20  c0.821-0.001,1.65-0.052,2.485-0.156c62.714-7.854,116.438-48.32,141.898-105.262C425.003,349.009,419.573,336.963,408.775,333.592  L408.775,333.592z"/>
<path d="M282.786,56.752c0-14.75-12.015-26.75-26.784-26.75c-14.769,0-26.784,12-26.784,26.75s12.015,26.75,26.784,26.75  C270.771,83.502,282.786,71.502,282.786,56.752z M256.002,68.502c-6.487,0-11.765-5.271-11.765-11.75s5.278-11.75,11.765-11.75  s11.765,5.271,11.765,11.75S262.489,68.502,256.002,68.502z"/>
<path d="M457.776,284.37c-3.846-3.015-8.936-3.978-13.614-2.575l-67.472,20.216c-6.302,1.888-10.602,7.571-10.701,14.141  c-0.1,6.569,4.027,12.38,10.267,14.457l23.18,7.717c-18.582,50.696-62.885,88-115.899,97.688V203.502h19.393  c6.91,6.393,16.031,10,25.519,10c20.704,0,37.547-16.822,37.547-37.5s-16.843-37.5-37.547-37.5c-9.489,0-18.609,3.607-25.519,10  h-19.393v-42.106c18.93-10.43,30.27-30.498,29.22-52.42c-1.393-29.089-25.313-52.777-54.455-53.929  c-15.633-0.622-30.425,4.988-41.672,15.786c-11.252,10.803-17.45,25.335-17.45,40.919c0,22.391,13.245,42.745,33.743,51.856  c3.788,1.682,8.228-0.019,9.915-3.803c1.686-3.785-0.019-8.218-3.808-9.902c-15.084-6.704-24.831-21.68-24.831-38.151  c0-11.465,4.559-22.156,12.838-30.104c8.274-7.942,19.149-12.069,30.669-11.612c21.432,0.847,39.024,18.267,40.048,39.657  c0.831,17.366-8.896,33.15-24.782,40.212c-2.709,1.204-4.456,3.889-4.456,6.852v54.246c0,4.143,3.362,7.5,7.509,7.5h30.038  c2.135,0,4.17-0.908,5.595-2.497c4.274-4.769,10.393-7.503,16.789-7.503c12.422,0,22.528,10.094,22.528,22.5  s-10.106,22.5-22.528,22.5c-6.396,0-12.515-2.734-16.789-7.503c-1.425-1.589-3.459-2.497-5.595-2.497h-30.038  c-4.148,0-7.509,3.357-7.509,7.5v248.752c0,2.151,0.925,4.199,2.54,5.623c1.614,1.424,3.765,2.087,5.902,1.818  c64.991-8.129,119.62-53.807,139.176-116.367c1.219-3.9-0.912-8.059-4.793-9.351l-30.337-10.1l67.477-20.272  c-4.511,86.743-67.087,160.003-152.174,178.153c-15.16,3.233-28.978,10.082-40.307,19.93c-11.329-9.848-25.147-16.696-40.307-19.93  c-85.087-18.15-147.664-91.41-152.169-178.097l67.472,20.216l-30.336,10.1c-3.881,1.292-6.012,5.45-4.793,9.351  c19.555,62.561,74.184,108.238,139.175,116.367c2.136,0.268,4.287-0.395,5.902-1.818c1.615-1.424,2.54-3.472,2.54-5.623V196.002  c0-4.143-3.362-7.5-7.509-7.5h-30.038c-2.135,0-4.17,0.908-5.595,2.497c-4.274,4.769-10.393,7.503-16.789,7.503  c-12.422,0-22.528-10.094-22.528-22.5s10.106-22.5,22.528-22.5c6.396,0,12.515,2.734,16.789,7.503  c1.425,1.589,3.459,2.497,5.595,2.497h30.038c4.148,0,7.509-3.357,7.509-7.5v-24.246c0-4.143-3.362-7.5-7.509-7.5  c-4.148,0-7.509,3.357-7.509,7.5v16.746h-19.393c-6.91-6.393-16.031-10-25.519-10c-20.704,0-37.547,16.822-37.547,37.5  s16.843,37.5,37.547,37.5c9.489,0,18.609-3.607,25.519-10h19.393v232.512c-53.014-9.688-97.317-46.992-115.898-97.688l23.178-7.717  c6.241-2.077,10.368-7.888,10.268-14.457c-0.099-6.569-4.399-12.253-10.701-14.141l-67.471-20.216  c-4.68-1.4-9.769-0.439-13.615,2.575c-3.824,2.998-5.958,7.676-5.706,12.513c4.864,93.508,72.318,172.479,164.037,192.046  c14.333,3.057,27.197,9.954,37.203,19.948l0.93,0.929c1.467,1.464,3.389,2.196,5.31,2.196s3.844-0.732,5.31-2.196l0.93-0.929  c10.006-9.994,22.871-16.892,37.203-19.948c91.719-19.566,159.173-98.538,164.037-192.046  C463.733,292.046,461.6,287.368,457.776,284.37z"/>
<g>
</g>
<g>
</g>
<g>
</g>
<g>
</g>
<g>
</g>
<g>
</g>
<g>
</g>
<g>
</g>
<g>
</g>
<g>
</g>
<g>
</g>
<g>
</g>
<g>
</g>
<g>
</g>
<g>
</g>
</svg>
