<?xml version="1.0" encoding="iso-8859-1"?>
<!-- Generator: Adobe Illustrator 19.0.0, SVG Export Plug-In . SVG Version: 6.00 Build 0)  -->
<svg xmlns="http://www.w3.org/2000/svg" xmlns:xlink="http://www.w3.org/1999/xlink" version="1.1" id="Capa_1" x="0px" y="0px" viewBox="0 0 512 512" style="enable-background:new 0 0 512 512;" xml:space="preserve">
<path style="fill:#A57D48;" d="M256,7.5c-26.191,0-47.5,21.309-47.5,47.5v125.869c-0.19,0.052-0.383,0.096-0.573,0.148  C194.956,184.616,186,196.459,186,209.92V236h22.5H256l20-106.327L256,7.5z"/>
<g>
	<path style="fill:#8D663D;" d="M303.984,180.939c-0.16-0.044-0.323-0.081-0.484-0.124V55c0-26.191-21.309-47.5-47.5-47.5v167V236   h47.5H326v-26.134C326,196.371,316.996,184.518,303.984,180.939z"/>
	<path style="fill:#8D663D;" d="M362.066,248.434L164.5,266l-14.566,194.566C177.079,487.711,214.579,504.5,256,504.5   c82.843,0,150-67.157,150-150C406,313.078,389.211,275.578,362.066,248.434z"/>
</g>
<path style="fill:#B69362;" d="M256,204.5c-82.843,0-150,67.157-150,150c0,41.421,16.789,78.922,43.934,106.066l212.132-212.133  C334.921,221.289,297.421,204.5,256,204.5z"/>
<path style="fill:#A57D48;" d="M256,482c-70.304,0-127.5-57.196-127.5-127.5S185.696,227,256,227s127.5,57.196,127.5,127.5  S326.304,482,256,482z"/>
<path style="fill:#E7E4CD;" d="M256,459.5c-57.897,0-105-47.103-105-105s47.103-105,105-105s105,47.103,105,105  S313.897,459.5,256,459.5z"/>
<path style="fill:#C1BDAB;" d="M276,269.5c23.861,0,45.883,8.006,63.536,21.464C320.337,265.783,290.037,249.5,256,249.5  c-57.897,0-105,47.103-105,105c0,34.037,16.283,64.337,41.464,83.536C179.006,420.383,171,398.36,171,374.5  C171,316.603,218.103,269.5,276,269.5z"/>
<path style="fill:#D5D2BD;" d="M256,173.5c-4.142,0-7.5-3.357-7.5-7.5V55c0-4.143,3.358-7.5,7.5-7.5c4.143,0,7.5,3.357,7.5,7.5v111  C263.5,170.143,260.143,173.5,256,173.5z"/>
<path d="M367.37,243.13c-10.26-10.26-21.688-18.929-33.982-25.885c0.068-0.406,0.112-0.82,0.112-1.245v-6.134  c0-15.027-9.021-28.489-22.5-34.379V55c0-30.327-24.673-55-55-55s-55,24.673-55,55v120.537c-13.469,5.877-22.5,19.354-22.5,34.383  v11.754c-0.001,0.043,0,0.085,0,0.127v0.001v0.002c0,0.247,0.013,0.496,0.038,0.745c0.004,0.042,0.012,0.084,0.017,0.126  c0.023,0.2,0.051,0.399,0.091,0.599c0.016,0.078,0.038,0.155,0.056,0.233c0.037,0.157,0.074,0.314,0.121,0.471  c0.034,0.112,0.076,0.222,0.116,0.332c0.042,0.119,0.081,0.238,0.13,0.355c0.058,0.14,0.125,0.274,0.191,0.409  c0.037,0.077,0.068,0.156,0.108,0.232c0.006,0.012,0.013,0.021,0.02,0.033c0.068,0.126,0.145,0.246,0.219,0.368  c0.057,0.095,0.111,0.192,0.172,0.283c0.018,0.027,0.039,0.052,0.058,0.078c0.646,0.936,1.478,1.684,2.419,2.225  c0.062,0.035,0.121,0.075,0.184,0.109c0.101,0.055,0.207,0.1,0.31,0.149c0.118,0.058,0.234,0.117,0.355,0.169  c0.049,0.021,0.1,0.035,0.15,0.055c0.466,0.183,0.954,0.32,1.459,0.407c0.168,0.029,0.336,0.06,0.506,0.077  c0.047,0.005,0.095,0.005,0.142,0.009c0.204,0.018,0.409,0.03,0.616,0.031c0.007,0,0.014,0.001,0.022,0.001  c0.049,0,0.097-0.007,0.146-0.008c0.192-0.003,0.385-0.01,0.577-0.028c0.092-0.009,0.18-0.025,0.271-0.037  c0.151-0.021,0.302-0.039,0.452-0.069c0.127-0.024,0.251-0.059,0.376-0.09c0.11-0.027,0.219-0.052,0.328-0.084  c0.163-0.049,0.322-0.108,0.48-0.167c0.069-0.026,0.139-0.048,0.208-0.076c0.2-0.082,0.394-0.175,0.584-0.272  c0.026-0.014,0.053-0.023,0.08-0.037c0.015-0.008,0.031-0.016,0.046-0.023c0.011-0.006,0.022-0.011,0.033-0.017  C209.9,217.669,232.864,212,256,212c38.063,0,73.849,14.822,100.763,41.737c26.915,26.914,41.737,62.7,41.737,100.763  c0,78.575-63.925,142.5-142.5,142.5c-38.063,0-73.848-14.822-100.763-41.737c-26.914-26.914-41.737-62.7-41.737-100.763  c0-43.437,19.45-83.962,53.363-111.187c3.23-2.593,3.747-7.313,1.154-10.544c-2.594-3.23-7.313-3.748-10.543-1.153  C119.995,261.702,98.5,306.492,98.5,354.5c0,42.07,16.383,81.622,46.131,111.37C174.378,495.617,213.93,512,256,512  c86.846,0,157.5-70.654,157.5-157.5C413.5,312.43,397.117,272.878,367.37,243.13z M193.5,209.918  c0.001-10.077,6.757-18.989,16.428-21.672l0.544-0.141c3.264-0.89,5.528-3.854,5.528-7.236V55c0-22.056,17.944-40,40-40  s40,17.944,40,40v125.815c0,3.394,2.279,6.364,5.557,7.244l0.439,0.111c9.712,2.671,16.496,11.584,16.503,21.679  C299.025,201.432,277.855,197,256,197C234.493,197,213.121,201.451,193.5,209.918z"/>
<path d="M256,467c62.033,0,112.5-50.467,112.5-112.5S318.033,242,256,242s-112.5,50.467-112.5,112.5S193.967,467,256,467z M256,257  c53.762,0,97.5,43.738,97.5,97.5S309.762,452,256,452s-97.5-43.738-97.5-97.5S202.238,257,256,257z"/>
<path d="M222.011,377.882l0.002-6.932c0.002-6.8-8.219-10.207-13.028-5.398c-1.431,1.432-2.235,3.372-2.235,5.396v17.802  c0,8.284,6.716,15,15,15h17.802c2.024,0,3.965-0.804,5.396-2.235l0,0c4.808-4.809,1.401-13.029-5.399-13.027l-6.932,0.002  l19.512-19.512c1.237,0.33,2.53,0.522,3.87,0.522c8.284,0,15-6.716,15-15c0-1.341-0.193-2.634-0.523-3.87l8.789-8.789  c2.974,1.394,6.188,2.116,9.411,2.115c5.67,0,11.342-2.158,15.658-6.475c2.93-2.929,2.93-7.678,0.001-10.606  c-2.93-2.929-7.679-2.93-10.606-0.001c-2.787,2.785-7.319,2.785-10.104,0c-2.786-2.785-2.786-7.318,0-10.104  c2.929-2.929,2.929-7.678-0.001-10.606c-2.93-2.93-7.679-2.929-10.606,0.001c-6.77,6.771-8.206,16.861-4.359,25.069l-8.79,8.789  c-1.237-0.33-2.53-0.522-3.87-0.522c-8.284,0-15,6.716-15,15c0,1.341,0.193,2.634,0.522,3.87L222.011,377.882z"/>
<path d="M308.264,397.223c-1.414,1.728-2.939,3.412-4.535,5.008c-2.928,2.93-2.928,7.678,0.001,10.606  c1.465,1.465,3.383,2.196,5.303,2.196s3.839-0.732,5.304-2.197c1.945-1.946,3.808-4.003,5.535-6.113  c2.623-3.205,2.151-7.931-1.054-10.554C315.614,393.547,310.888,394.018,308.264,397.223z"/>
<path d="M323.155,360.999c-0.42,4.395-1.274,8.761-2.537,12.979c-1.188,3.968,1.066,8.147,5.035,9.335  c0.717,0.215,1.441,0.317,2.153,0.317c3.228,0,6.209-2.101,7.182-5.352c1.542-5.152,2.585-10.485,3.098-15.851  c0.395-4.124-2.628-7.786-6.751-8.181C327.209,353.842,323.549,356.876,323.155,360.999z"/>
<path d="M320.548,334.798c0.981,3.239,3.957,5.326,7.174,5.326c0.721,0,1.454-0.104,2.179-0.324c3.964-1.202,6.203-5.39,5.001-9.354  c-1.565-5.164-3.647-10.188-6.188-14.932c-1.956-3.652-6.501-5.026-10.152-3.071s-5.026,6.5-3.071,10.151  C317.567,326.472,319.269,330.577,320.548,334.798z"/>
<path d="M287.789,294.945c3.878,2.066,7.574,4.533,10.984,7.331c1.396,1.146,3.079,1.702,4.753,1.702  c2.168,0,4.32-0.936,5.803-2.743c2.627-3.202,2.161-7.928-1.041-10.555c-4.173-3.424-8.696-6.442-13.444-8.974  c-3.654-1.946-8.198-0.564-10.146,3.092C282.75,288.454,284.134,292.997,287.789,294.945z"/>
<path d="M248.632,287.395c0.244,0,0.491-0.013,0.739-0.036c4.373-0.428,8.861-0.429,13.231-0.003  c4.129,0.408,7.79-2.614,8.192-6.738c0.401-4.122-2.615-7.79-6.738-8.191c-5.336-0.519-10.808-0.518-16.146,0.003  c-4.123,0.403-7.138,4.072-6.734,8.194C241.555,284.498,244.818,287.395,248.632,287.395z"/>
<path d="M208.449,304c1.675,0,3.36-0.558,4.755-1.704c3.409-2.799,7.104-5.269,10.983-7.339c3.654-1.95,5.036-6.493,3.085-10.147  c-1.951-3.656-6.494-5.039-10.148-3.085c-4.748,2.533-9.27,5.555-13.44,8.979c-3.201,2.628-3.665,7.354-1.037,10.556  C204.131,303.065,206.281,304,208.449,304z"/>
<path d="M182.085,339.828c0.725,0.22,1.457,0.324,2.177,0.324c3.218,0,6.194-2.089,7.175-5.328c1.278-4.22,2.978-8.326,5.053-12.203  c1.955-3.651,0.579-8.196-3.073-10.151c-3.65-1.956-8.196-0.579-10.151,3.073c-2.541,4.746-4.621,9.771-6.185,14.934  C175.881,334.441,178.121,338.628,182.085,339.828z"/>
<path d="M173.919,362.462c0.517,5.371,1.561,10.703,3.103,15.849c0.974,3.25,3.954,5.349,7.181,5.349  c0.713,0,1.438-0.103,2.156-0.317c3.968-1.189,6.22-5.37,5.031-9.338c-1.262-4.211-2.117-8.578-2.541-12.979  c-0.396-4.123-4.059-7.142-8.184-6.747C176.543,354.675,173.522,358.339,173.919,362.462z"/>
<path d="M192.128,406.723c1.727,2.11,3.589,4.167,5.535,6.113c1.465,1.465,3.384,2.197,5.304,2.197c1.919,0,3.838-0.732,5.303-2.196  c2.929-2.929,2.93-7.677,0.001-10.606c-1.596-1.596-3.121-3.28-4.535-5.008c-2.624-3.204-7.349-3.678-10.554-1.054  C189.977,398.792,189.505,403.518,192.128,406.723z"/>
<path d="M263.5,153.023V136c0-4.143-3.357-7.5-7.5-7.5c-4.142,0-7.5,3.357-7.5,7.5v17.023c-4.479,2.595-7.5,7.428-7.5,12.977  c0,8.284,6.716,15,15,15s15-6.716,15-15C271,160.451,267.979,155.618,263.5,153.023z"/>
<g>
</g>
<g>
</g>
<g>
</g>
<g>
</g>
<g>
</g>
<g>
</g>
<g>
</g>
<g>
</g>
<g>
</g>
<g>
</g>
<g>
</g>
<g>
</g>
<g>
</g>
<g>
</g>
<g>
</g>
</svg>
