<?xml version="1.0" encoding="iso-8859-1"?>
<!-- Generator: Adobe Illustrator 19.0.0, SVG Export Plug-In . SVG Version: 6.00 Build 0)  -->
<svg xmlns="http://www.w3.org/2000/svg" xmlns:xlink="http://www.w3.org/1999/xlink" version="1.1" id="Capa_1" x="0px" y="0px" viewBox="0 0 512 512" style="enable-background:new 0 0 512 512;" xml:space="preserve">
<circle style="fill:#C98A2E;" cx="256" cy="36.75" r="29.25"/>
<path style="fill:#D5A150;" d="M226.75,36.75c0,2.724,0.38,5.357,1.077,7.859c2.814,0.9,5.811,1.391,8.923,1.391  C252.904,46,266,32.904,266,16.75c0-2.724-0.38-5.357-1.077-7.859C262.11,7.991,259.113,7.5,256,7.5  C239.846,7.5,226.75,20.596,226.75,36.75z"/>
<path style="fill:#AD712C;" d="M449.19,338.563c-0.847-1.202-1.733-2.36-2.654-3.5c-35.493-43.917-55.059-97.463-55.538-153.923  c0-0.046,0.002-0.093,0.002-0.139c0-74.559-60.442-135-135-135s-135,60.441-135,135c-0.448,56.511-20.015,110.109-55.536,154.063  c-0.921,1.14-1.807,2.298-2.654,3.5C52.127,353.724,46,376.481,46,401l0,0c130.693,72.192,289.306,72.192,420,0l0,0  C466,376.481,459.873,353.724,449.19,338.563z"/>
<path style="fill:#C98A2E;" d="M62.81,371.139c4.744-3.219,10.624-5.958,17.977-8.372c10.766-3.535,25.504-6.617,43.808-9.159  C159.916,348.702,206.583,346,256,346c12.421,0,24.667,0.171,36.602,0.505c21.136,0.591,34.531-22.443,23.584-40.533  c-0.064-0.106-0.127-0.21-0.188-0.312c-22.445-37.529-34.624-80.124-35.001-124.521c0-0.046,0.002-0.093,0.002-0.139  c0-25.852-7.267-50.005-19.869-70.53c-27.487-44.767-92.774-44.767-120.261,0C128.267,130.995,121,155.148,121,181  c-0.448,56.511-20.015,110.109-55.536,154.063c-0.921,1.14-1.807,2.298-2.654,3.5C52.127,353.724,46,376.481,46,401  C46,389.273,52.127,378.39,62.81,371.139z"/>
<ellipse transform="matrix(-0.7071 -0.7071 0.7071 -0.7071 207.8189 348.0824)" style="fill:#D5A150;" cx="176" cy="131.001" rx="24.731" ry="39.57"/>
<g style="opacity:0.5;">
	<path style="fill:#915729;" d="M184,283.5h-10c-4.143,0-7.5-3.358-7.5-7.5s3.357-7.5,7.5-7.5h10c4.143,0,7.5,3.358,7.5,7.5   S188.143,283.5,184,283.5z"/>
	<path style="fill:#915729;" d="M338,283.5h-10c-4.143,0-7.5-3.358-7.5-7.5s3.357-7.5,7.5-7.5h10c4.143,0,7.5,3.358,7.5,7.5   S342.143,283.5,338,283.5z"/>
</g>
<ellipse style="fill:#915729;" cx="256" cy="401" rx="200" ry="35"/>
<rect x="241" y="366" style="fill:#C98A2E;" width="30" height="33.25"/>
<path style="fill:#AD712C;" d="M449.19,371.139c-4.744-3.219-10.624-5.958-17.977-8.372c-10.766-3.535-25.504-6.617-43.808-9.159  C352.084,348.702,305.417,346,256,346s-96.084,2.702-131.406,7.607c-18.303,2.542-33.042,5.624-43.808,9.159  c-7.353,2.414-13.233,5.153-17.977,8.372C52.127,378.39,46,389.273,46,401s6.127,22.61,16.81,29.861  c4.744,3.219,10.624,5.958,17.977,8.372c10.766,3.535,25.504,6.617,43.808,9.159C159.916,453.298,206.583,456,256,456  s96.084-2.702,131.406-7.607c18.303-2.542,33.042-5.624,43.808-9.159c7.353-2.414,13.233-5.153,17.977-8.372  C459.873,423.61,466,412.727,466,401S459.873,378.39,449.19,371.139z M256,426c-99.411,0-180-11.193-180-25s80.589-25,180-25  s180,11.193,180,25S355.411,426,256,426z"/>
<circle style="fill:#C98A2E;" cx="256" cy="450.25" r="54.25"/>
<path style="fill:#D5A150;" d="M201.75,450.25c0,6.277,1.078,12.298,3.039,17.906c7.593,4.044,16.257,6.344,25.461,6.344  c29.961,0,54.25-24.289,54.25-54.25c0-6.277-1.078-12.299-3.039-17.906C273.867,398.3,265.204,396,256,396  C226.039,396,201.75,420.289,201.75,450.25z"/>
<ellipse transform="matrix(-0.7071 -0.7071 0.7071 -0.7071 95.8537 896.5101)" style="fill:#E1B872;" cx="233.6" cy="428.403" rx="16.785" ry="26.856"/>
<path d="M455.32,334.241c-0.902-1.28-1.868-2.555-2.951-3.893c-34.76-43.012-53.387-94.6-53.87-149.187L398.5,181  c0-67.651-48.068-126.407-114.296-139.708c-16.225-3.258-33.269-3.648-49.696-1.175c-0.171-1.105-0.258-2.229-0.258-3.367  C234.25,24.757,244.007,15,256,15c7.832,0,15.095,4.241,18.953,11.069c2.037,3.605,6.614,4.876,10.219,2.84  c3.606-2.037,4.878-6.613,2.84-10.219C281.497,7.162,269.231,0,256,0c-20.264,0-36.75,16.486-36.75,36.75  c0,2.165,0.196,4.298,0.563,6.395C157.742,59.393,113.5,116.097,113.5,180.94c-0.434,54.673-19.061,106.338-53.869,149.407  c-1.083,1.34-2.049,2.613-2.953,3.895C45.126,350.639,38.5,374.971,38.5,401c0,14.252,7.325,27.397,20.099,36.067  c5.332,3.618,11.824,6.657,19.848,9.292c11.193,3.675,26.372,6.858,45.116,9.462c14.179,1.969,30.231,3.599,47.708,4.845  c0.182,0.013,0.362,0.019,0.541,0.019c3.899,0,7.191-3.017,7.473-6.967c0.294-4.132-2.816-7.72-6.948-8.015  c-17.146-1.222-32.862-2.816-46.712-4.739c-17.857-2.48-32.156-5.46-42.5-8.856c-6.677-2.192-11.945-4.63-16.104-7.451  C58.428,418.823,53.5,410.201,53.5,401s4.928-17.823,13.521-23.655c4.16-2.822,9.428-5.26,16.105-7.452  c10.343-3.396,24.642-6.376,42.5-8.856c34.994-4.86,81.295-7.537,130.374-7.537s95.38,2.677,130.374,7.536  c17.858,2.48,32.157,5.46,42.5,8.856c6.679,2.192,11.946,4.63,16.104,7.451c8.593,5.833,13.521,14.455,13.521,23.656  s-4.929,17.823-13.521,23.655c-4.158,2.822-9.426,5.26-16.104,7.452c-10.343,3.396-24.642,6.376-42.499,8.856  c-13.827,1.92-29.525,3.513-46.659,4.735c-4.131,0.295-7.241,3.884-6.947,8.016c0.295,4.133,3.896,7.243,8.016,6.947  c17.465-1.247,33.498-2.875,47.654-4.841c18.743-2.604,33.923-5.787,45.115-9.462c8.024-2.635,14.518-5.675,19.849-9.293  C466.175,428.397,473.5,415.252,473.5,401C473.5,374.971,466.874,350.639,455.32,334.241z M453.402,364.933  c-5.331-3.617-11.824-6.657-19.849-9.292c-11.192-3.675-26.372-6.858-45.116-9.462c-35.656-4.952-82.69-7.679-132.438-7.679  s-96.781,2.727-132.438,7.679c-18.744,2.604-33.923,5.787-45.116,9.462c-8.023,2.635-14.516,5.674-19.849,9.293  c-0.013,0.009-0.025,0.019-0.038,0.027c2.572-8.451,6.072-15.964,10.379-22.076c0.711-1.008,1.482-2.024,2.358-3.108  C108.259,294.042,128.039,239.158,128.5,181c0-60.532,43.003-113.104,102.251-125.002c0.013-0.003,0.027-0.005,0.04-0.008  c0.008-0.001,0.017-0.003,0.025-0.004c16.494-3.302,33.949-3.298,50.435,0.013c59.247,11.898,102.249,64.469,102.25,124.912  l-0.004,0.18l0.001,0.111c0.493,58.044,20.274,112.878,57.207,158.577c0.874,1.081,1.645,2.097,2.354,3.104  c4.307,6.113,7.807,13.626,10.38,22.076C453.427,364.951,453.415,364.941,453.402,364.933z"/>
<path d="M336.383,430.893c29.963-2.063,55.348-5.249,73.41-9.211C433.42,416.5,443.5,410.314,443.5,401  c0-10.518-14.025-15.123-19.306-16.856c-9.49-3.116-22.909-5.893-39.884-8.25c-34.328-4.768-79.897-7.394-128.31-7.394  c-48.414,0-93.982,2.626-128.311,7.394c-16.974,2.357-30.393,5.134-39.883,8.25C82.525,385.877,68.5,390.482,68.5,401  c0,9.314,10.081,15.5,33.707,20.682c18.063,3.962,43.448,7.147,73.411,9.211c4.125,0.274,7.713-2.835,7.998-6.967  c0.285-4.133-2.835-7.713-6.967-7.998c-58.197-4.008-82.9-10.981-90.844-14.929c5.877-2.918,20.82-7.415,50.968-11.171  c27.134-3.381,60.86-5.499,96.728-6.127v9.062c-22.951,9.015-39.25,31.376-39.25,57.487c0,34.049,27.701,61.75,61.75,61.75  s61.75-27.701,61.75-61.75c0-26.111-16.299-48.472-39.25-57.487v-9.062c35.869,0.628,69.595,2.746,96.728,6.127  c30.148,3.756,45.092,8.253,50.969,11.171c-7.943,3.947-32.646,10.921-90.845,14.929c-4.132,0.285-7.251,3.865-6.967,7.998  c0.272,3.957,3.567,6.984,7.475,6.984C336.033,430.91,336.207,430.904,336.383,430.893z M302.75,450.25  c0,25.778-20.972,46.75-46.75,46.75s-46.75-20.972-46.75-46.75S230.222,403.5,256,403.5S302.75,424.472,302.75,450.25z   M263.5,388.972c-2.461-0.299-4.96-0.472-7.5-0.472s-5.039,0.172-7.5,0.472v-5.448c2.494-0.015,4.993-0.024,7.5-0.024  c2.507,0,5.006,0.009,7.5,0.024V388.972z"/>
<circle cx="206" cy="256" r="15"/>
<circle cx="306" cy="256" r="15"/>
<g>
</g>
<g>
</g>
<g>
</g>
<g>
</g>
<g>
</g>
<g>
</g>
<g>
</g>
<g>
</g>
<g>
</g>
<g>
</g>
<g>
</g>
<g>
</g>
<g>
</g>
<g>
</g>
<g>
</g>
</svg>
