<?xml version="1.0" encoding="iso-8859-1"?>
<!-- Generator: Adobe Illustrator 19.0.0, SVG Export Plug-In . SVG Version: 6.00 Build 0)  -->
<svg xmlns="http://www.w3.org/2000/svg" xmlns:xlink="http://www.w3.org/1999/xlink" version="1.1" id="Capa_1" x="0px" y="0px" viewBox="0 0 512 512" style="enable-background:new 0 0 512 512;" xml:space="preserve">
<path style="fill:#C1BDAB;" d="M452.65,123.176C452.65,187.063,364.607,226,256,226S59.35,187.063,59.35,123.176  S147.393,7.5,256,7.5S452.65,59.29,452.65,123.176z"/>
<path style="fill:#D5D2BD;" d="M256,7.5C147.393,7.5,59.35,59.29,59.35,123.176c0-17.962,19.235-39.179,50.199-55.369  C148.26,47.566,200.271,36.419,256,36.419s107.74,11.147,146.451,31.389c30.964,16.19,50.199,37.407,50.199,55.369  C452.65,59.29,364.607,7.5,256,7.5z"/>
<path style="fill:#C1BDAB;" d="M315.436,381.316H255l-30,56.018L255,485c42.255,0,81.842-11.406,115.869-31.291  C362.573,422.923,342.342,397.033,315.436,381.316z"/>
<path style="fill:#D5D2BD;" d="M194.564,381.316c-26.906,15.717-47.137,41.607-55.433,72.393C173.158,473.594,212.745,485,255,485  V381.316H194.564z"/>
<path style="fill:#C1BDAB;" d="M166.719,467.429c7.882,3.281,15.984,6.137,24.281,8.537v-32.678c0-0.064,0-0.127,0-0.191  c-0.022-7.386-9.893-9.992-13.637-3.625C172.352,447.993,168.703,457.41,166.719,467.429z"/>
<path style="fill:#ADA999;" d="M343.295,467.43c-7.882,3.281-15.984,6.137-24.281,8.537V443.29c0-0.064,0-0.127,0-0.191  c0.022-7.386,9.893-9.992,13.637-3.625C337.663,447.994,341.311,457.412,343.295,467.43z"/>
<path style="fill:#3E474C;" d="M255,381.316c0,12.426,10.073,22.5,22.5,22.5h18.637c9.447,0,18.317,3.387,24.97,9.529l0.13,0.121  c4.335,4.037,9.838,6.034,15.33,6.034c5.384,0,10.749-1.935,14.993-5.739c-9.69-13.113-21.982-24.186-36.122-32.446L255,381.316  L255,381.316z"/>
<path style="fill:#4E565A;" d="M158.439,413.765c8.572,7.681,21.739,7.695,30.325-0.3l0.123-0.114  c6.659-6.149,15.529-9.536,24.977-9.536H232.5c12.426,0,22.5-10.073,22.5-22.5l0,0h-60.436  C180.422,389.576,168.129,400.65,158.439,413.765z"/>
<g>
	<path style="fill:#ADA999;" d="M255,396l-40-39v60.066c0,7.054,8.617,10.587,13.657,5.599L255,396z"/>
	<path style="fill:#ADA999;" d="M255,396l40-39v60.066c0,7.054-8.617,10.587-13.657,5.599L255,396z"/>
</g>
<path style="fill:#D5A150;" d="M411,211c-7.335,0-14.254,1.766-20.373,4.88c-7.301-27.619-21.683-53.954-40.887-74.87  L125.07,329.204c3.749,15.282,8.689,28.247,14.88,34.235C162.754,385.497,217.166,396,256.244,396s93.002-10.503,115.806-32.561  c10.288-9.951,17.127-39.157,20.774-66.274C398.384,299.624,404.53,301,411,301c24.853,0,45-20.147,45-45S435.853,211,411,211z"/>
<path style="fill:#E1B872;" d="M349.741,141.01l-183.022-4.675c-21.438,21.594-37.491,49.826-45.347,79.545  C115.254,212.766,108.335,211,101,211c-24.853,0-45,20.147-45,45s20.147,45,45,45c6.47,0,12.616-1.376,18.176-3.835  c1.453,10.799,3.413,21.925,5.894,32.038C151.848,343.919,194.19,351,226.244,351c39.078,0,93.002-10.503,115.806-32.561  C358.355,302.668,366,238.528,366,211C366,187.328,360.112,163.16,349.741,141.01z"/>
<circle style="fill:#C98A2E;" cx="411" cy="256" r="15"/>
<g>
	<circle style="fill:#D5A150;" cx="101" cy="256" r="15"/>
	<path style="fill:#D5A150;" d="M344.66,166H143.196c-7.382,11.692-13.458,24.284-17.982,37.319   c16.868,17.695,51.284,29.792,98.865,33.87c10.157,0.87,20.649,1.312,31.183,1.312l0.964-0.001   c35.576-0.092,78.195-5.426,107.36-19.149C360.306,200.9,353.785,182.721,344.66,166z"/>
</g>
<path style="fill:#6D5B4D;" d="M375.091,176.538c-2.29-4.263-11.964-15.217-11.964-15.217  c-12.404-15.776-37.854-7.203-38.032,12.866c-0.002,0.271-0.004,0.542-0.004,0.813c0,25.573,10.671,48.646,27.8,65.026  c4.996,4.778,13.234,3.124,16.03-3.198c4.197-9.493,11.582-17.259,20.798-21.949C391.636,199.513,380.364,186.357,375.091,176.538z"/>
<path style="fill:#827061;" d="M134.909,176.538c2.29-4.263,11.964-15.217,11.964-15.217c12.404-15.776,37.854-7.203,38.032,12.866  c0.002,0.271,0.004,0.542,0.004,0.813c0,25.573-10.671,48.646-27.8,65.026c-4.996,4.778-13.234,3.124-16.03-3.198  c-4.197-9.493-11.582-17.259-20.798-21.949C118.364,199.513,129.636,186.357,134.909,176.538z"/>
<path style="fill:#ADA999;" d="M254.832,105.001C188.558,105.172,134.907,123.08,135,145l0,0v30h120h120v-30  C374.907,123.08,321.106,104.83,254.832,105.001z"/>
<path style="fill:#4E565A;" d="M135,175L135,175c0.078,18.474,38.307,34.341,90,38.771v-77.455  C173.18,140.836,134.922,156.487,135,175z"/>
<path style="fill:#3E474C;" d="M254.832,135.001c-10.301,0.027-20.296,0.482-29.832,1.314v77.455  c9.641,0.826,19.75,1.255,30.168,1.228C321.442,214.828,375.093,196.92,375,175l0,0C374.907,153.08,321.106,134.83,254.832,135.001z  "/>
<path style="fill:#5F6568;" d="M195,209.656c17.653,3.431,38.145,5.388,60,5.342v-79.997c-0.056,0-0.112,0-0.168,0  c-21.798,0.056-42.229,2.032-59.832,5.437V209.656z"/>
<path d="M411,203.5c-4.021,0-7.957,0.456-11.791,1.339c39.37-19.879,60.941-48.66,60.941-81.662  c0-33.665-21.769-65.009-61.295-88.26C360.578,12.4,309.844,0,256,0S151.422,12.4,113.145,34.917  c-39.527,23.25-61.295,54.595-61.295,88.26c0,33.003,21.57,61.783,60.939,81.662c-3.833-0.883-7.769-1.338-11.789-1.338  c-28.949,0-52.5,23.551-52.5,52.5c0,24.831,17.633,46.462,41.928,51.434c0.507,0.104,1.013,0.154,1.511,0.154  c3.488,0,6.613-2.447,7.34-5.998c0.831-4.058-1.786-8.021-5.844-8.851c-17.345-3.55-29.935-19-29.935-36.738  c0-20.678,16.822-37.5,37.5-37.5c5.496,0,10.773,1.177,15.718,3.472l1.163,0.592c7.696,3.917,13.854,10.415,17.34,18.298  c2.303,5.209,7.016,8.98,12.607,10.089c1.128,0.224,2.265,0.333,3.395,0.333c4.455,0,8.797-1.705,12.071-4.836  c9.076-8.68,16.449-19.148,21.588-30.56c9.291,2.212,19.044,3.906,28.693,5.113H191c-4.142,0-7.5,3.358-7.5,7.5s3.358,7.5,7.5,7.5  h30c4.142,0,7.5-3.358,7.5-7.5c0-2.631-1.358-4.942-3.408-6.281c0.089,0.008,0.179,0.016,0.268,0.024  c9.738,0.834,19.794,1.257,29.908,1.257c0.306,0,0.614,0,0.92-0.001c10.636-0.028,20.97-0.498,30.856-1.362  c-2.125,1.324-3.544,3.675-3.544,6.363c0,4.142,3.357,7.5,7.5,7.5h30c4.143,0,7.5-3.358,7.5-7.5s-3.357-7.5-7.5-7.5h-23.062  c10.406-1.264,20.199-2.985,29.179-5.115c5.139,11.412,12.512,21.88,21.588,30.562c3.275,3.132,7.616,4.836,12.072,4.836  c1.129,0,2.267-0.109,3.396-0.333c5.591-1.108,10.303-4.88,12.605-10.088c3.485-7.883,9.644-14.381,17.34-18.297l1.183-0.602  c4.938-2.289,10.21-3.462,15.698-3.462c20.678,0,37.5,16.822,37.5,37.5c0,17.738-12.589,33.189-29.935,36.738  c-4.058,0.831-6.674,4.793-5.844,8.851c0.727,3.551,3.852,5.998,7.34,5.998c0.498,0,1.004-0.05,1.512-0.154  C445.867,302.462,463.5,280.831,463.5,256C463.5,227.051,439.948,203.5,411,203.5z M66.85,123.176  c0-14.932,18.125-34.056,46.174-48.722c25.766-13.472,58.242-22.98,93.918-27.497c4.109-0.52,7.019-4.273,6.499-8.382  s-4.273-7.021-8.382-6.499c-37.427,4.738-71.655,14.795-98.984,29.085c-4.763,2.49-9.245,5.091-13.451,7.774  c7.748-7.554,17.158-14.637,28.128-21.09C156.757,26.665,204.79,15,256,15s99.243,11.665,135.25,32.845  c10.97,6.453,20.38,13.535,28.128,21.089c-4.206-2.683-8.688-5.283-13.451-7.774c-27.33-14.29-61.559-24.347-98.984-29.085  c-4.112-0.519-7.863,2.389-8.383,6.499c-0.521,4.109,2.389,7.862,6.498,8.382c35.676,4.517,68.152,14.025,93.918,27.497  c28.051,14.666,46.175,33.791,46.175,48.722c0,33.708-27.037,55.287-52.357,68.107c-2.034-4.059-4.322-7.755-6.35-11.016  c-1.06-1.706-2.076-3.339-2.943-4.843v-29.456C383.369,115.069,318.242,98.5,256.695,98.5c-0.291,0-0.592,0-0.883,0.001  c-54.581,0.141-101.347,11.809-119.142,29.726c-5.449,5.485-8.198,11.476-8.171,17.773v29.426c-0.867,1.503-1.882,3.136-2.942,4.84  c-2.028,3.261-4.317,6.957-6.351,11.017C93.887,178.464,66.85,156.884,66.85,123.176z M152.926,235.606  c-0.801,0.766-1.711,0.725-2.182,0.63c-0.478-0.095-1.348-0.408-1.805-1.44c-4.271-9.662-11.41-17.836-20.349-23.397  c0.298-6.53,3.474-12.871,6.979-18.76c7.361,8.058,19.873,14.401,34.662,19.176C165.945,220.664,160.058,228.786,152.926,235.606z   M256.149,208.499c-9.988,0.03-19.913-0.379-29.509-1.201c-17.258-1.479-31.698-4.062-43.457-7.21  c-0.063-0.025-0.123-0.056-0.187-0.08c-0.497-0.183-1.002-0.308-1.506-0.382c-25.686-7.153-37.962-17.013-37.99-23.658  c-0.029-6.79,12.6-16.916,40.879-24.233c4.01-1.038,6.419-5.129,5.382-9.14c-1.038-4.011-5.134-6.421-9.14-5.382  c-15.855,4.103-28.345,9.33-37.121,15.415v-6.66c-0.009-2.201,1.273-4.614,3.813-7.171c11.997-12.08,51.08-25.148,108.538-25.296  c0.314-0.001,0.623-0.001,0.937-0.001c68.14,0,111.655,19.211,111.712,32.5v6.652c-22.814-15.834-68.204-24.152-111.805-24.152  c-0.291,0-0.592,0-0.883,0.001c-10.31,0.027-20.56,0.479-30.465,1.343c-4.605,0.402-9.255,0.909-13.82,1.506  c-4.107,0.537-7.001,4.302-6.464,8.409c0.538,4.107,4.3,7.007,8.409,6.464c4.353-0.569,8.787-1.052,13.179-1.436  c9.486-0.828,19.31-1.26,29.2-1.286c0.314-0.001,0.623-0.001,0.937-0.001c68.14,0,111.655,19.211,111.712,32.532  c0.01,2.201-1.273,4.614-3.813,7.171C352.689,195.282,313.606,208.351,256.149,208.499z M363.061,234.796  c-0.457,1.032-1.326,1.345-1.805,1.44c-0.472,0.093-1.382,0.136-2.183-0.63c-7.131-6.821-13.019-14.942-17.305-23.791  c14.863-4.812,26.499-10.932,33.561-18.042c0.378-0.381,0.74-0.764,1.092-1.15c3.509,5.893,6.69,12.24,6.989,18.776  C374.471,216.96,367.332,225.134,363.061,234.796z"/>
<circle cx="206" cy="256" r="15"/>
<circle cx="306" cy="256" r="15"/>
<path d="M256,90.938c9.444,0,18.888-3.306,26.077-9.918c3.049-2.804,3.247-7.549,0.443-10.598  c-2.804-3.048-7.548-3.247-10.598-0.443c-2.455,2.258-5.348,3.861-8.423,4.856V60.5h5c4.142,0,7.5-3.358,7.5-7.5s-3.358-7.5-7.5-7.5  h-5V45c0-4.142-3.358-7.5-7.5-7.5s-7.5,3.358-7.5,7.5v0.5h-5c-4.142,0-7.5,3.358-7.5,7.5s3.358,7.5,7.5,7.5h5v14.336  c-3.075-0.995-5.968-2.598-8.423-4.856c-3.049-2.803-7.793-2.605-10.598,0.443c-2.804,3.049-2.605,7.793,0.443,10.598  C237.112,87.632,246.556,90.938,256,90.938z"/>
<path d="M271.91,292.803c2.929-2.929,2.929-7.678-0.001-10.607c-2.928-2.929-7.677-2.928-10.606,0  c-1.416,1.417-3.3,2.197-5.303,2.197s-3.887-0.78-5.303-2.197c-2.929-2.928-7.678-2.929-10.606,0  c-2.93,2.929-2.93,7.678-0.001,10.607c4.25,4.25,9.9,6.59,15.91,6.59S267.66,297.053,271.91,292.803z"/>
<circle cx="228.25" cy="451.5" r="7.5"/>
<circle cx="281.75" cy="451.5" r="7.5"/>
<path d="M415.5,256c0,4.142,3.357,7.5,7.5,7.5s7.5-3.358,7.5-7.5c0-12.407-10.094-22.5-22.5-22.5s-22.5,10.093-22.5,22.5  c0,10.231-0.262,23.922-2.306,39.115c0,0.003,0,0.006-0.001,0.009c-0.001,0.006-0.002,0.011-0.003,0.017  c-4.126,31.518-11.138,55.517-18.299,62.632C344.805,377.731,293.92,388.5,256.24,388.5c-37.913,0-89.045-10.769-109.131-30.727  c-2.558-2.541-7.599-9.95-12.632-31.021c-2.198-9.204-4.154-20.135-5.657-31.61c0-0.004-0.002-0.008-0.002-0.012  c-0.001-0.005-0.001-0.009-0.001-0.014c-2.053-15.263-2.316-28.921-2.316-39.115c0-12.407-10.093-22.5-22.5-22.5  S81.5,243.593,81.5,256c0,4.142,3.358,7.5,7.5,7.5s7.5-3.358,7.5-7.5c0-4.136,3.364-7.5,7.5-7.5s7.5,3.364,7.5,7.5  c0,10.655,0.278,24.953,2.447,41.088v0.001c0,0.001,0,0.003,0.001,0.004c0.001,0.007,0.002,0.015,0.003,0.022  c0,0.001,0,0.003,0.001,0.004c1.591,12.143,3.588,23.285,5.936,33.117c4.559,19.088,10.005,31.576,16.649,38.178  c8.463,8.409,20.648,15.216,34.646,20.522c-18.964,16.561-32.718,38.425-39.292,62.822c-1.078,3.999,1.291,8.115,5.291,9.193  c0.653,0.176,1.31,0.26,1.956,0.26c3.307,0,6.336-2.205,7.237-5.551c3.034-11.261,7.806-21.91,14.061-31.6  c4.109,1.995,8.557,2.992,13.004,2.992c7.323,0,14.643-2.703,20.43-8.09l0.108-0.101c3.754-3.466,8.42-5.816,13.524-6.885v5.09  c0,6.229,3.73,11.809,9.503,14.218c1.944,0.811,3.98,1.207,6,1.207c4.021,0,7.975-1.57,10.989-4.554l13.508-13.673V504.5  c0,4.142,3.358,7.5,7.5,7.5c4.143,0,7.5-3.358,7.5-7.5v-90.237l13.567,13.733c2.971,2.941,6.903,4.497,10.915,4.497  c2.022,0,4.065-0.396,6.015-1.209c5.772-2.409,9.503-7.989,9.503-14.217v-5.091c5.102,1.068,9.765,3.415,13.512,6.874l0.113,0.104  c5.571,5.188,12.83,8.046,20.44,8.046c4.534,0,8.959-1.028,12.975-2.959c6.267,9.701,11.052,20.357,14.088,31.62  c0.901,3.346,3.93,5.55,7.236,5.55c0.646,0,1.303-0.084,1.956-0.26c4-1.078,6.368-5.194,5.29-9.193  c-4.132-15.335-11.113-29.684-20.443-42.343c-0.04-0.056-0.083-0.111-0.125-0.167c-5.309-7.179-11.376-13.811-18.109-19.769  c14.56-5.382,27.274-12.364,36.031-21.065c12.6-12.519,19.244-45.697,22.6-71.325c0-0.004,0-0.007,0.001-0.011  c2.158-16.06,2.436-30.387,2.436-41.078c0-4.136,3.364-7.5,7.5-7.5S415.5,251.864,415.5,256z M183.784,407.855l-0.13,0.121  c-3.861,3.596-9.079,4.792-13.85,3.589c5.465-6.337,11.653-12.081,18.466-17.11c4.57,1.252,9.233,2.376,13.948,3.362  C195.331,399.625,189.007,403.032,183.784,407.855z M223.381,417.334c-0.113,0.112-0.252,0.252-0.602,0.105  c-0.279-0.116-0.279-0.225-0.279-0.374v-15.831c5.14,0.668,10.243,1.185,15.25,1.555L223.381,417.334z M287.221,417.44  c-0.348,0.146-0.49,0.006-0.543-0.046l-14.269-14.444c4.943-0.326,9.995-0.801,15.092-1.423v15.539  C287.5,417.215,287.5,417.324,287.221,417.44z M340.168,411.546c-1.17,0.291-2.377,0.454-3.602,0.454  c-3.804,0-7.433-1.429-10.235-4.039l-0.137-0.126c-4.968-4.587-10.94-7.897-17.45-9.761c4.577-0.938,9.115-1.998,13.567-3.187  C328.883,399.805,334.863,405.398,340.168,411.546z"/>
<path d="M329.526,433.557c-3.559,2.12-4.725,6.724-2.604,10.282C334.496,456.55,338.5,471.129,338.5,486c0,4.142,3.357,7.5,7.5,7.5  s7.5-3.358,7.5-7.5c0-17.573-4.734-34.807-13.691-49.839C337.688,432.602,333.084,431.437,329.526,433.557z"/>
<path d="M182.474,433.557c-3.56-2.122-8.162-0.955-10.282,2.604C163.234,451.192,158.5,468.426,158.5,486c0,4.142,3.358,7.5,7.5,7.5  s7.5-3.358,7.5-7.5c0-14.872,4.003-29.45,11.578-42.161C187.198,440.281,186.032,435.678,182.474,433.557z"/>
<g>
</g>
<g>
</g>
<g>
</g>
<g>
</g>
<g>
</g>
<g>
</g>
<g>
</g>
<g>
</g>
<g>
</g>
<g>
</g>
<g>
</g>
<g>
</g>
<g>
</g>
<g>
</g>
<g>
</g>
</svg>
