<?xml version="1.0" encoding="iso-8859-1"?>
<!-- Generator: Adobe Illustrator 19.0.0, SVG Export Plug-In . SVG Version: 6.00 Build 0)  -->
<svg xmlns="http://www.w3.org/2000/svg" xmlns:xlink="http://www.w3.org/1999/xlink" version="1.1" id="Capa_1" x="0px" y="0px" viewBox="0 0 512 512" style="enable-background:new 0 0 512 512;" xml:space="preserve">
<path style="fill:#5F6568;" d="M256,86c-11.046,0-20,8.954-20,20v40h20h20v-40C276,94.954,267.046,86,256,86z"/>
<path style="fill:#91928F;" d="M256,146v-40.309c0-12.77-19.227-13.615-19.966-0.866C236.011,105.214,236,105.606,236,106v40"/>
<path style="fill:#5F6568;" d="M386.284,189.965l-242.678,21.578l-17.891,238.992C159.058,483.877,205.121,504.5,256,504.5  c101.758,0,184.25-82.491,184.25-184.25C440.25,269.37,419.627,223.308,386.284,189.965z"/>
<path style="fill:#91928F;" d="M256,136c-101.758,0-184.25,82.491-184.25,184.25c0,50.879,20.623,96.942,53.966,130.285  l260.569-260.57C352.942,156.623,306.879,136,256,136z"/>
<path style="fill:#6F7475;" d="M256,481c-88.776,0-161-72.224-161-161s72.224-161,161-161s161,72.224,161,161S344.776,481,256,481z"/>
<path style="fill:#E7E4CD;" d="M256,459.5c-76.783,0-139.25-62.467-139.25-139.25S179.217,181,256,181s139.25,62.467,139.25,139.25  S332.783,459.5,256,459.5z"/>
<path style="fill:#C1BDAB;" d="M286,211c30.754,0,59.206,10.029,82.272,26.977C342.906,203.454,302.029,181,256,181  c-76.783,0-139.25,62.467-139.25,139.25c0,46.029,22.454,86.906,56.978,112.273c-16.949-23.067-26.978-51.519-26.978-82.273  C146.75,273.467,209.217,211,286,211z"/>
<path style="fill:#8D472E;" d="M311.332,268.909c-1.573-3.033-4.731-4.993-8.045-4.993c-1.82,0-3.615,0.586-5.19,1.696  l-56.75,39.985L245,330.25l25.653,4.653l39.983-56.749C312.617,275.343,312.877,271.887,311.332,268.909z"/>
<path style="fill:#5B5751;" d="M241.347,305.597l-39.983,56.749c-1.98,2.811-2.24,6.266-0.696,9.244  c1.573,3.033,4.731,4.994,8.046,4.994h0.001c1.82,0,3.614-0.587,5.189-1.696l56.75-39.985L241.347,305.597z"/>
<path d="M283.5,130.48V106c0-15.164-12.337-27.5-27.5-27.5c-13.123,0-24.122,9.242-26.846,21.558  c-12.348-8.608-19.904-22.73-19.904-38.308C209.25,35.972,230.222,15,256,15s46.75,20.972,46.75,46.75  c0,9.325-2.735,18.325-7.909,26.028c-2.31,3.438-1.395,8.098,2.044,10.408c3.437,2.31,8.099,1.396,10.407-2.043  c6.842-10.185,10.458-22.078,10.458-34.393C317.75,27.701,290.049,0,256,0s-61.75,27.701-61.75,61.75  c0,23.739,13.286,44.918,34.25,55.302v13.428c-92.749,13.379-164.25,93.375-164.25,189.77c0,45.136,15.988,88.979,45.021,123.45  c2.667,3.168,7.399,3.574,10.567,0.906c3.169-2.668,3.574-7.4,0.905-10.568C93.986,402.267,79.25,361.856,79.25,320.25  c0-97.46,79.29-176.75,176.75-176.75s176.75,79.29,176.75,176.75S353.46,497,256,497c-42.543,0-83.649-15.331-115.746-43.167  c-3.128-2.713-7.864-2.377-10.58,0.752c-2.714,3.129-2.377,7.866,0.752,10.58C165.25,495.367,209.847,512,256,512  c105.731,0,191.75-86.019,191.75-191.75C447.75,223.856,376.249,143.859,283.5,130.48z M243.5,128.918V106  c0-6.893,5.607-12.5,12.5-12.5s12.5,5.607,12.5,12.5v22.918c-4.134-0.267-8.3-0.418-12.5-0.418S247.634,128.651,243.5,128.918z"/>
<path d="M256,467c80.918,0,146.75-65.832,146.75-146.75S336.918,173.5,256,173.5s-146.75,65.832-146.75,146.75S175.082,467,256,467z   M256,188.5c72.647,0,131.75,59.103,131.75,131.75S328.647,452,256,452s-131.75-59.103-131.75-131.75S183.353,188.5,256,188.5z"/>
<path d="M241,260c4.142,0,7.5-3.357,7.5-7.5v-17.615l16.055,21.591c0.179,0.24,0.37,0.466,0.571,0.679  C266.5,258.886,268.618,260,271,260c4.142,0,7.5-3.357,7.5-7.5v-40c0-4.143-3.358-7.5-7.5-7.5s-7.5,3.357-7.5,7.5v17.418  l-15.908-21.394c-0.402-0.541-0.867-1.004-1.371-1.403c-1.35-1.311-3.19-2.121-5.22-2.121c-4.142,0-7.5,3.357-7.5,7.5v40  C233.5,256.643,236.858,260,241,260z"/>
<path d="M258,401.5h-4c-1.378,0-2.5-1.121-2.5-2.5s1.122-2.5,2.5-2.5h8c4.142,0,7.5-3.357,7.5-7.5s-3.358-7.5-7.5-7.5h-8  c-9.649,0-17.5,7.851-17.5,17.5s7.851,17.5,17.5,17.5h4c1.378,0,2.5,1.121,2.5,2.5s-1.122,2.5-2.5,2.5h-14  c-4.142,0-7.5,3.357-7.5,7.5s3.358,7.5,7.5,7.5h14c9.649,0,17.5-7.851,17.5-17.5S267.649,401.5,258,401.5z"/>
<path d="M317.427,316.5c0,15.164,12.336,27.5,27.5,27.5c4.833,0,9.589-1.274,13.755-3.684c3.585-2.074,4.811-6.662,2.737-10.248  c-2.074-3.585-6.661-4.811-10.248-2.737c-1.886,1.091-4.046,1.668-6.245,1.668c-4.081,0-7.711-1.965-9.994-5h29.994  c4.142,0,7.5-3.358,7.5-7.5c0-15.164-12.336-27.5-27.5-27.5S317.427,301.336,317.427,316.5z M344.927,304  c4.081,0,7.711,1.965,9.994,5h-19.988C337.215,305.965,340.846,304,344.927,304z"/>
<path d="M168.539,339.088L174,324.234l5.461,14.854c1.087,2.957,3.901,4.912,7.038,4.912c0.062,0,0.124-0.001,0.187-0.002  c3.211-0.079,6.015-2.195,6.973-5.26l12.5-40c1.236-3.954-0.968-8.16-4.921-9.396c-3.954-1.233-8.16,0.968-9.396,4.921  l-5.918,18.936l-4.885-13.286l-0.004,0.001c-0.733-1.992-2.299-3.663-4.447-4.453c-3.887-1.427-8.197,0.564-9.627,4.452  l-4.885,13.286l-5.918-18.936c-1.235-3.952-5.435-6.157-9.396-4.921c-3.953,1.236-6.157,5.442-4.921,9.396l12.5,40  c0.958,3.065,3.762,5.181,6.973,5.26c0.063,0.001,0.125,0.002,0.187,0.002C164.638,344,167.452,342.044,168.539,339.088z"/>
<path d="M237.369,303.43l-59.625,84.625c-2.102,2.982-1.752,7.043,0.827,9.623c1.452,1.452,3.372,2.197,5.306,2.197  c1.503,0,3.014-0.45,4.317-1.369l84.625-59.625c0.703-0.495,1.316-1.108,1.812-1.811l59.625-84.625  c2.102-2.982,1.752-7.043-0.827-9.623c-2.581-2.58-6.642-2.929-9.623-0.828l-84.625,59.625  C238.478,302.114,237.864,302.727,237.369,303.43z M297.068,279.181l-33.951,48.187l-48.186,33.951l33.951-48.187L297.068,279.181z"/>
<circle cx="256" cy="320" r="7.496"/>
<path d="M326.467,380.143c-2.928-2.93-7.677-2.929-10.606,0s-2.929,7.678,0.001,10.606l12.109,12.109  c1.464,1.465,3.384,2.197,5.303,2.197s3.839-0.732,5.304-2.197c2.929-2.929,2.929-7.678-0.001-10.606L326.467,380.143z"/>
<path d="M185.533,260.42c1.464,1.465,3.384,2.197,5.303,2.197s3.839-0.732,5.304-2.197c2.929-2.929,2.929-7.678-0.001-10.606  l-12.109-12.109c-2.928-2.93-7.677-2.929-10.606,0s-2.929,7.678,0.001,10.606L185.533,260.42z"/>
<g>
</g>
<g>
</g>
<g>
</g>
<g>
</g>
<g>
</g>
<g>
</g>
<g>
</g>
<g>
</g>
<g>
</g>
<g>
</g>
<g>
</g>
<g>
</g>
<g>
</g>
<g>
</g>
<g>
</g>
</svg>
