<?xml version="1.0" encoding="iso-8859-1"?>
<!-- Generator: Adobe Illustrator 19.0.0, SVG Export Plug-In . SVG Version: 6.00 Build 0)  -->
<svg xmlns="http://www.w3.org/2000/svg" xmlns:xlink="http://www.w3.org/1999/xlink" version="1.1" id="Capa_1" x="0px" y="0px" viewBox="0 0 512 512" style="enable-background:new 0 0 512 512;" xml:space="preserve">
<path style="fill:#78ABB1;" d="M501.166,223.656c-0.633-6.075-1.652-11.679-3.026-16.848c-2.666-10.025-6.67-18.412-11.797-25.422  c-5.838-7.982-13.131-14.18-21.561-18.984c-34.286,28.784-227.513,58.887-303.573,80.763l-25.412,122.552  c32.485,0.246,66.816-1.768,97.091,1.187c30.229,2.95,56.415,10.854,72.688,30.904c6.084,7.496,10.782,16.691,13.788,27.959  c3.33,12.485,19.567,15.671,27.826,5.551L492,253.887C498.947,245.376,502.296,234.486,501.166,223.656z"/>
<path style="fill:#B69362;" d="M392.531,146.622l-262.085,26.395c-20.405,2.055-39.927,9.6-56.587,21.724  c-1.702,1.239-3.378,2.409-4.974,3.458c-0.726,0.89-1.451,1.779-2.178,2.669c-12.752,15.624-25.504,31.25-38.256,46.874  l-8.455,10.36c-6.901,8.456-10.288,19.264-9.183,30.027c3.387,32.98,18.093,52.089,39.42,63.087l299.228-133.46  c33.079-14.754,61.911-37.721,83.716-66.687l0,0C420.57,148.434,406.84,147.172,392.531,146.622z"/>
<path style="fill:#A57D48;" d="M118.08,137.923c-3.552,4.352-7.102,8.702-10.653,13.053C94.58,166.717,81.733,182.458,68.886,198.2  c11.634-7.642,22.19-6.998,37.427-1.27c15.538,5.359,35.755,15.802,73.708,19.188c38.925,2.822,81.743-10.04,118.478-24.019  c37.18-14.523,68.276-30.16,94.033-45.477c-26.774-1.03-55.578,0.427-82.853,0.012l-33.063,1.298  c-17.745,0.697-35.303-3.223-50.951-11.374l0,0C192.072,119.058,151.714,119.57,118.08,137.923L118.08,137.923z"/>
<path style="fill:#8D663D;" d="M199.172,103.161c-2.636-4.991-4.812-10.546-6.477-16.728c-3.387-12.576-19.559-15.969-27.884-5.769  c-0.081,0.099-0.162,0.198-0.243,0.297c-4.797,5.877-9.593,11.754-14.39,17.632c-10.7,13.11-21.399,26.22-32.099,39.33  c17.959-6.851,29.793,14.057,77.345,28.29c35.834,8.722,79.107-5.387,114.252-19.579  C261.612,145.903,218.29,139.361,199.172,103.161z"/>
<path style="fill:#C9AD80;" d="M433.177,151.069c11.633,2.432,22.309,6.036,31.604,11.333  c-34.286,28.784-83.941,58.886-160.002,80.763c-112.223,33.855-150.516,89.102-168.983,122.552  c-32.267-0.244-62.714-2.717-85.563-14.501c8.76-19.291,25.408-48.46,51.732-68.713c27.328-21.483,64.333-34.05,136.967-48.513  C325.985,214.765,391.66,179.054,433.177,151.069z"/>
<g>
	<path style="opacity:0.2;fill:#584639;enable-background:new    ;" d="M511.625,222.554c-0.787-6.64-2.023-12.99-3.675-18.876   c-3.187-11.352-8.06-21.466-14.484-30.059c-6.357-8.501-14.395-15.687-23.882-21.429L277.149,391.274   c6.94,3.591,12.535,8.008,16.936,13.323c4.868,5.877,8.404,12.889,10.81,21.435c3.867,13.736,16.151,22.966,30.567,22.968   c0.002,0,0.003,0,0.004,0c9.673,0,18.702-4.326,24.77-11.866l139.406-173.201C508.998,252.311,513.365,237.229,511.625,222.554z"/>
	<path style="opacity:0.2;fill:#584639;enable-background:new    ;" d="M212.406,99.196c-2.122-3.901-3.885-8.298-5.24-13.069   C203.236,72.294,190.895,63,176.458,63c-9.626,0-18.623,4.319-24.622,11.773L12.365,248.055   c-9.331,11.593-13.706,26.593-12.004,41.152c3.227,27.601,14.041,48.937,32.204,63.681l192.179-238.767   C219.601,109.927,215.549,104.976,212.406,99.196z"/>
</g>
<path d="M511.626,222.553c-0.788-6.639-2.024-12.988-3.676-18.875c-3.187-11.354-8.061-21.467-14.485-30.059  c-6.903-9.232-15.769-16.938-26.348-22.9c-1.139-0.642-2.301-1.267-3.455-1.858l-0.093-0.049  c-14.339-7.854-36.375-11.823-38.843-12.25l-0.366-0.055c-2.302-0.282-22.85-2.771-35.515-3.256  c-6.658-0.255-13.978-0.379-22.377-0.379c-8.255,0-16.606,0.116-24.72,0.229c-7.951,0.11-16.173,0.224-24.114,0.225  c-3.664,0-7.034-0.024-10.304-0.073c-54.72-0.83-82.222-10.696-94.925-34.057c-2.123-3.902-3.885-8.3-5.24-13.07  C203.236,72.294,190.895,63,176.458,63c-9.626,0-18.6,4.291-24.622,11.773L12.365,248.055  c-9.331,11.594-13.706,26.593-12.004,41.151c4.078,34.877,20.258,59.763,48.092,73.966c26.684,13.621,61.077,15.69,91.203,15.919  c10.14,0.075,20.537-0.067,30.575-0.207c7.936-0.111,16.143-0.226,24.167-0.226c15.915,0,28.282,0.481,38.921,1.517  c30.079,2.922,49.388,10.682,60.768,24.423c4.868,5.876,8.403,12.887,10.81,21.436c3.868,13.734,16.151,22.964,30.566,22.967h0.005  c9.672,0,18.7-4.325,24.771-11.866l139.406-173.201C508.998,252.31,513.365,237.228,511.626,222.553z M487.958,254.529  l-139.406,173.2c-3.208,3.985-7.978,6.271-13.085,6.271h-0.003c-7.621-0.001-14.103-4.837-16.129-12.032  c-2.985-10.605-7.466-19.418-13.697-26.939c-14.071-16.989-36.59-26.453-70.869-29.783c-11.132-1.083-23.961-1.587-40.373-1.587  c-8.129,0-16.388,0.115-24.4,0.228c-9.931,0.138-20.229,0.282-30.228,0.205c-28.371-0.215-60.597-2.079-84.497-14.279  c-23.091-11.783-36.553-32.76-40.012-62.348c-1.238-10.588,1.966-21.524,8.791-30.005L163.521,84.178  c3.16-3.926,7.875-6.178,12.937-6.178c7.659,0,14.202,4.913,16.279,12.225c1.657,5.834,3.841,11.264,6.492,16.138  c15.677,28.828,46.93,40.965,107.876,41.889c3.346,0.051,6.79,0.075,10.531,0.075c8.045-0.001,16.318-0.115,24.358-0.227  c8.025-0.111,16.324-0.228,24.475-0.228c8.206,0,15.338,0.12,21.804,0.367c11.766,0.45,31.075,2.768,34.071,3.133  c2.228,0.396,22.092,4.048,34.054,10.613l0.382,0.203c0.993,0.508,1.993,1.046,2.974,1.598c8.751,4.933,16.052,11.264,21.699,18.815  c5.314,7.107,9.37,15.563,12.056,25.129c1.441,5.139,2.525,10.721,3.222,16.589C497.998,235.016,494.801,246.027,487.958,254.529z"/>
<path d="M139.958,151.614c1.887,0.996,3.881,2.098,6.016,3.276c10.725,5.922,25.413,14.032,47.597,20.651l0.375,0.102  c7.829,1.901,16.154,2.853,25.079,2.853c11.771,0,24.583-1.657,38.647-4.979c4.031-0.951,6.527-4.991,5.575-9.022  s-4.989-6.535-9.023-5.575c-22.286,5.263-40.787,5.979-56.552,2.192c-20.528-6.146-33.787-13.467-44.447-19.353  c-2.199-1.215-4.276-2.361-6.264-3.411c-3.662-1.932-8.2-0.53-10.134,3.131C134.894,145.142,136.295,149.679,139.958,151.614z"/>
<path d="M180.828,224.549c3.72,0.27,7.461,0.396,11.222,0.396c38.877,0,79.274-13.621,107.27-24.343  c18.29-7.19,36.04-15.057,52.755-23.378c3.708-1.846,5.217-6.349,3.371-10.057c-1.845-3.707-6.349-5.216-10.057-3.371  c-16.325,8.128-33.672,15.814-51.495,22.822c-29.287,11.215-72.742,25.785-111.919,22.974c-28.89-2.584-46.542-9.354-60.725-14.796  c-3.328-1.276-6.473-2.482-9.479-3.519c-2.646-0.988-5.043-1.789-7.328-2.446c-3.981-1.15-8.136,1.151-9.282,5.133  c-1.146,3.98,1.152,8.136,5.133,9.281c1.932,0.557,3.997,1.248,6.311,2.115l0.194,0.069c2.785,0.957,5.842,2.13,9.078,3.371  c14.27,5.475,33.814,12.971,64.827,15.737L180.828,224.549z"/>
<path d="M103.637,286.03c-2.929-2.928-7.678-2.928-10.606,0l-9.697,9.697l-9.697-9.697c-2.929-2.928-7.678-2.928-10.606,0  c-2.929,2.93-2.929,7.678,0,10.607l9.696,9.696l-9.696,9.696c-2.929,2.93-2.929,7.678,0,10.607c1.464,1.464,3.384,2.196,5.303,2.196  s3.839-0.732,5.303-2.196l9.697-9.697l9.697,9.697c1.464,1.464,3.384,2.196,5.303,2.196s3.839-0.732,5.303-2.196  c2.929-2.93,2.929-7.678,0-10.607l-9.696-9.696l9.696-9.696C106.566,293.707,106.566,288.959,103.637,286.03z"/>
<path d="M129.246,259.173c-1.156,0.569-2.293,1.145-3.417,1.728c-1.193,0.62-2.367,1.249-3.522,1.886  c-3.385,1.867-4.616,6.125-2.75,9.511c1.276,2.313,3.668,3.62,6.136,3.62c1.143,0,2.302-0.28,3.374-0.871  c1.055-0.582,2.128-1.156,3.215-1.722c1.033-0.536,2.081-1.066,3.147-1.591c3.468-1.708,4.896-5.903,3.188-9.372  C136.91,258.893,132.715,257.464,129.246,259.173z"/>
<path d="M350.54,189.235c-4.607,2.158-9.301,4.277-13.951,6.298c-3.546,1.541-5.171,5.664-3.63,9.21  c1.146,2.638,3.72,4.212,6.423,4.212c0.931,0,1.878-0.188,2.787-0.582c4.77-2.073,9.584-4.246,14.309-6.46  c3.501-1.64,5.01-5.808,3.37-9.309C358.209,189.104,354.042,187.592,350.54,189.235z"/>
<path d="M173.954,242.58c-5.313,1.527-10.389,3.096-15.088,4.662c-3.668,1.222-5.651,5.186-4.429,8.854  c0.978,2.934,3.709,4.789,6.64,4.789c0.733,0,1.479-0.116,2.213-0.36c4.516-1.505,9.405-3.016,14.532-4.489  c3.715-1.068,5.861-4.946,4.793-8.662C181.548,243.659,177.674,241.513,173.954,242.58z"/>
<path d="M264.482,220.987c-4.888,1.348-9.871,2.646-14.811,3.859c-3.754,0.922-6.05,4.713-5.128,8.468  c0.784,3.193,3.645,5.332,6.792,5.332c0.553,0,1.114-0.066,1.675-0.204c5.067-1.244,10.178-2.576,15.192-3.959  c3.727-1.027,5.916-4.882,4.888-8.608C272.063,222.147,268.207,219.958,264.482,220.987z"/>
<path d="M381.203,188.622c1.124,0,2.264-0.271,3.321-0.843c4.594-2.482,9.207-5.061,13.709-7.663  c3.347-1.935,4.492-6.217,2.557-9.563c-1.935-3.35-6.216-4.492-9.563-2.558c-4.386,2.536-8.881,5.049-13.357,7.468  c-3.401,1.838-4.668,6.085-2.831,9.486C376.305,187.292,378.714,188.622,381.203,188.622z"/>
<path d="M308.184,206.931c-4.774,1.761-9.631,3.475-14.434,5.095c-3.663,1.235-5.631,5.206-4.396,8.869  c0.985,2.922,3.71,4.766,6.632,4.766c0.742,0,1.496-0.119,2.238-0.369c4.926-1.661,9.907-3.419,14.805-5.226  c3.627-1.338,5.483-5.362,4.145-8.989C315.836,207.45,311.813,205.592,308.184,206.931z"/>
<path d="M219.58,231.394c-5.322,1.143-10.451,2.284-15.243,3.395c-3.766,0.873-6.112,4.633-5.239,8.399  c0.75,3.234,3.629,5.422,6.813,5.422c0.523,0,1.055-0.06,1.586-0.183c4.718-1.093,9.771-2.219,15.02-3.344  c3.78-0.812,6.187-4.533,5.376-8.313C227.082,232.99,223.36,230.585,219.58,231.394z"/>
<path d="M435.444,173.156c-36.308,26.644-81.438,47.877-134.229,63.139c-71.656,21.73-121.97,54.656-153.815,100.657  c-2.358,3.405-1.508,8.077,1.897,10.436c1.303,0.901,2.79,1.334,4.262,1.334c2.378,0,4.717-1.129,6.173-3.232  c29.843-43.107,77.546-74.131,145.742-94.813c54.396-15.725,101.109-37.737,138.844-65.427c3.339-2.451,4.06-7.145,1.609-10.484  C443.477,171.426,438.782,170.706,435.444,173.156z"/>
<g>
</g>
<g>
</g>
<g>
</g>
<g>
</g>
<g>
</g>
<g>
</g>
<g>
</g>
<g>
</g>
<g>
</g>
<g>
</g>
<g>
</g>
<g>
</g>
<g>
</g>
<g>
</g>
<g>
</g>
</svg>
