<?xml version="1.0" encoding="iso-8859-1"?>
<!-- Generator: Adobe Illustrator 19.0.0, SVG Export Plug-In . SVG Version: 6.00 Build 0)  -->
<svg xmlns="http://www.w3.org/2000/svg" xmlns:xlink="http://www.w3.org/1999/xlink" version="1.1" id="Capa_1" x="0px" y="0px" viewBox="0 0 512 512" style="enable-background:new 0 0 512 512;" xml:space="preserve">
<path style="fill:#B0A18D;" d="M15.032,43.723c-0.32,0.286-0.649,0.56-0.955,0.866c-8.772,8.772-8.772,23.047,0,31.819  l357.027,357.028l19.463-14.176L209.938,218.629L15.032,43.723z"/>
<g>
	<path style="fill:#827061;" d="M409,405.834l-44.497-42.639L45.896,44.586c-4.249-4.249-9.899-6.588-15.908-6.588   c-5.576,0-10.829,2.037-14.956,5.724l375.536,375.537L409,405.834z"/>
	<path style="fill:#827061;" d="M434.501,474c-38.66,0-70-31.34-70-70v-58c0-38.66,31.34-70,70-70s70,31.34,70,70v58   C504.501,442.661,473.162,474,434.501,474z"/>
</g>
<path style="fill:#B0A18D;" d="M364.5,346v58c0,9.599,1.934,18.745,5.433,27.071c9.723,23.137,40.692,27.896,57.229,9.018  c0.183-0.209,0.364-0.419,0.545-0.63c7.626-8.916,2.712-22.692-8.75-25.2c-0.052-0.011-0.104-0.023-0.154-0.035  C387.738,407.082,364.5,379.204,364.5,346z"/>
<path style="fill:#584639;" d="M474.501,346c0,22.056-17.944,40-40,40s-40-17.944-40-40c0-22.056,17.944-40,40-40  S474.501,323.943,474.501,346z"/>
<path d="M448.495,269.761c-4.071-0.749-7.981,1.956-8.725,6.031c-0.744,4.075,1.957,7.981,6.031,8.725  c29.666,5.415,51.198,31.271,51.198,61.482v58c0,34.462-28.037,62.5-62.5,62.5s-62.5-28.038-62.5-62.5c0-4.142-3.357-7.5-7.5-7.5  s-7.5,3.358-7.5,7.5c0,1.645,0.069,3.274,0.171,4.894L19.38,71.104c-5.849-5.849-5.849-15.364-0.001-21.212  c2.834-2.833,6.601-4.394,10.607-4.394s7.773,1.56,10.604,4.391l316.408,316.409V374c0,4.142,3.357,7.5,7.5,7.5s7.5-3.358,7.5-7.5  v-28c0-19.104,8.569-36.909,23.512-48.852c3.235-2.586,3.762-7.305,1.176-10.541c-2.587-3.236-7.305-3.763-10.541-1.176  c-18.288,14.616-28.867,36.321-29.134,59.666L51.197,39.283c-5.665-5.665-13.198-8.784-21.211-8.784S14.439,33.62,8.772,39.286  c-11.696,11.697-11.696,30.729,0,42.426l355.904,355.904c12.542,25.945,39.126,43.885,69.823,43.885c42.733,0,77.5-34.767,77.5-77.5  v-58C512,308.539,485.292,276.476,448.495,269.761z"/>
<path d="M310.999,242.999h25c51.005,0,92.501,41.495,92.501,92.501v42.436c-15.063-2.824-26.5-16.065-26.5-31.936  c0-5.693,1.511-11.308,4.369-16.238c2.078-3.583,0.857-8.173-2.727-10.25c-3.58-2.077-8.173-0.856-10.25,2.726  c-4.182,7.213-6.393,15.43-6.393,23.762c0,26.191,21.309,47.5,47.5,47.5c0.335,0,0.665-0.019,0.998-0.025  c0.167,0.011,0.333,0.025,0.502,0.025c0.31,0,0.615-0.025,0.915-0.061c25.074-1.262,45.085-22.057,45.085-47.439  c0-8.333-2.211-16.549-6.393-23.762c-2.078-3.583-6.668-4.803-10.25-2.726c-3.584,2.078-4.805,6.667-2.727,10.25  c2.858,4.93,4.369,10.544,4.369,16.238c0,14.798-9.945,27.309-23.5,31.223v-41.723c0-59.276-48.225-107.501-107.501-107.501h-25  c-26.191,0-47.5-21.309-47.5-47.5s21.309-47.5,47.5-47.5h25c26.191,0,47.5-21.309,47.5-47.5s-21.309-47.5-47.5-47.5  c-11.457,0-22.521,4.136-31.157,11.646c-3.125,2.718-3.455,7.456-0.737,10.581c2.72,3.126,7.457,3.456,10.581,0.737  c5.905-5.136,13.475-7.964,21.313-7.964c17.921,0,32.5,14.58,32.5,32.5s-14.579,32.5-32.5,32.5h-25c-34.463,0-62.5,28.038-62.5,62.5  S276.536,242.999,310.999,242.999z"/>
<circle cx="290.502" cy="78.67" r="7.5"/>
<g>
</g>
<g>
</g>
<g>
</g>
<g>
</g>
<g>
</g>
<g>
</g>
<g>
</g>
<g>
</g>
<g>
</g>
<g>
</g>
<g>
</g>
<g>
</g>
<g>
</g>
<g>
</g>
<g>
</g>
</svg>
