<?xml version="1.0" encoding="iso-8859-1"?>
<!-- Generator: Adobe Illustrator 19.0.0, SVG Export Plug-In . SVG Version: 6.00 Build 0)  -->
<svg xmlns="http://www.w3.org/2000/svg" xmlns:xlink="http://www.w3.org/1999/xlink" version="1.1" id="Capa_1" x="0px" y="0px" viewBox="0 0 512 512" style="enable-background:new 0 0 512 512;" xml:space="preserve">
<circle style="fill:#5B7063;" cx="256" cy="256" r="248.5"/>
<path style="fill:#515B50;" d="M152.974,359.026L101.46,410.54c39.528,39.528,94.153,63.96,154.54,63.96v-72.833  C215.743,401.667,179.326,385.379,152.974,359.026z"/>
<path style="fill:#5B7063;" d="M204.487,307.513l-51.513,51.513c26.352,26.352,62.769,42.64,103.026,42.64v-72.833  C235.871,328.833,217.663,320.689,204.487,307.513z"/>
<path style="fill:#658577;" d="M204.487,307.513c13.176,13.176,31.385,21.32,51.513,21.32V256L204.487,307.513z"/>
<path style="fill:#5B7063;" d="M110.333,256H37.5c0,60.386,24.432,115.011,63.96,154.54l51.513-51.513  C126.621,332.674,110.333,296.257,110.333,256z"/>
<path style="fill:#658577;" d="M183.167,256h-72.833c0,40.257,16.288,76.674,42.64,103.026l51.513-51.513  C191.311,294.337,183.167,276.129,183.167,256z"/>
<g>
	<path style="fill:#6F9A8A;" d="M183.167,256c0,20.129,8.144,38.337,21.32,51.513L256,256H183.167z"/>
	<path style="fill:#6F9A8A;" d="M256,110.333V37.5c-60.386,0-115.011,24.432-154.54,63.96l51.513,51.513   C179.326,126.621,215.742,110.333,256,110.333z"/>
</g>
<path style="fill:#8BAD9C;" d="M256,183.167v-72.833c-40.258,0-76.674,16.288-103.026,42.64l51.513,51.513  C217.663,191.311,235.871,183.167,256,183.167z"/>
<path style="fill:#A6C1AD;" d="M256,183.167c-20.129,0-38.337,8.144-51.513,21.32L256,256V183.167z"/>
<path style="fill:#658577;" d="M152.974,152.974L101.46,101.46C61.932,140.989,37.5,195.614,37.5,256h72.833  C110.333,215.742,126.621,179.326,152.974,152.974z"/>
<path style="fill:#6F9A8A;" d="M204.487,204.487l-51.513-51.513c-26.352,26.352-42.64,62.769-42.64,103.026h72.833  C183.167,235.871,191.311,217.663,204.487,204.487z"/>
<path style="fill:#8BAD9C;" d="M204.487,204.487c-13.176,13.176-21.32,31.384-21.32,51.513H256L204.487,204.487z"/>
<path style="fill:#A6C1AD;" d="M401.667,256H474.5c0-60.386-24.432-115.011-63.96-154.54l-51.513,51.513  C385.379,179.326,401.667,215.742,401.667,256z"/>
<path style="fill:#C2D5BF;" d="M307.513,204.487c13.176,13.176,21.32,31.384,21.32,51.513h72.833  c0-40.258-16.288-76.674-42.64-103.026L307.513,204.487z"/>
<path style="fill:#DDE8D0;" d="M328.833,256c0-20.129-8.144-38.337-21.32-51.513L256,256H328.833z"/>
<path style="fill:#8BAD9C;" d="M359.026,152.974l51.513-51.513C371.011,61.932,316.386,37.5,256,37.5v72.833  C296.258,110.333,332.674,126.621,359.026,152.974z"/>
<path style="fill:#A6C1AD;" d="M307.513,204.487l51.513-51.513c-26.352-26.352-62.769-42.64-103.026-42.64v72.833  C276.129,183.167,294.337,191.311,307.513,204.487z"/>
<path style="fill:#C2D5BF;" d="M256,256l51.513-51.513c-13.176-13.176-31.385-21.32-51.513-21.32V256z"/>
<path style="fill:#658577;" d="M256,401.667V474.5c60.386,0,115.011-24.432,154.54-63.96l-51.513-51.513  C332.674,385.379,296.258,401.667,256,401.667z"/>
<path style="fill:#6F9A8A;" d="M256,328.833v72.833c40.258,0,76.674-16.288,103.026-42.64l-51.513-51.513  C294.337,320.689,276.129,328.833,256,328.833z"/>
<g>
	<path style="fill:#8BAD9C;" d="M256,328.833c20.129,0,38.337-8.144,51.513-21.32L256,256V328.833z"/>
	<path style="fill:#8BAD9C;" d="M401.667,256c0,40.257-16.288,76.674-42.64,103.026l51.513,51.513   c39.529-39.528,63.96-94.153,63.96-154.54L401.667,256L401.667,256z"/>
</g>
<path style="fill:#A6C1AD;" d="M307.513,307.513l51.513,51.513c26.352-26.352,42.64-62.769,42.64-103.026h-72.833  C328.833,276.129,320.689,294.337,307.513,307.513z"/>
<path style="fill:#C2D5BF;" d="M307.513,307.513c13.176-13.176,21.32-31.384,21.32-51.513H256L307.513,307.513z"/>
<g>
	<circle style="fill:#FEFBE1;" cx="359.03" cy="152.97" r="15"/>
	<circle style="fill:#FEFBE1;" cx="256" cy="183.17" r="15"/>
	<circle style="fill:#FEFBE1;" cx="152.97" cy="152.97" r="15"/>
	<circle style="fill:#FEFBE1;" cx="152.97" cy="359.03" r="15"/>
	<circle style="fill:#FEFBE1;" cx="37.5" cy="256" r="15"/>
	<circle style="fill:#FEFBE1;" cx="307.51" cy="307.51" r="15"/>
</g>
<path d="M437.02,74.98C388.668,26.629,324.38,0,256,0S123.332,26.629,74.98,74.98C26.629,123.333,0,187.62,0,256  s26.629,132.667,74.98,181.02C123.332,485.371,187.62,512,256,512s132.668-26.629,181.02-74.98C485.371,388.667,512,324.38,512,256  S485.371,123.333,437.02,74.98z M256,497C123.112,497,15,388.888,15,256S123.112,15,256,15s241,108.112,241,241S388.888,497,256,497  z"/>
<path d="M415.843,96.157c-2.93-2.929-7.678-2.929-10.607,0s-2.929,7.678,0,10.606c38.059,38.058,59.763,88.144,61.619,141.736  h-57.88c-1.503-30.497-12.13-60.026-30.402-84.404c1.875-3.283,2.954-7.078,2.954-11.123c0-12.407-10.094-22.5-22.5-22.5  c-4.044,0-7.839,1.078-11.123,2.954c-26.372-19.766-58.771-30.594-91.904-30.594c-4.143,0-7.5,3.358-7.5,7.5s3.357,7.5,7.5,7.5  c29.542,0,58.436,9.539,82.068,26.971c-0.991,2.534-1.542,5.288-1.542,8.169c0,12.407,10.094,22.5,22.5,22.5  c2.881,0,5.635-0.55,8.169-1.542c15.955,21.628,25.29,47.662,26.759,74.568H335.98c-1.712-18.639-9.779-35.931-23.163-49.316  c-0.005-0.005-0.01-0.009-0.015-0.014c-9.728-9.723-21.647-16.719-34.743-20.44c-2.066-10.289-11.171-18.063-22.059-18.063  c-10.888,0-19.993,7.775-22.059,18.064c-13.103,3.722-25.024,10.719-34.758,20.453c-2.93,2.929-2.93,7.677-0.001,10.606  c1.465,1.465,3.384,2.197,5.304,2.197c1.919,0,3.839-0.732,5.303-2.197c7.443-7.442,16.455-12.914,26.354-16.057  c3.79,7.094,11.268,11.934,19.857,11.934c8.588,0,16.065-4.839,19.856-11.931c9.896,3.143,18.908,8.611,26.347,16.048  c0.002,0.002,0.004,0.005,0.007,0.007c10.548,10.548,17.026,24.085,18.684,38.71H263.5v-19.917c0-4.142-3.357-7.5-7.5-7.5  s-7.5,3.358-7.5,7.5V256c0,4.142,3.357,7.5,7.5,7.5h218.5c4.143,0,7.5-3.358,7.5-7.5C482,195.585,458.505,138.818,415.843,96.157z   M351.526,152.974c0-4.136,3.364-7.5,7.5-7.5s7.5,3.364,7.5,7.5s-3.364,7.5-7.5,7.5S351.526,157.109,351.526,152.974z M256,190.667  c-3.432,0-6.325-2.319-7.213-5.47c0.049-0.672,0.015-1.36-0.126-2.053c-0.036-0.176-0.085-0.346-0.133-0.516  c0.278-3.884,3.519-6.961,7.473-6.961c4.136,0,7.5,3.364,7.5,7.5S260.136,190.667,256,190.667z"/>
<path d="M256,45c3.51,0,7.06,0.087,10.551,0.259c0.126,0.006,0.25,0.009,0.374,0.009c3.973,0,7.288-3.12,7.485-7.132  c0.203-4.137-2.986-7.656-7.123-7.859C263.552,30.093,259.754,30,256,30c-4.143,0-7.5,3.358-7.5,7.5S251.857,45,256,45z"/>
<path d="M333.413,59.623c14.229,5.606,27.889,12.8,40.599,21.383c1.287,0.869,2.746,1.286,4.19,1.286  c2.408,0,4.773-1.158,6.223-3.304c2.317-3.433,1.414-8.095-2.019-10.413c-13.615-9.195-28.249-16.902-43.495-22.908  c-3.85-1.517-8.209,0.375-9.727,4.229C327.666,53.75,329.56,58.105,333.413,59.623z"/>
<path d="M216.359,115.579c-1.325-3.925-5.582-6.027-9.507-4.703c-6.539,2.211-12.989,4.895-19.17,7.976  c-3.707,1.848-5.214,6.352-3.365,10.059c1.313,2.632,3.963,4.155,6.718,4.155c1.124,0,2.267-0.254,3.341-0.79  c5.571-2.778,11.386-5.197,17.281-7.19C215.581,123.759,217.687,119.502,216.359,115.579z"/>
<circle cx="183.17" cy="256" r="7.5"/>
<path d="M152.974,130.474c-12.406,0-22.5,10.093-22.5,22.5s10.094,22.5,22.5,22.5s22.5-10.093,22.5-22.5  S165.38,130.474,152.974,130.474z M152.974,160.474c-4.136,0-7.5-3.364-7.5-7.5s3.364-7.5,7.5-7.5s7.5,3.364,7.5,7.5  S157.109,160.474,152.974,160.474z"/>
<path d="M152.974,336.526c-12.406,0-22.5,10.093-22.5,22.5s10.094,22.5,22.5,22.5s22.5-10.093,22.5-22.5  S165.38,336.526,152.974,336.526z M152.974,366.526c-4.136,0-7.5-3.364-7.5-7.5s3.364-7.5,7.5-7.5s7.5,3.364,7.5,7.5  S157.109,366.526,152.974,366.526z"/>
<path d="M37.5,278.5c12.406,0,22.5-10.093,22.5-22.5s-10.094-22.5-22.5-22.5S15,243.593,15,256C15,268.407,25.094,278.5,37.5,278.5z   M37.5,248.5c4.136,0,7.5,3.364,7.5,7.5c0,4.136-3.364,7.5-7.5,7.5S30,260.136,30,256S33.364,248.5,37.5,248.5z"/>
<path d="M307.514,285.013c-12.406,0-22.5,10.093-22.5,22.5s10.094,22.5,22.5,22.5s22.5-10.093,22.5-22.5  S319.92,285.013,307.514,285.013z M307.514,315.013c-4.136,0-7.5-3.364-7.5-7.5s3.364-7.5,7.5-7.5s7.5,3.364,7.5,7.5  S311.649,315.013,307.514,315.013z"/>
<g>
</g>
<g>
</g>
<g>
</g>
<g>
</g>
<g>
</g>
<g>
</g>
<g>
</g>
<g>
</g>
<g>
</g>
<g>
</g>
<g>
</g>
<g>
</g>
<g>
</g>
<g>
</g>
<g>
</g>
</svg>
