<svg width="62" height="74" xmlns="http://www.w3.org/2000/svg" aria-labelledby="title-monster5"><title id="title-monster5">Monster 5</title>><g fill="#34ac52" fill-rule="nonzero"><path d="M31.125 25.065c2.18 0 3.95-1.77 3.95-3.95s-1.77-3.95-3.95-3.95c-2.19 0-3.96 1.77-3.96 3.95s1.77 3.95 3.96 3.95z"/><path d="M62.035 23.525s-3.63-.19-6.99-.47c-.53-1.39-1.17-2.82-1.93-4.25 3.32-2.9 7.71-6.58 7.71-6.58l-10.02 2.86c-.37-.51-.75-1-1.15-1.49l9.79-12.71-13.02 9.42c-3.53-3.01-8.13-5.21-14.1-5.65h-2.41c-6.92.51-12.02 3.38-15.73 7.16L6.195.885l5.03 14.49c-.66.94-1.25 1.9-1.79 2.87l-7.22-3.53 6.06 5.79c-.48 1.04-.9 2.07-1.27 3.08l-7.04 1.48 5.86 2.27c-.93 3.55-1.14 6.26-1 6.9.34 1.57 1.57 1.13 2.23.75.03 1.54.06 3.35.1 5.34.07 3.12.15 6.67.24 10.34.11 3.82.22 7.75.33 11.44 1.54 1.72 3.04 3.38 4.44 4.94 1.93-.89 3.74-1.72 5.37-2.47-.03-.7-.06-1.37-.09-2.01-.02-.28-.03-.55-.05-.81-.01-.23-.03-.46-.04-.67-.04-.51-.07-.98-.1-1.42-.03-.42-.07-.82-.1-1.18-1.75-.47-2.52-.58-2.35-.32.12.19.68.53 1.46.95-.03.28-.07.59-.11.92-.02.16-.03.32-.05.49-.02.18-.03.37-.05.56-.06.71-.13 1.5-.2 2.37-.93.31-1.96.65-3.07 1.02-.16-.22-.33-.45-.5-.68l-.24-.33-.37-.48c-.28-.35-.56-.71-.84-1.07l-.21-.27-.12-.16-.23-.31.03-.38.01-.19.01-.31c.02-.45.03-.9.05-1.36l.09-2.74c.06-1.85.11-3.7.17-5.53.01-.61.03-1.21.04-1.8.25.48.91 1.17 2.62 1.83-.02.35-.03.71-.04 1.05 2.01 1.99 4.72 3.61 8.34 4.56.22.05.46.1.68.15.17 4.03.34 8.06.5 12.1-.38-.04-.77-.06-1.17-.06-3.64 0-6.58 1.46-6.58 3.27 0 1.8 13.16 1.8 13.16 0 0-.8-.57-1.52-1.52-2.09-.18-4.21-.35-8.41-.52-12.62 1.18.11 2.43.15 3.77.13h2.41c1.25.02 2.42-.02 3.54-.11-.18 4.2-.35 8.4-.53 12.6-.94.57-1.52 1.29-1.52 2.09 0 1.8 13.17 1.8 13.17 0 0-1.81-2.95-3.27-6.58-3.27-.41 0-.8.02-1.18.06.17-4.02.33-8.03.5-12.04.31-.07.63-.14.92-.21 3.63-.95 6.33-2.57 8.35-4.56-.01-.34-.03-.7-.04-1.05 3.04-1.18 2.76-2.46 2.76-2.46.45-.77.83-1.57 1.17-2.37.03 1.56.08 3.16.12 4.8.05 1.83.11 3.68.16 5.53l.09 2.74c.02.46.03.91.05 1.36l.01.31.01.19.03.38-.23.31-.12.16-.21.27c-.28.36-.56.72-.84 1.07l-.37.48-.24.33c-.17.23-.34.46-.5.68-1.11-.37-2.14-.71-3.07-1.02-.07-.87-.14-1.66-.2-2.37-.01-.19-.03-.38-.05-.56-.02-.17-.03-.33-.05-.49-.04-.33-.07-.64-.11-.92.78-.42 1.34-.76 1.46-.95.17-.26-.6-.15-2.35.32-.03.36-.06.76-.1 1.18-.03.44-.06.91-.1 1.42-.01.21-.03.44-.04.67-.02.26-.03.53-.05.81-.03.64-.06 1.31-.09 2.01 1.63.75 3.44 1.58 5.37 2.47 1.4-1.56 2.9-3.22 4.45-4.94.1-3.69.21-7.62.32-11.44.09-3.67.17-7.22.24-10.34.03-1.85.07-3.54.09-5.01.38-.09.7-.38.86-1.08.15-.72-.14-4.14-1.43-8.4l6.04-2.31zm-30.91-11.9c6.67 0 12.09 5.41 12.09 12.09 0 1.56-.31 3.05-.85 4.42-3.33-.48-7.16-.75-11.24-.75-4.09 0-7.92.27-11.24.75a12.03 12.03 0 0 1-.85-4.42c0-6.68 5.41-12.09 12.09-12.09zm0 19.48c-6.69 0-12.96.42-18.33 1.14 3.1-1.82 10.14-3.09 18.33-3.09 8.18 0 15.22 1.27 18.33 3.09-5.38-.72-11.64-1.14-18.33-1.14z"/></g></svg>