<svg width="61" height="83" xmlns="http://www.w3.org/2000/svg" aria-labelledby="title-monster10"><title id="title-monster10">Monster 10</title><g fill-rule="nonzero" fill="#1589ca"><circle cx="37.8" cy="7.2" r="2.2"/><circle cx="22.2" cy="12.3" r="2.2"/><path d="M43.4 32.2c-2.5-.9-4.2-3.3-4.2-6V17c0-1.9.9-3.7 2.4-4.9 1.5-1.1 2.5-3 2.5-5 0-3.6-3-6.4-6.6-6.3-3.3.1-5.9 2.8-6 6.1-.1 2.1.9 4 2.5 5.2 1.5 1.2 2.4 2.9 2.4 4.8v7.9c0 3.5-2.8 6.3-6.3 6.3H30c-3.5 0-6.3-2.8-6.3-6.3V22c0-1.9.9-3.7 2.4-4.9 1.5-1.1 2.5-3 2.5-5 0-3.6-3-6.4-6.6-6.3-3.3.1-5.9 2.8-6 6.1-.1 2.1.9 4 2.5 5.2 1.5 1.2 2.4 2.9 2.4 4.8V26c0 2.7-1.7 5-4.2 6C7.2 35.5.1 48 .1 63v.5c0 8.7 4.8 15.8 10.8 15.8h3.6v2.3c0 .7.6 1.4 1.4 1.4.7 0 1.4-.6 1.4-1.4v-2.3h25.8v2.3c0 .7.6 1.4 1.4 1.4.7 0 1.4-.6 1.4-1.4v-2.3h3.6c6 0 10.8-7.1 10.8-15.8V63c-.3-14.8-7.4-27.4-16.9-30.8zm-10.2-25c0-2.5 2.1-4.6 4.6-4.6 2.5 0 4.6 2.1 4.6 4.6 0 2.5-2.1 4.6-4.6 4.6-2.6 0-4.6-2.1-4.6-4.6zm-15.6 5.1c0-2.5 2.1-4.6 4.6-4.6 2.5 0 4.6 2.1 4.6 4.6 0 2.5-2.1 4.6-4.6 4.6-2.5 0-4.6-2.1-4.6-4.6zM39.1 61L37 53.2v8.4c-.7.2-1.4.3-2.2.4l-2.7-9.7v10c-1.4.1-2.8.1-4.2 0v-10L25.2 62c-.8-.1-1.5-.3-2.2-.4v-8.4L20.9 61c-2-.9-3.3-2.1-3.3-3.6C17.6 50.5 23.2 45 30 45c6.8 0 12.4 5.6 12.4 12.4 0 1.5-1.3 2.7-3.3 3.6z"/></g></svg>