<svg width="81" height="81" xmlns="http://www.w3.org/2000/svg" aria-labelledby="title-monster11"><title id="title-monster11">Monster 11</title><path d="M80.229 56.191c-.665-1.832-1.098-12.571-1.098-12.571l.808.245s-3.293-13.261-5.844-16.126l.731-.631s-6.331-9.439-13.412-10.96c-.882-1.562-2.007-3.201-2.007-3.201l1.213.064c-1.881-2.349-6.611-5.95-6.611-5.95l2.451.078c-3.272-2.433-7.249-3.188-7.249-3.188-.788-1.724-2.986-2.768-2.986-2.768.084 1.51-1.258 1.678-1.258 1.678C42.293 2.46 44.38.009 44.38.009c-2.936-.168-5.512 2.349-5.512 2.349-1.401-.671 0-2.349 0-2.349-2.66.168-4.555 3.188-4.555 3.188-1.51 0-2.349-2.349-2.349-2.349-1.258 1.342-.702 2.935-.702 2.935-4.425 1.492-7.771 3.86-7.771 3.86h1.51c-1.983 1.317-4.713 6.054-6.034 8.498-7.091 1.502-13.439 10.967-13.439 10.967l.731.631C3.707 30.604.414 43.865.414 43.865l.808-.245S.789 54.358.124 56.191c0 0 .462-.148.968-.797 0 0-.932 5.527-.628 7.192.303 1.666.67 3.903 2.179 3.972 0 0 .381 1.42 2.686.739 0 0 .72 1.386 2.492 1.036 1.159-.228 2.61-1.404 3.285-2.839 1.816 1.183 3.046-2.152 3.046-2.152.475-2.858.147-4.903-.254-5.442-.402-.54-2.102-4.092-2.102-4.092l1.513.573c-2.033-3.707-.158-13.626-.158-13.626l.722 1.385c.077-3.461 2.628-8.218 2.628-8.218-.42 2.685-.703 5.629-.632 8.507.224 9.172 2.115 15.995 1.561 19.015L19 58.982s.223 6.264 1.119 8.165c.895 1.901.615 5.369.391 6.264l1.51-2.461s.559 6.096.951 7.83c.391 1.734 2.684 2.181 5.592 1.958 2.909-.224 4.53.615 5.201-1.902.671-2.517-1.23-3.3 1.622-9.34 0 0 1.454.243 3.527.384l-.044.097c.449-.003.886-.013 1.308-.03a41.9 41.9 0 0 0 1.308.03l-.043-.097c2.073-.141 3.526-.384 3.526-.384 2.852 6.04.951 6.823 1.622 9.34.671 2.517 2.293 1.678 5.201 1.902 2.908.224 5.201-.224 5.593-1.958.392-1.734.951-7.83.951-7.83l1.51 2.461c-.224-.895-.503-4.362.392-6.264.895-1.901 1.118-8.165 1.118-8.165l1.571 2.461c-.554-3.02 1.337-9.843 1.561-19.015.07-2.878-.212-5.821-.632-8.507 0 0 2.551 4.757 2.628 8.218l.721-1.385s1.875 9.919-.158 13.626l1.512-.573s-1.7 3.552-2.102 4.092c-.402.539-.729 2.584-.254 5.442 0 0 1.23 3.335 3.046 2.152.675 1.436 2.127 2.611 3.285 2.839 1.772.349 2.492-1.036 2.492-1.036 2.305.681 2.686-.739 2.686-.739 1.509-.069 1.875-2.306 2.179-3.972.303-1.665-.628-7.192-.628-7.192.505.649.967.798.967.798zm-69.137 6.301c-.816-1.153-2.281.949-2.281.949s-.139-2.912 1.258-3.483c0 0 1.203-.273 1.395 1.383.053.458-.127.824-.372 1.151zm14.782-44.28a1.42 1.42 0 1 1 2.841 0 1.42 1.42 0 0 1-2.841 0zm27.891 6.74c-.17.112-4.26 2.74-13.587 2.74s-13.418-2.628-13.587-2.74a.503.503 0 1 1 .554-.84c.038.025 4.046 2.573 13.033 2.573 8.986 0 12.995-2.548 13.034-2.574a.505.505 0 0 1 .697.145.505.505 0 0 1-.144.696zm-.707-5.318a1.42 1.42 0 1 1 0-2.841 1.42 1.42 0 0 1 0 2.841zm18.486 43.807s-1.465-2.102-2.281-.949c-.246-.327-.426-.693-.373-1.151.192-1.656 1.395-1.383 1.395-1.383 1.398.572 1.259 3.483 1.259 3.483z" fill-rule="nonzero" fill="#000"/></svg>