<svg width="55" height="77" xmlns="http://www.w3.org/2000/svg" aria-labelledby="title-monster8"><title id="title-monster8">Monster 8</title><g fill-rule="nonzero" fill="#7e0f7e"><path d="M38.8 12.6c.4-.8.7-1.8.7-2.8 0-3.4-2.7-9.3-6.1-9.3-2.8 0-1.4 4.5-.9 8-1.6-.7-3.3-1-5.1-1-1.7 0-3.4.4-5.1 1 .6-3.5 1.9-8-.9-8-3.4 0-6.1 5.9-6.1 9.3 0 1 .2 2 .7 2.8C6.6 21.2.1 38.6.1 49.6c0 15 12.2 27.2 27.2 27.2s27.2-12.2 27.2-27.2c.2-11-6.3-28.4-15.7-37zm-11.3 7c3.9 0 7.1 3.2 7.1 7.1 0 3.9-3.2 7.1-7.1 7.1-3.9 0-7.1-3.2-7.1-7.1 0-3.9 3.2-7.1 7.1-7.1zM44 43.5H11c-.6 0-1.1-.5-1.1-1.1 0-.6.5-1.1 1.1-1.1h33c.6 0 1.1.5 1.1 1.1.1.6-.5 1.1-1.1 1.1z"/><circle cx="27.5" cy="26.7" r="2.5"/></g></svg>