<svg width="92" height="81" xmlns="http://www.w3.org/2000/svg" aria-labelledby="title-monster7"><title id="title-monster7">Monster 7</title><path d="M65.5 15.4c0-.3 0-.6-.1-.9-.7-2.8-1.9-4.8-2.9-6.1C55.6-.4 41.2 1 40.2 1h-.1C39 1 25.5-.3 18.9 8.2c-1.6 2.1-2.5 4.4-2.9 6.3-.1.3-.1.9-.1 1.2L19 72l-.6 6.9c.2.6.6.5.9.7 1.7 1.4 5 1.1 6.1 1 .2 0 .4 0 .6-.1 1 0 4.1.1 5.8-1.2.5-.4.7-.4.9-.8l-.3-3.1c-.4-2 1.4-3.4 3.6-3.4h9.3c2.3 0 4 1.4 3.8 3.5l-.3 3.3c.2.6.6.5.9.8 1.7 1.4 5 1.1 6.1 1h.6c1 0 4.1.1 5.8-1.2.5-.4.7-.4.9-.8l-.6-7.2 3-56zM40.5 38c-7.8 0-14.1-6.3-14.1-14s6.3-14 14.1-14 14.1 6.3 14.1 14-6.3 14-14.1 14zm0-22.3c-4.6 0-8.4 3.7-8.4 8.3 0 4.6 3.8 8.3 8.4 8.3 4.6 0 8.4-3.7 8.4-8.3 0-4.6-3.8-8.3-8.4-8.3zM43.8 30c-.7 0-1.4-.6-1.4-1.3 0-.7.6-1.3 1.4-1.3.7 0 1.4.6 1.4 1.3 0 .7-.6 1.3-1.4 1.3zm0-5.3c-1.7 0-3.1-1.4-3.1-3 0-1.7 1.4-3 3.1-3 1.7 0 3.1 1.4 3.1 3s-1.4 3-3.1 3zM34.1 37c-.4-.2-.8-.4-1.4-.4-.9 0-1.9.4-2.7.7-1.3.6-2 1.7-2.8 2.8-.5.8-1 1.6-1.7 2.2l-.6.6c-1.3 1.4-2.2 3.2-3 4.9-.8 1.6-1.7 3.3-2.9 4.7-1.7 1.8-2.9 3.9-4.2 5.9-1.3 2.1-2.6 4.2-4.3 6.1C8 67.2 5 69.3 1.9 70.6 1 71 .5 71.7.6 72.5c0 .8.5 1.5 1.3 1.8 1.7.6 3.3.8 5 .8h.6c2.6-.1 7.4-.8 10.1-3.9.3-.4.9-1 1.6-1.6.8-.8 1.6-1.6 2-2.1 3-3.6 5.8-5.2 9.6-6.6.8-.3 1.3-1.1 1.3-1.9-.3-6.8.5-15.8 2-22zM7.7 74c-1.3.1-2.4-.3-2.5-1.1-.1-.7.9-1.5 2.2-1.6 1.3-.1 2.4.3 2.5 1.1 0 .8-.9 1.5-2.2 1.6zm6.9-2.2c-1.5.5-2.9.2-3.2-.7-.3-.9.6-2 2.1-2.5s2.9-.2 3.2.7c.3.8-.6 2-2.1 2.5zm6-4.5c-.6.8-1.8 1-2.7.4-.9-.6-1.1-1.8-.5-2.6.6-.8 1.8-1 2.7-.4.9.6 1.1 1.8.5 2.6zm70.1-41.7c-2.8-.9-5.3-1.2-7.6-1-3.5.4-6.6 2.1-8.2 4.7-.8 1.4-1.3 2.9-1.7 4.4-.3 1.2-.7 2.5-1.2 3.6-.8 1.7-2.1 3.1-3.7 4.2s-3.5 1.7-5.3 1.8h-.6c-1.7 0-3.4-.4-4.9-1.2-1.7-.9-3.1-2.2-4.1-3.7-1.8 3.2-3.6 6.3-5.4 9.5-.4.7-.8 1.4-1 2.2-.3 1.4.1 3.4 2.1 5.2 1.2 1 2.7 1.8 4.9 2.5 3 1 6.3 1.8 10 2.3 3.3.5 7 .8 9.9-1 3.1-1.9 4.5-5.6 5.7-9.5 1.1-3.6 2.2-7.2 3.3-10.7 1.3-4.3 3.1-9.1 7.2-10.9l.6-.3c.1 0 .2-.1.3-.1.5-.2.7-.6.7-1.1-.4-.5-.6-.8-1-.9zM67.8 58.5c-1.6.2-3.1-.5-3.2-1.5-.1-1 1.1-2.1 2.8-2.3 1.6-.2 3.1.5 3.2 1.5.1 1.1-1.1 2.1-2.8 2.3zm7-3.8c-.6.8-1.7 1-2.5.4s-1-1.8-.5-2.6c.6-.8 1.7-1 2.5-.4s1 1.7.5 2.6zm3.3-5.2c-.6 1.3-1.8 2.1-2.7 1.6-.9-.4-1.2-1.9-.6-3.2.6-1.3 1.8-2.1 2.7-1.6.9.4 1.2 1.8.6 3.2zm2.8-7.4c-.3 1.4-1.4 2.4-2.4 2.1-1-.3-1.5-1.6-1.1-3 .3-1.4 1.4-2.4 2.4-2.1.9.2 1.4 1.6 1.1 3zm0-5.3c-.9.1-1.8-.4-1.9-1.2-.1-.7.6-1.4 1.6-1.5.9-.1 1.8.4 1.9 1.2 0 .7-.7 1.4-1.6 1.5zm3.5-5.8c-1.1 1.1-2.5 1.4-3.2.7-.7-.7-.3-2.1.8-3.1s2.5-1.4 3.2-.7c.7.6.3 2-.8 3.1z" fill-rule="nonzero" fill="#7e0f7e"/></svg>