<svg width="80" height="47" xmlns="http://www.w3.org/2000/svg" aria-labelledby="title-monster1"><title id="title-monster1">Monster 1</title><g fill-rule="nonzero" fill="#daa829"><path d="M11.676 5.718c-1.352.111-2.516-.513-2.516-.513 3.393-.45 2.643-4.591 2.643-4.591-3.771.681-3.756 3.191-4.079 2.96-.325-.232-.555-1.623-.555-1.623C5.76 3.098 5.681 6.767 5.681 6.767c5.048 1.165 5.995-1.049 5.995-1.049z"/><path d="M79.851 23.149c0-5.506-4.479-9.983-9.984-9.983-4.567 0-8.284 3.715-8.284 8.284 0 3.819 3.106 6.216 6.926 6.216 4.961-.141 3.157-3.992 3.157-3.992 0 1.575-1.583 1.719-3.157 1.719a3.947 3.947 0 0 1-3.942-3.942 5.306 5.306 0 0 1 5.301-5.301c3.86 0 7.001 3.14 7.001 7 0 5.03-4.093 9.121-9.122 9.121-6.495 0-10.757-7.743-11.835-11.776-.303-1.133-.671-2.215-1.208-3.23.94.731 1.388 1.298 1.388 1.298.526-7.335-9.975-7.629-9.975-7.629 2.036-1.679 8.59-1.587 8.59-1.587-7.672-6.389-17.185-1.098-17.185-1.098.411-1.922 3.863-4.491 3.863-4.491-7.207.506-7.715 5.372-7.742 5.709-11.516-.276-23.889 2.7-26.105 9.873-.085.276-.16.553-.23.829-3.288-2.727-7.675-7.979-1.625-13.4 0 0-12.095 6.385 1.18 16.448-.411 8.978 6.879 18.073 17.927 21.487 8.008 2.475 16.069 1.371 21.699-2.335a17.878 17.878 0 0 0 3.448-2.933 15.937 15.937 0 0 0 2.711-4.108c.123-.272.454-1.242.812-2.334 1.286.981 9.472 6.688 19.422 1.114a12.15 12.15 0 0 0 2.989-1.991l.085-.066-.028.01a12.083 12.083 0 0 0 3.923-8.912zm-35.878 8.383a7.614 7.614 0 1 1 0-15.229 7.615 7.615 0 0 1 0 15.229z"/><path d="M48.924 21.039a1.334 1.334 0 1 1-1.458-1.328 4.103 4.103 0 1 0 1.434 1.075c.015.081.024.166.024.253zm-5.157 5.752a.522.522 0 1 1-.001-1.045.522.522 0 0 1 .001 1.045z"/></g></svg>