<svg width="81" height="85" xmlns="http://www.w3.org/2000/svg" aria-labelledby="title-monster4"><title id="title-monster4">Monster 4</title><path d="M80.2 49.2c-.4-.9-1.5-1.5-3.6-1.9h-.2c.1-.2.3-.7.9-1.3l1.1-1.1c.4-.3 1.5-1.1 1.7-2.3.1-.6-.1-1.4-1-2.2-.4-.4-.9-.5-1.4-.5-1.6 0-2.8 1.8-4.2 4.2 0 .1-.1.1-.1.2-.3-.6-.5-1.4-.4-1.8.1-.7-.1-1.3-.5-1.8s-1-.7-1.6-.7c-.6 0-1.2.3-1.6.7-.4.5-.6 1.2-.4 1.9.1.6.4 1.2.6 1.7.2.5.4 1 .5 1.3 0 0 0 .1-.3.3-1.7.8-2.2 2-2.4 2.8-.2.8 0 1.7.4 2.5-.8 1-1.9 1.6-3.5 1.6-2.4 0-5.6-1.3-9.4-3.9.1-1.4.2-2.8.3-4.3 1.2.5 2.7.9 4.3.9 2.5 0 5.8-1 8.1-5.7 2-.1 3-2.1 3.2-3.3v-.2c0-.3.1-.7.3-.9 1.1 0 2.3-.5 2.8-.8 1.3-.6 1.9-1.3 1.9-2.1 0-.3 0-1-.5-1.5-.3-.3-.7-.6-1.5-.6-.7 0-1.6.2-2.8.8-.1 0-.1 0-.2.1 0-.2-.1-.7 0-1.6.1-.7.3-1.3.3-1.5.2-.5.7-1.7.1-2.9-.3-.5-.8-1.1-2-1.3h-.3c-.6 0-1.1.2-1.5.6-1 1-.9 3-.7 5.5v.3c-.5-.4-1.2-.9-1.4-1.3-.4-.8-1.1-1.3-1.9-1.3-.9 0-1.7.5-2 1.3-.3.8-.1 1.7.6 2.4.4.4 1 .8 1.5 1.1.4.3.9.6 1.1.8 0 0 .1.1-.1.4-.8 1.5-.9 2.9-.3 4-.4 1.3-1.2 1.9-2.2 1.9-1 0-2.7-.5-5.6-3l.6-3.6c.6-3.4 1-6.1 1-8.2v-2.4c.1-3.4.1-7.3-.7-10.8 2.5.1 5.1 1.3 7.5 3.8.1.2.5.6.9 1 .9.9 1.7 1.3 2.4 1.3.5 0 .9-.2 1.2-.5.2-.2.9-.9-.1-3.5-.4-1.1-1.8-3.8-4.6-6.1s-6.3-3.4-10.2-3.4h-.8C52.2 2 52.1.5 45.8.2h-1.4c-2.8 0-5.2 1.7-7.1 4.9h-1.1c-2.6 0-5.1.5-7.3 1.6h-.1l-.4.2s-.1 0-.1.1l-.3.3-1.1.8c-.2.2-.4.4-.6.7l-.1.1c-.5.6-.9 1.1-1.2 1.6l-.2.3c-.6 1-1.1 2-1.4 2.9-.4 1.4-.4 2.2.1 2.7.3.3.7.5 1.2.5h.1l.9-.2 1.1-.9c.5-.5.9-1 1.1-1.2.5-.5 1-.9 1.5-1.3l.7-.3c.9-.3 1.8-.5 2.7-.5.4 0 .9 0 1.3.1-1.6 5.7-3.5 16.3-3.6 16.8-.1.3-.1.6-.2.9v.1c-.1.1-.3.2-.4.4-3 2.8-5.2 3.4-6.5 3.4h-1s-1.4-.1-1.5-.1c-2.1-.3-3.1-1.8-3.5-2.8.6-1.1.5-2.5-.3-3.9-.1-.4-.1-.4-.1-.5.2-.2.6-.5 1.1-.8.5-.3 1-.6 1.4-1 .7-.7.9-1.6.6-2.3-.3-.8-1.1-1.3-2-1.3-.8 0-1.5.5-1.9 1.2-.2.4-.8.9-1.3 1.3v-.3c.2-2.4.2-4.4-.7-5.4-.4-.4-.9-.6-1.4-.6h-.3c-1.2.2-1.7.8-2 1.3-.6 1.1-.1 2.4.1 2.8.1.2.2.8.3 1.5.1.9.1 1.4 0 1.6 0 0-.1 0-.2-.1-1.2-.5-2.1-.7-2.7-.7-1.1 0-1.5.6-1.7.9-.3.5-.3.9-.3 1.2 0 .8.6 1.4 1.9 2.1.4.2 1.6.7 2.7.7.1.1.2.5.3.8v.2c.2 1.2 1.2 3.1 3.1 3.2.7 1.4 1.7 2.6 2.8 3.4 1.2.9 2.6 1.5 4.3 1.7l2.4.3c.6.1 4 .1 5.1-.1-.1.5-.3.9-.4 1.4-3.8 3.3-9.5 4.7-10.5 4.9-1.5.2-2.7-.1-3.7-1 .3-.9.3-1.7.1-2.6-.3-.8-1-1.8-2.8-2.4-.4-.1-.4-.2-.4-.2 0-.3.1-.8.3-1.3.2-.6.3-1.2.4-1.8 0-.7-.2-1.4-.7-1.8-.5-.4-1.1-.6-1.7-.5-.6.1-1.2.4-1.5 1-.3.5-.4 1.2-.2 1.8.1.5 0 1.3-.1 1.9l-.2-.2c-1.7-2.2-3.2-3.8-4.7-3.5-.5.1-.9.3-1.3.7-.8.9-.8 1.8-.6 2.3.3 1.2 1.5 1.8 2 2 .2.1.7.5 1.2.9.7.6 1 1 1.2 1.2 0 0-.1 0-.2.1-2 .7-3 1.4-3.2 2.4-.2 1 .4 1.6.6 1.9.6.7 1.6.5 2 .5 1-.2 2.5-.7 3.4-1.5.2 0 .5.2.8.5l.1.1.1.1c.2.1 1.4 1 2.9.9 1.5 1.6 3.2 2.7 5.1 3.3 1.8.6 3.7.7 5.8.4.1 0 2.1-.3 2.3-.3-.7 2.2-14.3 33-14.3 33.1l-1 1.8h56.5l-1.2-1.9C61 77.3 55.2 61.8 55 57.4c1.6.5 3.6.9 5.7.9s4-.4 5.7-1.3c1.8-.9 3.3-2.3 4.6-4.1 1.4-.1 2.6-1.2 2.7-1.3l.1-.1.1-.1c.2-.2.5-.5.7-.6 1 .7 2.5 1 3.6 1 .3 0 1.4 0 1.9-.8 0-.1.5-.9.1-1.8zM48.6 12.9c.6 0 1 .5 1 1 0 .6-.5 1-1 1-.6 0-1-.5-1-1 0-.6.4-1 1-1zm-3.6-.2c.8 0 1.4.6 1.4 1.4 0 .8-.6 1.4-1.4 1.4-.8 0-1.4-.6-1.4-1.4 0-.8.6-1.4 1.4-1.4zm8.3 6.1H52l-.9 1.8.2-1.8H41.1l-.3 1.6-.5-1.5v-.1h-1.1c-.1 0-.2-.1-.2-.2s.1-.2.2-.2h14c.1 0 .2.1.2.2.2.1.1.2-.1.2z" fill-rule="nonzero" fill="#f42b37"/></svg>